G04 ================== begin FILE IDENTIFICATION RECORD ==================*
G04 Layout Name:  1010309-900-0012_Rev-A.brd*
G04 Film Name:    1010309-900-0012_Rev-AL3_PWR*
G04 File Format:  Gerber RS274X*
G04 File Origin:  Cadence Allegro 17.2-061*
G04 Origin Date:  Mon Aug 31 14:47:59 2020*
G04 *
G04 Layer:  VIA CLASS/L3 - POWER*
G04 Layer:  PIN/L3 - POWER*
G04 Layer:  ETCH/L3 - POWER*
G04 Layer:  BOARD GEOMETRY/DESIGN_OUTLINE*
G04 Layer:  BOARD GEOMETRY/CUTOUT*
G04 *
G04 Offset:    (0.000 0.000)*
G04 Mirror:    No*
G04 Mode:      Positive*
G04 Rotation:  0*
G04 FullContactRelief:  No*
G04 UndefLineWidth:     0.000*
G04 ================== end FILE IDENTIFICATION RECORD ====================*
%FSLAX25Y25*MOIN*%
%IR0*IPPOS*OFA0.00000B0.00000*MIA0B0*SFA1.00000B1.00000*%
%ADD10O,.187012X.029531*%
%ADD11C,.0215*%
%ADD12C,.043311*%
%ADD13C,.006*%
%ADD14C,.030004*%
G75*
%LPD*%
G75*
G36*
G01X-15697Y113500D02*
G03X-15628Y113508I0J300D01*
G01X-15532Y113531D01*
X-15351Y113455D01*
X-15034Y112922D01*
G02X-14996Y112718I-258J-154D01*
G01X-14998Y112707D01*
X-15020Y112615D01*
X-15037Y112583D01*
G03X-15356Y111294I2447J-1289D01*
G03X-9824Y111294I2766J0D01*
G03X-10143Y112583I-2766J0D01*
G01X-10160Y112615D01*
X-10180Y112695D01*
G02X-10147Y112922I291J74D01*
G01X-9890Y113354D01*
G02X-9632Y113500I258J-153D01*
G01X-9540D01*
G02X-9304Y113385I0J-300D01*
G01X-8970Y112959D01*
X-8941Y112824D01*
X-8957Y112757D01*
G03X-9000Y112400I1457J-357D01*
G03X-8587Y111366I1500J0D01*
G01X-8549Y111326D01*
X-8470Y111139D01*
X-8460Y111080D01*
Y110775D01*
G02X-8466Y110715I-300J0D01*
G01X-8478Y110658D01*
G02X-8495Y110603I-294J61D01*
G01X-8549Y110474D01*
X-8587Y110434D01*
G03X-9000Y109400I1087J-1034D01*
G03X-7500Y107900I1500J0D01*
G03X-6466Y108313I0J1500D01*
G01X-6426Y108351D01*
X-6270Y108417D01*
G02X-6154Y108440I116J-277D01*
G01X-5846D01*
G02X-5730Y108417I0J-300D01*
G01X-5574Y108351D01*
X-5534Y108313D01*
G03X-4500Y107900I1034J1087D01*
G03X-3000Y109400I0J1500D01*
G03X-3513Y110530I-1500J0D01*
G01X-3560Y110571D01*
X-3651Y110761D01*
X-3670Y110826D01*
Y110878D01*
G02X-3537Y111128I300J0D01*
G01X-3536Y111129D01*
G02X-3376Y111179I166J-250D01*
G01X-3310Y111180D01*
X-3247Y111153D01*
G02X-3185Y111117I-120J-275D01*
G01X-3042Y111008D01*
X-3012Y110957D01*
G03X-1217Y109923I1796J1043D01*
G01X14531D01*
G03X15715Y110294I0J2077D01*
G01X15784Y110342D01*
X15951Y110352D01*
X16496Y110067D01*
G02X16657Y109801I-139J-266D01*
G01Y108671D01*
G02X16521Y108420I-300J0D01*
G01X16037Y108104D01*
X15885Y108091D01*
X15816Y108122D01*
G03X14000Y108504I-1816J-4122D01*
G03X14000Y99496I0J-4504D01*
G03X15816Y99878I0J4504D01*
G01X15885Y99909D01*
X16037Y99896D01*
X16521Y99580D01*
G02X16657Y99329I-164J-251D01*
G01Y78671D01*
G02X16521Y78420I-300J0D01*
G01X16037Y78104D01*
X15885Y78091D01*
X15816Y78122D01*
G03X14000Y78504I-1816J-4122D01*
G03X9496Y74000I0J-4504D01*
G03X9510Y73646I4504J1D01*
G01X9515Y73585D01*
X9495Y73527D01*
G02X9435Y73423I-284J95D01*
G01X9108Y73054D01*
X8998Y73002D01*
X8937Y72999D01*
G03X7500Y71500I63J-1499D01*
G03X9000Y70000I1500J0D01*
G03X10153Y70540I0J1500D01*
G01X10157Y70546D01*
X10161Y70550D01*
G02X10369Y70659I232J-190D01*
G01X10800Y70694D01*
G02X11022Y70621I24J-299D01*
G03X14000Y69496I2978J3379D01*
G03X15816Y69878I0J4504D01*
G01X15885Y69909D01*
X16037Y69896D01*
X16521Y69580D01*
G02X16657Y69329I-164J-251D01*
G01Y-39959D01*
G02X16510Y-40217I-300J0D01*
G01X16076Y-40475D01*
G02X15856Y-40509I-153J258D01*
G01X15783Y-40492D01*
X15748Y-40474D01*
G03X14913Y-40267I-835J-1581D01*
G03Y-43843I0J-1788D01*
G03X15770Y-43624I0J1788D01*
G02X15919Y-43588I144J-263D01*
G01X15999Y-43589D01*
X16510Y-43893D01*
G02X16657Y-44151I-153J-258D01*
G01Y-46849D01*
G02X16510Y-47107I-300J0D01*
G01X16067Y-47370D01*
G02X15908Y-47412I-153J258D01*
G01X15835Y-47411D01*
X15742Y-47361D01*
X15710Y-47344D01*
G03X14913Y-47157I-796J-1600D01*
G03X13126Y-48945I0J-1788D01*
G03X13930Y-50438I1788J0D01*
G01X13993Y-50479D01*
X14065Y-50612D01*
X14066Y-51179D01*
G02X13978Y-51392I-300J-1D01*
G01X13933Y-51437D01*
X13911Y-51453D01*
G03X13136Y-52925I1013J-1473D01*
G03X14039Y-54479I1788J0D01*
G01X14110Y-54519D01*
X14191Y-54658D01*
Y-55342D01*
X14110Y-55481D01*
X14039Y-55521D01*
G03X13136Y-57075I885J-1553D01*
G03X14924Y-58862I1788J0D01*
G03X15713Y-58679I0J1788D01*
G01X15744Y-58664D01*
X15811Y-58648D01*
X15975D01*
G02X16121Y-58686I0J-300D01*
G01X16126Y-58689D01*
X16475Y-58897D01*
X16506Y-58919D01*
X16570Y-58982D01*
G02X16657Y-59194I-212J-212D01*
G01Y-60200D01*
G02X16357Y-60500I-300J0D01*
G01X-13519D01*
X-13572Y-60493D01*
G02X-13642Y-60474I41J297D01*
G01X-13782Y-60418D01*
X-13822Y-60382D01*
G03X-14822Y-60000I-1001J-1118D01*
G03X-15823Y-60382I0J-1500D01*
G01X-15863Y-60418D01*
X-16028Y-60484D01*
X-16084Y-60500D01*
X-17523D01*
G02X-17660Y-60467I0J300D01*
G01X-17808Y-60391D01*
X-17860Y-60346D01*
X-17881Y-60319D01*
G03X-25119I-3619J-2681D01*
G01X-25140Y-60346D01*
X-25192Y-60391D01*
X-25340Y-60467D01*
G02X-25477Y-60500I-137J267D01*
G01X-37106D01*
G02X-37375Y-60332I0J300D01*
G01X-37612Y-59847D01*
G02X-37615Y-59591I270J132D01*
G01X-37600Y-59559D01*
X-37571Y-59521D01*
X-37567Y-59515D01*
X-37566Y-59515D01*
X-37561Y-59508D01*
G03X-37224Y-58500I-1338J1008D01*
G03X-37823Y-57216I-1675J0D01*
G01X-37830Y-57210D01*
X-37857Y-57188D01*
X-37897Y-57138D01*
X-37981Y-56967D01*
X-37999Y-56900D01*
Y-51618D01*
G02X-37911Y-51406I300J0D01*
G01X-36143Y-49638D01*
G02X-35931Y-49550I212J-212D01*
G01X-25650D01*
G03X-25014Y-49286I0J900D01*
G01X-24476Y-48748D01*
G02X-24263Y-48661I212J-212D01*
G01X-24240D01*
X-24204Y-48663D01*
X-24196Y-48664D01*
G03X-24001Y-48675I195J1664D01*
G01X-23991D01*
X-23936Y-48675D01*
X-23834Y-48713D01*
X-23452Y-49046D01*
X-23400Y-49142D01*
X-23393Y-49197D01*
G03X-21906Y-50500I1487J197D01*
G03X-20874Y-50090I0J1500D01*
G01X-20852Y-50068D01*
X-20790Y-50030D01*
X-20744Y-50002D01*
X-20640Y-49980D01*
X-20054Y-50068D01*
X-19938Y-50150D01*
X-19904Y-50212D01*
G03X-18584Y-51000I1320J712D01*
G03X-17084Y-49500I0J1500D01*
G03X-18132Y-48069I-1500J0D01*
G02X-18237Y-48011I90J286D01*
G01X-18284Y-47972D01*
X-18503Y-47530D01*
X-18522Y-47493D01*
X-18530Y-47453D01*
G02X-18530Y-47345I295J57D01*
G01X-18526Y-47320D01*
X-18516Y-47293D01*
X-18513Y-47283D01*
G03X-18431Y-46793I-1418J491D01*
G03X-19693Y-45311I-1500J0D01*
G01X-19776Y-45298D01*
X-19904Y-45188D01*
X-20095Y-44599D01*
G02X-20022Y-44295I285J92D01*
G01X-19715Y-43988D01*
G02X-19503Y-43900I212J-212D01*
G01X-11411D01*
G03X-10775Y-43636I0J900D01*
G01X16Y-32846D01*
G02X333Y-32777I212J-212D01*
G01X437Y-32816D01*
X476Y-32848D01*
G03X1537Y-33227I1061J1296D01*
G03X3212Y-31552I0J1675D01*
G01Y-31551D01*
G03X1959Y-29930I-1675J0D01*
G01X1897Y-29914D01*
X1796Y-29833D01*
X1564Y-29373D01*
G02X1532Y-29250I268J135D01*
G01X1530Y-29186D01*
X1563Y-29102D01*
X1572Y-29078D01*
G03X1675Y-28500I-1572J578D01*
G03X-1675I-1675J0D01*
G01Y-28501D01*
G03X-1664Y-28691I1675J1D01*
G01X-1664Y-28694D01*
X-1664Y-28695D01*
X-1663Y-28704D01*
X-1658Y-28781D01*
X-1716Y-28953D01*
X-1740Y-28987D01*
G03X-1900Y-29500I740J-512D01*
G01Y-30394D01*
G02X-1988Y-30607I-300J0D01*
G01X-11893Y-40512D01*
G02X-12106Y-40600I-212J212D01*
G01X-21500D01*
G03X-22137Y-40864I0J-900D01*
G01X-23975Y-42702D01*
G02X-24261Y-42780I-212J212D01*
G01X-24836Y-42634D01*
X-24951Y-42524D01*
X-24973Y-42448D01*
G03X-26413Y-41372I-1439J-426D01*
G03X-27395Y-41739I0J-1501D01*
G01X-27444Y-41780D01*
X-27565Y-41817D01*
X-28061Y-41757D01*
G02X-28237Y-41672I36J298D01*
G01X-28272Y-41637D01*
X-28291Y-41610D01*
X-28298Y-41601D01*
G03X-29500Y-40999I-1202J-899D01*
G03X-30001Y-41085I0J-1501D01*
G02X-30103Y-41102I-100J283D01*
G01X-30161Y-41102D01*
X-30583Y-40929D01*
G02X-30675Y-40870I114J278D01*
G01X-30715Y-40832D01*
X-30750Y-40762D01*
X-30759Y-40744D01*
G03X-30781Y-40704I-1329J-695D01*
G03X-30782Y-40702I-261J-148D01*
G01X-30810Y-40654D01*
X-30828Y-40545D01*
X-30730Y-40052D01*
X-30674Y-39960D01*
X-30631Y-39927D01*
G03X-30052Y-38743I-921J1184D01*
G03X-30181Y-38134I-1500J0D01*
G01X-30194Y-38105D01*
X-30222Y-38048D01*
X-30264Y-37971D01*
X-30272Y-37918D01*
X-30280Y-37864D01*
X-30176Y-37374D01*
X-30118Y-37283D01*
X-30074Y-37250D01*
X-30068Y-37245D01*
X-30060Y-37239D01*
G03X-29478Y-36053I-919J1186D01*
G03X-30254Y-34739I-1500J0D01*
G01X-30273Y-34729D01*
X-30291Y-34720D01*
G02X-30427Y-34575I139J266D01*
G01X-30430Y-34570D01*
X-30574Y-34208D01*
G02X-30594Y-34128I279J112D01*
G01X-30598Y-34087D01*
X-30592Y-34046D01*
X-30582Y-33992D01*
X-30569Y-33950D01*
X-30563Y-33930D01*
G03X-30500Y-33500I-1437J430D01*
G03X-33500Y-33500I-1500J0D01*
G03X-32724Y-34814I1500J0D01*
G01X-32706Y-34824D01*
X-32687Y-34834D01*
G02X-32551Y-34978I-139J-266D01*
G01X-32549Y-34984D01*
X-32404Y-35345D01*
G02X-32384Y-35425I-279J-112D01*
G01X-32380Y-35466D01*
X-32387Y-35507D01*
X-32396Y-35562D01*
X-32410Y-35603D01*
X-32416Y-35624D01*
G03X-32479Y-36053I1437J-430D01*
G03X-32349Y-36663I1500J0D01*
G01X-32337Y-36691D01*
X-32308Y-36749D01*
X-32267Y-36824D01*
X-32259Y-36876D01*
X-32250Y-36931D01*
X-32344Y-37369D01*
G02X-32453Y-37543I-293J63D01*
G01X-32463Y-37551D01*
X-32471Y-37557D01*
G03X-33052Y-38743I919J-1186D01*
G03X-32859Y-39479I1500J0D01*
G01X-32855Y-39487D01*
X-32827Y-39544D01*
X-32820Y-39589D01*
G02X-32822Y-39694I-296J-46D01*
G01X-32909Y-40131D01*
X-32966Y-40223D01*
X-33008Y-40256D01*
G03X-33588Y-41440I921J-1184D01*
G03X-32088Y-42940I1500J0D01*
G01X-32087D01*
G03X-31609Y-42862I0J1500D01*
G01X-31586Y-42855D01*
X-31530Y-42845D01*
G02X-31366Y-42863I51J-296D01*
G01X-31006Y-43011D01*
G02X-30850Y-43157I-114J-278D01*
G03X-29500Y-44001I1350J657D01*
G03X-28517Y-43635I0J1501D01*
G01X-28469Y-43593D01*
X-28348Y-43556D01*
X-27852Y-43616D01*
G02X-27676Y-43702I-36J-298D01*
G01X-27641Y-43737D01*
X-27622Y-43763D01*
X-27615Y-43772D01*
G03X-26838Y-44313I1202J899D01*
G01X-26762Y-44335D01*
X-26652Y-44450D01*
X-26506Y-45025D01*
G02X-26585Y-45311I-291J-74D01*
G01X-26960Y-45687D01*
G02X-27172Y-45775I-212J212D01*
G01X-27574D01*
G02X-27612Y-45772I0J300D01*
G01X-27688Y-45763D01*
X-27870Y-45673D01*
X-27920Y-45633D01*
X-27942Y-45606D01*
X-27948Y-45599D01*
G03X-29232Y-45000I-1284J-1076D01*
G03X-30868Y-46314I0J-1675D01*
G02X-31161Y-46550I-293J65D01*
G01X-36925D01*
G03X-37562Y-46814I0J-900D01*
G01X-43176Y-52427D01*
G03X-43339Y-52651I636J-637D01*
G01X-43355Y-52683D01*
X-43459Y-52802D01*
X-43490Y-52824D01*
G03X-44214Y-54203I952J-1379D01*
G03X-40864I1675J0D01*
G03X-41142Y-53279I-1675J0D01*
G01X-41201Y-53190D01*
X-41179Y-52977D01*
X-40311Y-52110D01*
G02X-39985Y-52045I212J-212D01*
G01X-39900Y-52079D01*
X-39799Y-52231D01*
Y-56842D01*
G02X-39802Y-56880I-300J0D01*
G01X-39811Y-56956D01*
X-39901Y-57138D01*
X-39941Y-57188D01*
X-39968Y-57210D01*
X-39975Y-57216D01*
G03X-40574Y-58500I1076J-1284D01*
G03X-40236Y-59509I1675J0D01*
G01X-40226Y-59523D01*
X-40198Y-59559D01*
X-40183Y-59591D01*
G02X-40186Y-59847I-273J-125D01*
G01X-40423Y-60332D01*
G02X-40693Y-60500I-270J132D01*
G01X-45200D01*
G02X-45500Y-60200I0J300D01*
G01Y-47244D01*
G02X-45442Y-47067I300J0D01*
G01X-45408Y-47019D01*
X-45350Y-46984D01*
G03X-45347Y-46982I-161J253D01*
G01X-44938Y-46723D01*
X-44889Y-46694D01*
X-44777Y-46671D01*
X-44714Y-46686D01*
X-44644Y-46701D01*
X-44616Y-46714D01*
G03X-44000Y-46846I616J1368D01*
G03X-44000Y-43846I0J1500D01*
G03X-44616Y-43978I0J-1500D01*
G01X-44644Y-43991D01*
X-44763Y-44018D01*
X-44822Y-44011D01*
X-44890Y-44000D01*
X-45360Y-43702D01*
G02X-45500Y-43448I160J254D01*
G01Y-28827D01*
G02X-45379Y-28587I300J0D01*
G01X-45014Y-28315D01*
G02X-44835Y-28255I179J-241D01*
G01X-44760D01*
X-44685Y-28265D01*
X-44667Y-28269D01*
X-44666Y-28269D01*
G03X-44300Y-28315I367J1455D01*
G03X-44300Y-25314I0J1500D01*
G03X-44692Y-25366I0J-1500D01*
G01X-44712Y-25372D01*
X-44730Y-25377D01*
G02X-44994Y-25330I-85J288D01*
G01X-45379Y-25042D01*
G02X-45500Y-24802I179J241D01*
G01Y-20540D01*
G02X-45385Y-20304I300J0D01*
G01X-44959Y-19970D01*
X-44824Y-19941D01*
X-44757Y-19957D01*
G03X-44400Y-20000I357J1457D01*
G03X-44400Y-17000I0J1500D01*
G03X-44757Y-17043I0J-1500D01*
G01X-44824Y-17059D01*
X-44959Y-17030D01*
X-45385Y-16696D01*
G02X-45500Y-16460I185J236D01*
G01Y-9540D01*
G02X-45385Y-9304I300J0D01*
G01X-44959Y-8970D01*
X-44824Y-8941D01*
X-44757Y-8957D01*
G03X-44400Y-9000I357J1457D01*
G03X-44400Y-6000I0J1500D01*
G03X-44757Y-6043I0J-1500D01*
G01X-44824Y-6059D01*
X-44959Y-6030D01*
X-45385Y-5696D01*
G02X-45500Y-5460I185J236D01*
G01Y12173D01*
G02X-45362Y12425I300J0D01*
G01X-44874Y12739D01*
X-44721Y12750D01*
X-44652Y12719D01*
G03X-43958Y12568I694J1525D01*
G03X-42989Y12877I0J1675D01*
G01X-42972Y12889D01*
X-42898Y12928D01*
X-42862Y12937D01*
X-42815Y12948D01*
X-42329Y12908D01*
X-42231Y12863D01*
X-42193Y12824D01*
G03X-41000Y12325I1193J1176D01*
G03X-39325Y14000I0J1675D01*
G01Y14001D01*
G03X-39339Y14221I-1675J0D01*
G01X-39349Y14290D01*
X-39304Y14423D01*
X-32364Y21364D01*
G03X-32100Y22000I-636J637D01*
G01Y28500D01*
G03X-32364Y29137I-900J0D01*
G01X-33391Y30164D01*
G02X-33479Y30376I212J212D01*
G01Y42842D01*
G02X-33476Y42880I300J0D01*
G01X-33467Y42956D01*
X-33377Y43138D01*
X-33337Y43188D01*
X-33310Y43210D01*
X-33303Y43216D01*
G03X-32704Y44500I-1076J1284D01*
G03X-33462Y45902I-1675J0D01*
G01X-33492Y45921D01*
X-33516Y45947D01*
G02X-33598Y46134I218J207D01*
G01X-33629Y46612D01*
G02X-33541Y46843I299J19D01*
G01X-33525Y46860D01*
X-33517Y46867D01*
G03X-33000Y48000I-983J1133D01*
G03X-36000I-1500J0D01*
G03X-35410Y46807I1500J0D01*
G01X-35394Y46795D01*
X-35361Y46762D01*
G02X-35274Y46552I-212J-212D01*
G01X-35271Y46005D01*
X-35334Y45879D01*
X-35390Y45836D01*
G03X-36054Y44500I1011J-1336D01*
G03X-35455Y43216I1675J0D01*
G01X-35448Y43210D01*
X-35421Y43188D01*
X-35381Y43138D01*
X-35295Y42963D01*
X-35279Y42896D01*
Y29879D01*
G03X-35278Y29831I900J0D01*
G01X-35275Y29772D01*
X-35300Y29678D01*
X-35327Y29638D01*
X-35526Y29340D01*
G02X-35641Y29238I-250J166D01*
G01X-35680Y29219D01*
X-35697Y29213D01*
G03X-36809Y27635I563J-1578D01*
G03X-36210Y26351I1675J0D01*
G01X-36203Y26345D01*
X-36175Y26323D01*
X-36136Y26273D01*
X-36050Y26098D01*
X-36034Y26030D01*
Y23565D01*
G02X-36122Y23353I-300J0D01*
G01X-42066Y17408D01*
G02X-42332Y17325I-212J212D01*
G01X-42744Y17400D01*
G02X-42874Y17457I53J295D01*
G01X-42904Y17481D01*
X-43062Y17639D01*
X-43083Y17677D01*
G03X-44400Y18458I-1317J-719D01*
G03X-44757Y18415I0J-1500D01*
G01X-44824Y18399D01*
X-44959Y18428D01*
X-45385Y18762D01*
G02X-45500Y18998I185J236D01*
G01Y25192D01*
G02X-45385Y25428I300J0D01*
G01X-44960Y25762D01*
X-44825Y25791D01*
X-44757Y25774D01*
G03X-44400Y25731I357J1457D01*
G03X-42900Y27232I0J1501D01*
G03X-43220Y28158I-1500J0D01*
G01X-43254Y28202D01*
X-43287Y28310D01*
X-43251Y28771D01*
X-43226Y28822D01*
X-43157Y28965D01*
X-43121Y29001D01*
G03X-42678Y30066I-1057J1065D01*
G03X-44178Y31566I-1500J0D01*
G03X-44694Y31474I0J-1500D01*
G01X-44763Y31449D01*
X-44908Y31468D01*
X-45372Y31792D01*
G02X-45500Y32038I172J246D01*
G01Y109801D01*
G02X-45339Y110067I300J0D01*
G01X-44970Y110260D01*
G02X-44831Y110294I139J-266D01*
G01X-44606D01*
X-44525Y110270D01*
X-44488Y110247D01*
G03X-43375Y109923I1113J1753D01*
G01X-27626D01*
G03X-25655Y112654I0J2077D01*
G01X-25663Y112677D01*
X-25695Y112767D01*
X-25685Y112840D01*
X-25676Y112905D01*
X-25641Y112960D01*
X-25636Y112967D01*
X-25350Y113373D01*
G02X-25105Y113500I245J-173D01*
G01X-24359D01*
G03X-24290Y113508I0J300D01*
G01X-24194Y113531D01*
X-24013Y113455D01*
X-23696Y112922D01*
G02X-23658Y112718I-258J-154D01*
G01X-23660Y112707D01*
X-23683Y112615D01*
X-23700Y112583D01*
G03X-24018Y111294I2447J-1289D01*
G03X-18487Y111294I2766J0D01*
G03X-18805Y112583I-2766J0D01*
G01X-18822Y112615D01*
X-18842Y112695D01*
G02X-18809Y112922I291J74D01*
G01X-18552Y113354D01*
G02X-18294Y113500I258J-153D01*
G01X-15697D01*
G37*
%LPC*%
G75*
G36*
G01X-3255Y43668D02*
X-3486Y44114D01*
X-3566Y44187D01*
X-3616Y44207D01*
G02X-4562Y45601I555J1394D01*
G02X-1561I1500J0D01*
G02X-1604Y45247I-1500J0D01*
G01X-1616Y45194D01*
X-1604Y45087D01*
X-1373Y44641D01*
X-1293Y44568D01*
X-1242Y44548D01*
G02X-297Y43154I-555J-1394D01*
G02X-3298I-1500J0D01*
G02X-3255Y43508I1500J0D01*
G01X-3242Y43561D01*
X-3255Y43668D01*
G37*
G36*
G01X94Y85641D02*
G02X-507Y86841I900J1200D01*
G02X2494I1500J0D01*
G02X1894Y85641I-1500J0D01*
G03X1774Y85401I180J-240D01*
G01Y84921D01*
G03X1894Y84681I300J0D01*
G02X2494Y83481I-900J-1200D01*
G02X2044Y82410I-1500J0D01*
G03X1954Y82195I210J-214D01*
G01Y81767D01*
G03X2044Y81553I300J0D01*
G02Y79410I-1050J-1071D01*
G03X1954Y79195I210J-214D01*
G01Y78767D01*
G03X2044Y78553I300J0D01*
G02X2494Y77481I-1050J-1071D01*
G02X1894Y76281I-1500J0D01*
G03X1774Y76041I180J-240D01*
G01Y75561D01*
G03X1894Y75321I300J0D01*
G02X2494Y74121I-900J-1200D01*
G02X-507I-1500J0D01*
G02X94Y75321I1500J0D01*
G03X213Y75561I-180J240D01*
G01Y76041D01*
G03X94Y76281I-300J0D01*
G02X-507Y77481I900J1200D01*
G02X-56Y78553I1500J0D01*
G03X34Y78767I-210J214D01*
G01Y79195D01*
G03X-56Y79410I-300J0D01*
G02Y81553I1050J1072D01*
G03X34Y81767I-210J214D01*
G01Y82195D01*
G03X-56Y82410I-300J0D01*
G02X-507Y83481I1050J1072D01*
G02X94Y84681I1500J0D01*
G03X213Y84921I-180J240D01*
G01Y85401D01*
G03X94Y85641I-300J0D01*
G37*
G36*
G01X-27969Y76196D02*
X-27947Y76245D01*
G02X-26576Y77135I1370J-610D01*
G02X-25311Y76440I0J-1500D01*
G01X-25269Y76375D01*
X-25134Y76301D01*
X-24474D01*
X-24340Y76375D01*
X-24298Y76440D01*
G02X-23032Y77135I1266J-805D01*
G02X-21532Y75635I0J-1500D01*
G02X-21593Y75213I-1500J0D01*
G01X-21610Y75154D01*
X-21595Y75031D01*
X-21314Y74548D01*
X-21215Y74474D01*
X-21155Y74460D01*
G02X-20000Y73000I-345J-1460D01*
G02X-21500Y71500I-1500J0D01*
G02X-22572Y71950I0J1500D01*
G03X-22786Y72040I-214J-210D01*
G01X-23214D01*
G03X-23428Y71950I0J-300D01*
G02X-24500Y71500I-1072J1050D01*
G02X-26000Y73000I0J1500D01*
G02X-25951Y73382I1500J0D01*
G01X-25933Y73451D01*
X-25961Y73589D01*
X-26346Y74076D01*
X-26473Y74137D01*
X-26544Y74135D01*
G02X-26576Y74135I-35J1500D01*
G02X-26985Y74192I0J1500D01*
G01X-27037Y74206D01*
X-27145Y74198D01*
X-27599Y73985D01*
X-27675Y73908D01*
X-27696Y73858D01*
G02X-29067Y72968I-1370J610D01*
G02Y75969I0J1500D01*
G02X-28658Y75912I0J-1500D01*
G01X-28606Y75897D01*
X-28498Y75906D01*
X-28045Y76119D01*
X-27969Y76196D01*
G37*
G36*
G01X-29742Y60950D02*
G02X-30500Y62254I742J1304D01*
G02X-27500I1500J0D01*
G02X-27900Y61233I-1500J0D01*
G03X-27758Y60304I440J-408D01*
G02X-27000Y59000I-742J-1304D01*
G02X-30000I-1500J0D01*
G02X-29600Y60021I1500J0D01*
G03X-29742Y60950I-440J408D01*
G37*
G36*
G01X-37736Y62458D02*
G02X-36250Y63754I1486J-204D01*
G02Y60754I0J-1500D01*
G02X-36607Y60797I0J1500D01*
G03X-37344Y60296I-143J-583D01*
G02X-38830Y59000I-1486J204D01*
G02Y62000I0J1500D01*
G02X-38473Y61957I0J-1500D01*
G03X-37736Y62458I143J583D01*
G37*
G36*
G01X-7968Y28355D02*
G02X-8316Y29316I1152J961D01*
G02X-5315I1500J0D01*
G02X-6276Y27916I-1500J0D01*
G03X-6522Y26972I216J-560D01*
G02X-6174Y26011I-1152J-961D01*
G02X-9174I-1500J0D01*
G02X-8213Y27411I1500J0D01*
G03X-7968Y28355I-216J560D01*
G37*
G36*
G01X-37947Y165D02*
X-37906Y230D01*
G02X-36640Y925I1266J-805D01*
G02X-35374Y230I0J-1500D01*
G01X-35333Y165D01*
X-35198Y91D01*
X-34538D01*
X-34403Y165D01*
X-34362Y230D01*
G02X-33096Y925I1266J-805D01*
G02Y-2075I0J-1500D01*
G02X-34362Y-1380I0J1500D01*
G01X-34403Y-1315D01*
X-34538Y-1241D01*
X-35198D01*
X-35333Y-1315D01*
X-35374Y-1380D01*
G02X-36640Y-2075I-1266J805D01*
G02X-37906Y-1380I0J1500D01*
G01X-37947Y-1315D01*
X-38082Y-1241D01*
X-38742D01*
X-38877Y-1315D01*
X-38918Y-1380D01*
G02X-40184Y-2075I-1266J805D01*
G02Y925I0J1500D01*
G02X-38918Y230I0J-1500D01*
G01X-38877Y165D01*
X-38742Y91D01*
X-38082D01*
X-37947Y165D01*
G37*
G36*
G01X6511Y-3720D02*
X6482Y-3659D01*
G02X6329Y-3000I1348J659D01*
G02X9330I1500J0D01*
G02X8198Y-4454I-1500J0D01*
G01X8132Y-4471D01*
X8028Y-4557D01*
X7775Y-5103D01*
X7776Y-5238D01*
X7806Y-5299D01*
G02X7958Y-5958I-1348J-659D01*
G02X6458Y-7458I-1500J0D01*
G02X5481Y-7096I0J1500D01*
G01X5439Y-7061D01*
X5336Y-7023D01*
X4829Y-7031D01*
X4726Y-7071D01*
X4686Y-7108D01*
G02X3675Y-7500I-1011J1108D01*
G02Y-4500I0J1500D01*
G02X4652Y-4862I0J-1500D01*
G01X4694Y-4897D01*
X4797Y-4935D01*
X5304Y-4927D01*
X5406Y-4887D01*
X5447Y-4850D01*
G02X6090Y-4504I1011J-1108D01*
G01X6156Y-4487D01*
X6260Y-4401D01*
X6513Y-3855D01*
X6511Y-3720D01*
G37*
G36*
G01X-12484Y-10428D02*
X-12529Y-10385D01*
G02X-13000Y-9293I1029J1091D01*
G02X-10000I1500J0D01*
G02X-10483Y-10396I-1500J0D01*
G01X-10529Y-10439D01*
X-10580Y-10553D01*
X-10583Y-11117D01*
X-10534Y-11231D01*
X-10488Y-11274D01*
G02X-10017Y-12366I-1029J-1091D01*
G02X-10266Y-13193I-1500J0D01*
G01X-10296Y-13238D01*
X-10320Y-13343D01*
X-10256Y-13840D01*
X-10205Y-13936D01*
X-10165Y-13972D01*
G02X-9662Y-15092I-997J-1121D01*
G02X-12662I-1500J0D01*
G02X-12413Y-14265I1500J0D01*
G01X-12384Y-14220D01*
X-12359Y-14115D01*
X-12424Y-13618D01*
X-12475Y-13522D01*
X-12515Y-13486D01*
G02X-13018Y-12366I997J1121D01*
G02X-12534Y-11262I1500J0D01*
G01X-12488Y-11220D01*
X-12438Y-11106D01*
X-12435Y-10542D01*
X-12484Y-10428D01*
G37*
G36*
G01X-31472Y-18296D02*
X-31483Y-18227D01*
G02X-31500Y-18000I1483J227D01*
G02X-28500I1500J0D01*
G02X-29158Y-19242I-1500J0D01*
G01X-29223Y-19286D01*
X-29293Y-19426D01*
X-29259Y-20096D01*
X-29175Y-20229D01*
X-29106Y-20266D01*
G02X-28318Y-21587I-712J-1320D01*
G02X-29818Y-23087I-1500J0D01*
G02X-31192Y-22189I0J1500D01*
G01X-31214Y-22139D01*
X-31289Y-22062D01*
X-31742Y-21846D01*
X-31849Y-21837D01*
X-31902Y-21851D01*
G02X-32301Y-21906I-400J1446D01*
G02Y-18905I0J1500D01*
G02X-32140Y-18914I0J-1500D01*
G01X-32071Y-18921D01*
X-31940Y-18873D01*
X-31514Y-18429D01*
X-31472Y-18296D01*
G37*
G36*
G01X-12701Y-668D02*
X-12196Y-492D01*
X-12108Y-415D01*
X-12082Y-362D01*
G02X-10741Y466I1341J-672D01*
G02Y-2534I0J-1500D01*
G02X-11370Y-2396I0J1500D01*
G01X-11424Y-2371D01*
X-11540Y-2366D01*
X-12045Y-2542D01*
X-12132Y-2620D01*
X-12159Y-2672D01*
G02X-13430Y-3499I-1341J672D01*
G01X-13486Y-3501D01*
X-13588Y-3546D01*
X-13954Y-3912D01*
X-13999Y-4014D01*
X-14001Y-4070D01*
G02X-15500Y-5500I-1499J70D01*
G02X-17000Y-4000I0J1500D01*
G02X-15570Y-2501I1500J0D01*
G01X-15514Y-2499D01*
X-15412Y-2454D01*
X-15046Y-2088D01*
X-15001Y-1986D01*
X-14999Y-1930D01*
G02X-13500Y-500I1499J-70D01*
G02X-12871Y-638I0J-1500D01*
G01X-12817Y-663D01*
X-12701Y-668D01*
G37*
G36*
G01X-29645Y-7331D02*
X-29764Y-6844D01*
X-29824Y-6755D01*
X-29868Y-6723D01*
G02X-30500Y-5500I868J1223D01*
G02X-27500I1500J0D01*
G02X-27665Y-6185I-1500J0D01*
G01X-27690Y-6233D01*
X-27703Y-6341D01*
X-27584Y-6827D01*
X-27523Y-6917D01*
X-27479Y-6948D01*
G02X-26847Y-8172I-868J-1223D01*
G02X-29848I-1500J0D01*
G02X-29682Y-7486I1500J0D01*
G01X-29657Y-7438D01*
X-29645Y-7331D01*
G37*
G36*
G01X5413Y-17580D02*
X4918Y-17661D01*
X4824Y-17714D01*
X4790Y-17756D01*
G02X3639Y-18294I-1151J962D01*
G02Y-15293I0J1500D01*
G02X4427Y-15517I0J-1500D01*
G01X4473Y-15545D01*
X4579Y-15566D01*
X5074Y-15486D01*
X5168Y-15433D01*
X5202Y-15391D01*
G02X6353Y-14853I1151J-962D01*
G02Y-17854I0J-1500D01*
G02X5565Y-17630I0J1500D01*
G01X5519Y-17601D01*
X5413Y-17580D01*
G37*
G36*
G01X11000Y56000D02*
G02Y53000I0J-1500D01*
G02X9500Y54456I0J1500D01*
G03X8786Y55027I-600J-18D01*
G02X8500Y55000I-286J1473D01*
G02Y58000I0J1500D01*
G02X10000Y56544I0J-1500D01*
G03X10714Y55973I600J18D01*
G02X11000Y56000I286J-1473D01*
G37*
G36*
G01X3525Y59968D02*
G02X2500Y59563I-1025J1096D01*
G02Y62564I0J1500D01*
G02X3618Y62064I0J-1500D01*
G03X4471Y62022I447J400D01*
G03X4474Y62024I-202J222D01*
G02X5500Y62430I1027J-1094D01*
G02X6572Y61980I0J-1500D01*
G03X6786Y61890I214J210D01*
G01X7214D01*
G03X7428Y61980I0J300D01*
G02X8500Y62430I1072J-1050D01*
G02Y59430I0J-1500D01*
G02X7428Y59880I0J1500D01*
G03X7214Y59970I-214J-210D01*
G01X6786D01*
G03X6572Y59880I0J-300D01*
G02X5500Y59430I-1072J1050D01*
G02X4380Y59932I0J1500D01*
G03X4378Y59934I-226J-197D01*
G03X3525Y59968I-443J-404D01*
G37*
G54D14*
X-9639Y41577D03*
X-14716Y68492D03*
X0Y27500D03*
X11500Y-9000D03*
X-42978Y54500D03*
X-34500Y-54797D03*
X-42870Y63500D03*
X6000Y40000D03*
X-30000Y-13000D03*
X12980Y15734D03*
X-1603Y-6897D03*
X-2214Y67459D03*
X3000Y54500D03*
X-18500Y22794D03*
X-16500Y28500D03*
X14555Y29101D03*
X-1685Y15734D03*
X-19000Y87330D03*
X-24054Y-946D03*
X-23181Y48008D03*
X-23745Y16955D03*
X-2214Y63500D03*
X13989Y49000D03*
X-24000Y30500D03*
X4500Y-47381D03*
X-26029Y-11000D03*
X-33000Y59000D03*
X-15849Y-9151D03*
X-34000Y88500D03*
X5000Y-43760D03*
X-40500Y91644D03*
X-39828Y84081D03*
X-32721Y77408D03*
X-15591Y-31909D03*
X-7284Y-54845D03*
X14500Y-38176D03*
X8149Y97267D03*
X-38589Y72881D03*
X-12591Y-28909D03*
X-2000Y-56500D03*
X-31500Y92351D03*
X5315Y-56812D03*
X-18591Y-34909D03*
X9500Y-12000D03*
X-10906Y-54826D03*
X-43025Y72881D03*
X-19167Y41577D03*
X-14403Y42679D03*
%LPD*%
G75*
G54D10*
X-35500Y-63196D03*
Y112000D03*
X6657Y-63196D03*
Y112000D03*
G54D11*
X-38899Y-58500D03*
X-29232Y-46675D03*
X-42539Y-54203D03*
X-31750Y-5500D03*
X-44300Y20700D03*
X-43958Y14244D03*
X-41000Y14000D03*
X-44300Y23700D03*
X-35134Y27635D03*
X-34379Y44500D03*
X-20500Y-51500D03*
X-24000Y-47000D03*
X-26500Y-20500D03*
X-27500Y-500D03*
X-22000Y27500D03*
X-18399Y49051D03*
X-16524Y58794D03*
Y54660D03*
X-4000Y-43500D03*
X1537Y-31552D03*
X0Y-28500D03*
X-500Y-23000D03*
X-8074Y19480D03*
Y22480D03*
X14885Y425D03*
X3000Y49000D03*
X10740Y66936D03*
X8149Y104471D03*
G54D12*
X-21252Y111294D03*
X-12590D03*
G54D13*
G01X-38899Y-58500D02*
Y-51121D01*
X-36428Y-48650D01*
X-25650D01*
X-24000Y-47000D01*
G01X-29232Y-46675D02*
X-30007Y-47450D01*
X-36925D01*
X-42539Y-53064D01*
Y-54203D01*
G01X-35134Y27635D02*
Y23068D01*
X-43958Y14244D01*
G01X-41000Y14000D02*
X-33000Y22000D01*
Y28500D01*
X-34379Y29879D01*
Y44500D01*
G01X-24000Y-47000D02*
X-20000Y-43000D01*
X-11411D01*
X37Y-31552D01*
X1537D01*
G01X0Y-28500D02*
X-1000Y-29500D01*
Y-30892D01*
X-11608Y-41500D01*
X-21500D01*
X-26675Y-46675D01*
X-29232D01*
M02*
