G04 ================== begin FILE IDENTIFICATION RECORD ==================*
G04 Layout Name:  1010309-900-0012_Rev-A.brd*
G04 Film Name:    1010309-900-0012_Rev-ASILKSCREEN_BOT*
G04 File Format:  Gerber RS274X*
G04 File Origin:  Cadence Allegro 17.2-061*
G04 Origin Date:  Mon Aug 31 14:47:59 2020*
G04 *
G04 Layer:  REF DES/SILKSCREEN_BOTTOM*
G04 Layer:  PACKAGE GEOMETRY/SILKSCREEN_BOTTOM*
G04 Layer:  BOARD GEOMETRY/SILKSCREEN_BOTTOM*
G04 Layer:  BOARD GEOMETRY/DESIGN_OUTLINE*
G04 Layer:  BOARD GEOMETRY/CUTOUT*
G04 *
G04 Offset:    (0.000 0.000)*
G04 Mirror:    No*
G04 Mode:      Positive*
G04 Rotation:  0*
G04 FullContactRelief:  No*
G04 UndefLineWidth:     1.000*
G04 ================== end FILE IDENTIFICATION RECORD ====================*
%FSLAX25Y25*MOIN*%
%IR0*IPPOS*OFA0.00000B0.00000*MIA0B0*SFA1.00000B1.00000*%
%ADD10C,.019689*%
%ADD11C,.004*%
%ADD12C,.01*%
%ADD13C,.001*%
G75*
%LPD*%
G75*
G54D10*
G01X-38622Y-50586D02*
X-30748D01*
G01X-34685Y-54523D02*
Y-46649D01*
G01X10779Y104890D02*
X2905D01*
G01X6842Y108827D02*
Y100953D01*
G54D11*
G01X-33417Y107493D02*
X-33550Y107633D01*
X-33650Y107867D01*
X-33717Y108193D01*
X-33650Y108473D01*
X-33517Y108660D01*
X-33283Y108800D01*
X-32383D01*
Y106000D01*
X-33483D01*
X-33717Y106187D01*
X-33850Y106467D01*
X-33917Y106793D01*
X-33850Y107120D01*
X-33650Y107400D01*
X-33417Y107493D01*
X-32383D01*
G01X-35217Y108333D02*
X-35417Y108613D01*
X-35650Y108753D01*
X-35917Y108800D01*
X-36250Y108707D01*
X-36483Y108473D01*
X-36550Y108193D01*
X-36517Y107913D01*
X-36383Y107680D01*
X-35717Y107213D01*
X-35417Y106887D01*
X-35217Y106420D01*
X-35150Y106000D01*
X-36550D01*
G01X-1033Y106500D02*
Y109600D01*
X-1992D01*
X-2298Y109445D01*
X-2490Y109238D01*
X-2567Y108825D01*
X-2490Y108412D01*
X-2260Y108153D01*
X-1992Y107998D01*
X-1033D01*
G01X-1992D02*
X-2567Y106500D01*
G01X-5000Y109600D02*
Y106500D01*
G01X-4118Y109600D02*
X-5882D01*
G01X-7472Y109083D02*
X-7702Y109393D01*
X-7970Y109548D01*
X-8277Y109600D01*
X-8660Y109497D01*
X-8928Y109238D01*
X-9005Y108928D01*
X-8967Y108618D01*
X-8813Y108360D01*
X-8047Y107843D01*
X-7702Y107482D01*
X-7472Y106965D01*
X-7395Y106500D01*
X-9005D01*
G01X11807Y-56618D02*
Y-53818D01*
X10974D01*
X10707Y-53958D01*
X10540Y-54145D01*
X10474Y-54518D01*
X10540Y-54891D01*
X10740Y-55125D01*
X10974Y-55265D01*
X11807D01*
G01X10974D02*
X10474Y-56618D01*
G01X8440Y-53818D02*
Y-56618D01*
G01X9207Y-53818D02*
X7674D01*
G01X5740Y-56618D02*
Y-53818D01*
X6140Y-54378D01*
G01Y-56618D02*
X5340D01*
G01X11367Y-43500D02*
Y-40700D01*
X10533D01*
X10267Y-40840D01*
X10100Y-41027D01*
X10033Y-41400D01*
X10100Y-41773D01*
X10300Y-42007D01*
X10533Y-42147D01*
X11367D01*
G01X10533D02*
X10033Y-43500D01*
G01X8000Y-40700D02*
Y-43500D01*
G01X8767Y-40700D02*
X7233D01*
G01X6033Y-42940D02*
X5833Y-43267D01*
X5567Y-43453D01*
X5267Y-43500D01*
X5000Y-43453D01*
X4733Y-43220D01*
X4567Y-42940D01*
X4533Y-42660D01*
X4600Y-42333D01*
X4833Y-42100D01*
X5067Y-42007D01*
X5367D01*
G01X5067D02*
X4867Y-41867D01*
X4700Y-41633D01*
X4633Y-41353D01*
X4700Y-41073D01*
X4867Y-40840D01*
X5167Y-40700D01*
X5467Y-40747D01*
X5767Y-40933D01*
G01X14083Y99993D02*
X13950Y100133D01*
X13850Y100367D01*
X13783Y100693D01*
X13850Y100973D01*
X13983Y101160D01*
X14217Y101300D01*
X15117D01*
Y98500D01*
X14017D01*
X13783Y98687D01*
X13650Y98967D01*
X13583Y99293D01*
X13650Y99620D01*
X13850Y99900D01*
X14083Y99993D01*
X15117D01*
G01X11650Y98500D02*
Y101300D01*
X12050Y100740D01*
G01Y98500D02*
X11250D01*
G54D12*
G01X-39250Y54300D02*
Y52800D01*
X-40900D01*
X-41450Y53250D01*
X-41817Y53775D01*
X-42000Y54525D01*
X-41817Y55275D01*
X-41450Y55800D01*
X-40900Y56250D01*
X-40258Y56550D01*
X-39525Y56700D01*
X-38883D01*
X-38333Y56550D01*
X-37692Y56250D01*
X-37142Y55800D01*
X-36775Y55350D01*
X-36500Y54750D01*
Y54225D01*
X-36683Y53625D01*
X-37050Y53175D01*
G01X-42000Y49050D02*
X-41908Y49500D01*
X-41542Y49950D01*
X-40900Y50250D01*
X-40167Y50400D01*
X-39433Y50250D01*
X-38792Y49950D01*
X-38425Y49500D01*
X-38333Y49050D01*
X-38425Y48600D01*
X-38792Y48150D01*
X-39433Y47850D01*
X-40167Y47775D01*
X-40900Y47850D01*
X-41542Y48150D01*
X-41908Y48600D01*
X-42000Y49050D01*
G01Y44625D02*
X-38333D01*
G01X-39250D02*
X-38792Y44325D01*
X-38425Y43875D01*
X-38333Y43275D01*
X-38425Y42750D01*
X-38792Y42300D01*
X-39433Y42075D01*
X-42000D01*
G01X-39525Y38775D02*
Y36375D01*
X-38883Y36600D01*
X-38517Y36975D01*
X-38333Y37500D01*
X-38425Y38025D01*
X-38700Y38475D01*
X-39342Y38775D01*
X-39892Y38925D01*
X-40442D01*
X-40992Y38775D01*
X-41542Y38400D01*
X-41908Y37950D01*
X-42000Y37425D01*
X-41817Y36900D01*
X-41267Y36375D01*
G01X-42000Y27675D02*
X-36500D01*
Y24825D01*
G01X-39158Y25875D02*
Y27675D01*
G01X-38333Y20550D02*
X-42000D01*
G01X-36867D02*
X-36775Y20700D01*
X-36592D01*
X-36500Y20550D01*
X-36592Y20400D01*
X-36775D01*
X-36867Y20550D01*
G01X-41358Y15975D02*
X-41725Y15600D01*
X-42000Y15075D01*
Y14625D01*
X-41817Y14175D01*
X-41542Y13875D01*
X-41175Y13725D01*
X-40625Y13800D01*
X-40350Y14100D01*
X-39800Y15450D01*
X-39158Y15750D01*
X-38700Y15600D01*
X-38425Y15300D01*
X-38333Y14850D01*
X-38425Y14400D01*
X-38700Y13950D01*
G01X-42000Y10425D02*
X-36500D01*
G01X-39158D02*
X-38700Y10050D01*
X-38425Y9675D01*
X-38333Y9075D01*
X-38425Y8625D01*
X-38792Y8100D01*
X-39342Y7875D01*
X-42000D01*
G01X-38333Y3450D02*
X-42000D01*
G01X-36867D02*
X-36775Y3600D01*
X-36592D01*
X-36500Y3450D01*
X-36592Y3300D01*
X-36775D01*
X-36867Y3450D01*
G01X-42000Y-975D02*
X-38333D01*
G01X-39250D02*
X-38792Y-1275D01*
X-38425Y-1725D01*
X-38333Y-2325D01*
X-38425Y-2850D01*
X-38792Y-3300D01*
X-39433Y-3525D01*
X-42000D01*
G01X-43375Y-6900D02*
X-43742Y-7425D01*
X-43833Y-8025D01*
X-43742Y-8550D01*
X-43283Y-9000D01*
X-42642Y-9300D01*
X-38333D01*
G01X-39067D02*
X-38700Y-9000D01*
X-38425Y-8550D01*
X-38333Y-8025D01*
X-38517Y-7425D01*
X-38883Y-7050D01*
X-39525Y-6750D01*
X-40167Y-6600D01*
X-40717Y-6675D01*
X-41358Y-6975D01*
X-41817Y-7425D01*
X-42000Y-8025D01*
X-41908Y-8475D01*
X-41542Y-9000D01*
X-41175Y-9300D01*
G01X-38000Y89500D02*
X-43500Y88450D01*
X-38000Y87250D01*
X-43500Y86050D01*
X-38000Y85000D01*
G01X-43500Y81550D02*
X-43408Y82150D01*
X-43042Y82675D01*
X-42492Y83125D01*
X-41850Y83425D01*
X-41117Y83575D01*
X-40383D01*
X-39650Y83425D01*
X-39008Y83125D01*
X-38458Y82675D01*
X-38092Y82150D01*
X-38000Y81550D01*
X-38092Y80950D01*
X-38458Y80425D01*
X-39008Y79975D01*
X-39650Y79675D01*
X-40383Y79525D01*
X-41117D01*
X-41850Y79675D01*
X-42492Y79975D01*
X-43042Y80425D01*
X-43408Y80950D01*
X-43500Y81550D01*
G01X-38000Y78100D02*
X-43500Y77050D01*
X-38000Y75850D01*
X-43500Y74650D01*
X-38000Y73600D01*
G01Y71650D02*
X-43500D01*
Y68650D01*
G01X9000Y92250D02*
X14500D01*
X13400Y93150D01*
G01X9000D02*
Y91350D01*
G01X14500Y86550D02*
X14317Y87150D01*
X13858Y87600D01*
X13308Y87900D01*
X12575Y88125D01*
X11750Y88200D01*
X10925Y88125D01*
X10192Y87900D01*
X9642Y87600D01*
X9183Y87150D01*
X9000Y86550D01*
X9183Y85950D01*
X9642Y85500D01*
X10192Y85200D01*
X10925Y84975D01*
X11750Y84900D01*
X12575Y84975D01*
X13308Y85200D01*
X13858Y85500D01*
X14317Y85950D01*
X14500Y86550D01*
G01X9000Y80850D02*
X14500D01*
X13400Y81750D01*
G01X9000D02*
Y79950D01*
G01X14500Y75150D02*
X14317Y75750D01*
X13858Y76200D01*
X13308Y76500D01*
X12575Y76725D01*
X11750Y76800D01*
X10925Y76725D01*
X10192Y76500D01*
X9642Y76200D01*
X9183Y75750D01*
X9000Y75150D01*
X9183Y74550D01*
X9642Y74100D01*
X10192Y73800D01*
X10925Y73575D01*
X11750Y73500D01*
X12575Y73575D01*
X13308Y73800D01*
X13858Y74100D01*
X14317Y74550D01*
X14500Y75150D01*
G01X10100Y71100D02*
X9458Y70650D01*
X9092Y70050D01*
X9000Y69375D01*
X9092Y68775D01*
X9550Y68175D01*
X10100Y67800D01*
X10650Y67725D01*
X11292Y67875D01*
X11750Y68400D01*
X11933Y68925D01*
Y69600D01*
G01Y68925D02*
X12208Y68475D01*
X12667Y68100D01*
X13217Y67950D01*
X13767Y68100D01*
X14225Y68475D01*
X14500Y69150D01*
X14408Y69825D01*
X14042Y70500D01*
G01X14500Y63750D02*
X14317Y64350D01*
X13858Y64800D01*
X13308Y65100D01*
X12575Y65325D01*
X11750Y65400D01*
X10925Y65325D01*
X10192Y65100D01*
X9642Y64800D01*
X9183Y64350D01*
X9000Y63750D01*
X9183Y63150D01*
X9642Y62700D01*
X10192Y62400D01*
X10925Y62175D01*
X11750Y62100D01*
X12575Y62175D01*
X13308Y62400D01*
X13858Y62700D01*
X14317Y63150D01*
X14500Y63750D01*
G01X9642Y59325D02*
X9183Y58800D01*
X9000Y58200D01*
X9183Y57600D01*
X9733Y57075D01*
X10558Y56700D01*
X11383Y56550D01*
X12392D01*
X13217Y56700D01*
X13950Y57075D01*
X14317Y57525D01*
X14500Y58050D01*
X14317Y58650D01*
X13950Y59100D01*
X13400Y59400D01*
X12667Y59550D01*
X12025Y59400D01*
X11383Y59025D01*
X11017Y58575D01*
X10925Y58050D01*
X11108Y57450D01*
X11567Y57000D01*
X12392Y56550D01*
G01X10833Y53325D02*
Y51375D01*
G01X9642Y47925D02*
X9183Y47400D01*
X9000Y46800D01*
X9183Y46200D01*
X9733Y45675D01*
X10558Y45300D01*
X11383Y45150D01*
X12392D01*
X13217Y45300D01*
X13950Y45675D01*
X14317Y46125D01*
X14500Y46650D01*
X14317Y47250D01*
X13950Y47700D01*
X13400Y48000D01*
X12667Y48150D01*
X12025Y48000D01*
X11383Y47625D01*
X11017Y47175D01*
X10925Y46650D01*
X11108Y46050D01*
X11567Y45600D01*
X12392Y45150D01*
G01X14500Y40950D02*
X14317Y41550D01*
X13858Y42000D01*
X13308Y42300D01*
X12575Y42525D01*
X11750Y42600D01*
X10925Y42525D01*
X10192Y42300D01*
X9642Y42000D01*
X9183Y41550D01*
X9000Y40950D01*
X9183Y40350D01*
X9642Y39900D01*
X10192Y39600D01*
X10925Y39375D01*
X11750Y39300D01*
X12575Y39375D01*
X13308Y39600D01*
X13858Y39900D01*
X14317Y40350D01*
X14500Y40950D01*
G01Y35250D02*
X14317Y35850D01*
X13858Y36300D01*
X13308Y36600D01*
X12575Y36825D01*
X11750Y36900D01*
X10925Y36825D01*
X10192Y36600D01*
X9642Y36300D01*
X9183Y35850D01*
X9000Y35250D01*
X9183Y34650D01*
X9642Y34200D01*
X10192Y33900D01*
X10925Y33675D01*
X11750Y33600D01*
X12575Y33675D01*
X13308Y33900D01*
X13858Y34200D01*
X14317Y34650D01*
X14500Y35250D01*
G01X10833Y30525D02*
Y28575D01*
G01X14500Y23850D02*
X14317Y24450D01*
X13858Y24900D01*
X13308Y25200D01*
X12575Y25425D01*
X11750Y25500D01*
X10925Y25425D01*
X10192Y25200D01*
X9642Y24900D01*
X9183Y24450D01*
X9000Y23850D01*
X9183Y23250D01*
X9642Y22800D01*
X10192Y22500D01*
X10925Y22275D01*
X11750Y22200D01*
X12575Y22275D01*
X13308Y22500D01*
X13858Y22800D01*
X14317Y23250D01*
X14500Y23850D01*
G01Y18150D02*
X14317Y18750D01*
X13858Y19200D01*
X13308Y19500D01*
X12575Y19725D01*
X11750Y19800D01*
X10925Y19725D01*
X10192Y19500D01*
X9642Y19200D01*
X9183Y18750D01*
X9000Y18150D01*
X9183Y17550D01*
X9642Y17100D01*
X10192Y16800D01*
X10925Y16575D01*
X11750Y16500D01*
X12575Y16575D01*
X13308Y16800D01*
X13858Y17100D01*
X14317Y17550D01*
X14500Y18150D01*
G01X9000Y12450D02*
X14500D01*
X13400Y13350D01*
G01X9000D02*
Y11550D01*
G01X13583Y8175D02*
X14133Y7725D01*
X14408Y7200D01*
X14500Y6600D01*
X14317Y5850D01*
X13858Y5325D01*
X13308Y5175D01*
X12758Y5250D01*
X12300Y5550D01*
X11383Y7050D01*
X10742Y7725D01*
X9825Y8175D01*
X9000Y8325D01*
Y5175D01*
G01X7167Y3300D02*
Y-1200D01*
G01X9000Y-3150D02*
X14500D01*
Y-5025D01*
X14225Y-5625D01*
X13858Y-6000D01*
X13125Y-6150D01*
X12392Y-6000D01*
X11933Y-5550D01*
X11658Y-5025D01*
Y-3150D01*
G01Y-5025D02*
X9000Y-6150D01*
G01X11475Y-9225D02*
Y-11625D01*
X12117Y-11400D01*
X12483Y-11025D01*
X12667Y-10500D01*
X12575Y-9975D01*
X12300Y-9525D01*
X11658Y-9225D01*
X11108Y-9075D01*
X10558D01*
X10008Y-9225D01*
X9458Y-9600D01*
X9092Y-10050D01*
X9000Y-10575D01*
X9183Y-11100D01*
X9733Y-11625D01*
G01X12667Y-14700D02*
X9000Y-16050D01*
X12667Y-17400D01*
G01X8817Y-21750D02*
X8908Y-21600D01*
X9092D01*
X9183Y-21750D01*
X9092Y-21900D01*
X8908D01*
X8817Y-21750D01*
G01X9000Y-25575D02*
X14500Y-27450D01*
X9000Y-29325D01*
G01X10925Y-28650D02*
Y-26250D01*
G54D13*
G01X-46984Y-90000D02*
X18016D01*
Y115000D01*
X-46984D01*
Y-90000D01*
M02*
