G04 ================== begin FILE IDENTIFICATION RECORD ==================*
G04 Layout Name:  1010309-900-0012_Rev-A.brd*
G04 Film Name:    1010309-900-0012_Rev-ASILKSCREEN_TOP*
G04 File Format:  Gerber RS274X*
G04 File Origin:  Cadence Allegro 17.2-061*
G04 Origin Date:  Mon Aug 31 14:47:59 2020*
G04 *
G04 Layer:  REF DES/SILKSCREEN_TOP*
G04 Layer:  PACKAGE GEOMETRY/SILKSCREEN_TOP*
G04 Layer:  BOARD GEOMETRY/SILKSCREEN_TOP*
G04 Layer:  BOARD GEOMETRY/DESIGN_OUTLINE*
G04 Layer:  BOARD GEOMETRY/CUTOUT*
G04 *
G04 Offset:    (0.000 0.000)*
G04 Mirror:    No*
G04 Mode:      Positive*
G04 Rotation:  0*
G04 FullContactRelief:  No*
G04 UndefLineWidth:     1.000*
G04 ================== end FILE IDENTIFICATION RECORD ====================*
%FSLAX25Y25*MOIN*%
%IR0*IPPOS*OFA0.00000B0.00000*MIA0B0*SFA1.00000B1.00000*%
%ADD10C,.004*%
%ADD11C,.00472*%
%ADD12C,.004724*%
%ADD13C,.00787*%
%ADD14C,.004882*%
%ADD15C,.009843*%
%ADD16C,.009839*%
%ADD17C,.001*%
G75*
%LPD*%
G75*
G54D10*
G01X-34711Y-44267D02*
X-34861Y-44177D01*
X-35036Y-44117D01*
X-35236D01*
X-35461Y-44207D01*
X-35636Y-44357D01*
X-35761Y-44537D01*
X-35861Y-44837D01*
X-35886Y-45107D01*
X-35836Y-45377D01*
X-35761Y-45557D01*
X-35611Y-45737D01*
X-35436Y-45857D01*
X-35261Y-45917D01*
X-35086D01*
X-34911Y-45857D01*
X-34761Y-45767D01*
X-34636Y-45647D01*
G01X-33736Y-45167D02*
X-33561Y-44957D01*
X-33411Y-44837D01*
X-33211Y-44777D01*
X-33036Y-44837D01*
X-32911Y-44957D01*
X-32811Y-45137D01*
X-32786Y-45347D01*
X-32811Y-45527D01*
X-32911Y-45707D01*
X-33061Y-45857D01*
X-33236Y-45917D01*
X-33436Y-45857D01*
X-33611Y-45677D01*
X-33711Y-45407D01*
X-33736Y-45107D01*
X-33686Y-44717D01*
X-33611Y-44507D01*
X-33486Y-44297D01*
X-33311Y-44147D01*
X-33136Y-44117D01*
X-32961Y-44177D01*
X-32836Y-44327D01*
G01X-41401Y-25391D02*
Y-26681D01*
X-41301Y-26951D01*
X-41101Y-27131D01*
X-40851Y-27191D01*
X-40601Y-27131D01*
X-40401Y-26951D01*
X-40301Y-26681D01*
Y-25391D01*
G01X-38851Y-27191D02*
Y-25391D01*
X-39151Y-25751D01*
G01Y-27191D02*
X-38551D01*
G01X-35606Y-25098D02*
X-35481Y-25278D01*
X-35331Y-25398D01*
X-35156Y-25458D01*
X-34956Y-25398D01*
X-34806Y-25278D01*
X-34656Y-25098D01*
X-34606Y-24858D01*
Y-23658D01*
G01X-33106Y-25458D02*
Y-23658D01*
X-33406Y-24018D01*
G01Y-25458D02*
X-32806D01*
G01X-43047Y-2500D02*
X-44847D01*
Y-1875D01*
X-44757Y-1675D01*
X-44637Y-1550D01*
X-44397Y-1500D01*
X-44157Y-1550D01*
X-44007Y-1700D01*
X-43917Y-1875D01*
Y-2500D01*
G01Y-1875D02*
X-43047Y-1500D01*
G01X-43407Y-550D02*
X-43197Y-400D01*
X-43077Y-200D01*
X-43047Y25D01*
X-43077Y225D01*
X-43227Y425D01*
X-43407Y550D01*
X-43587Y575D01*
X-43797Y525D01*
X-43947Y350D01*
X-44007Y175D01*
Y-50D01*
G01Y175D02*
X-44097Y325D01*
X-44247Y450D01*
X-44427Y500D01*
X-44607Y450D01*
X-44757Y325D01*
X-44847Y100D01*
X-44817Y-125D01*
X-44697Y-350D01*
G01X-28871Y-2500D02*
X-30671D01*
Y-1875D01*
X-30581Y-1675D01*
X-30461Y-1550D01*
X-30221Y-1500D01*
X-29981Y-1550D01*
X-29831Y-1700D01*
X-29741Y-1875D01*
Y-2500D01*
G01Y-1875D02*
X-28871Y-1500D01*
G01Y300D02*
X-30671D01*
X-29381Y-625D01*
Y625D01*
G01X-32415Y-2500D02*
X-34215D01*
Y-1875D01*
X-34125Y-1675D01*
X-34005Y-1550D01*
X-33765Y-1500D01*
X-33525Y-1550D01*
X-33375Y-1700D01*
X-33285Y-1875D01*
Y-2500D01*
G01Y-1875D02*
X-32415Y-1500D01*
G01X-33165Y-475D02*
X-33375Y-300D01*
X-33495Y-150D01*
X-33555Y50D01*
X-33495Y225D01*
X-33375Y350D01*
X-33195Y450D01*
X-32985Y475D01*
X-32805Y450D01*
X-32625Y350D01*
X-32475Y200D01*
X-32415Y25D01*
X-32475Y-175D01*
X-32655Y-350D01*
X-32925Y-450D01*
X-33225Y-475D01*
X-33615Y-425D01*
X-33825Y-350D01*
X-34035Y-225D01*
X-34185Y-50D01*
X-34215Y125D01*
X-34155Y300D01*
X-34005Y425D01*
G01X-39503Y-2500D02*
X-41303D01*
Y-1875D01*
X-41213Y-1675D01*
X-41093Y-1550D01*
X-40853Y-1500D01*
X-40613Y-1550D01*
X-40463Y-1700D01*
X-40373Y-1875D01*
Y-2500D01*
G01Y-1875D02*
X-39503Y-1500D01*
G01X-41003Y-475D02*
X-41183Y-325D01*
X-41273Y-150D01*
X-41303Y50D01*
X-41243Y300D01*
X-41093Y475D01*
X-40913Y525D01*
X-40733Y500D01*
X-40583Y400D01*
X-40283Y-100D01*
X-40073Y-325D01*
X-39773Y-475D01*
X-39503Y-525D01*
Y525D01*
G01X-35960Y-2500D02*
X-37760D01*
Y-1875D01*
X-37670Y-1675D01*
X-37550Y-1550D01*
X-37310Y-1500D01*
X-37070Y-1550D01*
X-36920Y-1700D01*
X-36830Y-1875D01*
Y-2500D01*
G01Y-1875D02*
X-35960Y-1500D01*
G01Y0D02*
X-37760D01*
X-37400Y-300D01*
G01X-35960D02*
Y300D01*
G01X-45100Y17735D02*
X-45190Y17585D01*
X-45250Y17410D01*
Y17210D01*
X-45160Y16985D01*
X-45010Y16810D01*
X-44830Y16685D01*
X-44530Y16585D01*
X-44260Y16560D01*
X-43990Y16610D01*
X-43810Y16685D01*
X-43630Y16835D01*
X-43510Y17010D01*
X-43450Y17185D01*
Y17360D01*
X-43510Y17535D01*
X-43600Y17685D01*
X-43720Y17810D01*
G01X-43810Y18635D02*
X-43600Y18785D01*
X-43480Y18985D01*
X-43450Y19210D01*
X-43480Y19410D01*
X-43630Y19610D01*
X-43810Y19735D01*
X-43990Y19760D01*
X-44200Y19710D01*
X-44350Y19535D01*
X-44410Y19360D01*
Y19135D01*
G01Y19360D02*
X-44500Y19510D01*
X-44650Y19635D01*
X-44830Y19685D01*
X-45010Y19635D01*
X-45160Y19510D01*
X-45250Y19285D01*
X-45220Y19060D01*
X-45100Y18835D01*
G01X-45600Y25735D02*
X-45690Y25585D01*
X-45750Y25410D01*
Y25210D01*
X-45660Y24985D01*
X-45510Y24810D01*
X-45330Y24685D01*
X-45030Y24585D01*
X-44760Y24560D01*
X-44490Y24610D01*
X-44310Y24685D01*
X-44130Y24835D01*
X-44010Y25010D01*
X-43950Y25185D01*
Y25360D01*
X-44010Y25535D01*
X-44100Y25685D01*
X-44220Y25810D01*
G01X-45450Y26710D02*
X-45630Y26860D01*
X-45720Y27035D01*
X-45750Y27235D01*
X-45690Y27485D01*
X-45540Y27660D01*
X-45360Y27710D01*
X-45180Y27685D01*
X-45030Y27585D01*
X-44730Y27085D01*
X-44520Y26860D01*
X-44220Y26710D01*
X-43950Y26660D01*
Y27710D01*
G01X-41994Y49754D02*
X-43794D01*
Y50379D01*
X-43704Y50579D01*
X-43584Y50704D01*
X-43344Y50754D01*
X-43104Y50704D01*
X-42954Y50554D01*
X-42864Y50379D01*
Y49754D01*
G01Y50379D02*
X-41994Y50754D01*
G01X-43494Y51779D02*
X-43674Y51929D01*
X-43764Y52104D01*
X-43794Y52304D01*
X-43734Y52554D01*
X-43584Y52729D01*
X-43404Y52779D01*
X-43224Y52754D01*
X-43074Y52654D01*
X-42774Y52154D01*
X-42564Y51929D01*
X-42263Y51779D01*
X-41994Y51729D01*
Y52779D01*
G01X-42354Y53704D02*
X-42144Y53854D01*
X-42024Y54054D01*
X-41994Y54279D01*
X-42024Y54479D01*
X-42174Y54679D01*
X-42354Y54804D01*
X-42533Y54829D01*
X-42743Y54779D01*
X-42894Y54604D01*
X-42954Y54429D01*
Y54204D01*
G01Y54429D02*
X-43044Y54579D01*
X-43194Y54704D01*
X-43374Y54754D01*
X-43554Y54704D01*
X-43704Y54579D01*
X-43794Y54354D01*
X-43764Y54129D01*
X-43644Y53904D01*
G01X-38689Y58246D02*
X-40489D01*
Y58871D01*
X-40399Y59071D01*
X-40279Y59196D01*
X-40039Y59246D01*
X-39799Y59196D01*
X-39649Y59046D01*
X-39559Y58871D01*
Y58246D01*
G01Y58871D02*
X-38689Y59246D01*
G01X-40189Y60271D02*
X-40369Y60421D01*
X-40459Y60596D01*
X-40489Y60796D01*
X-40429Y61046D01*
X-40279Y61221D01*
X-40099Y61271D01*
X-39919Y61246D01*
X-39769Y61146D01*
X-39469Y60646D01*
X-39259Y60421D01*
X-38959Y60271D01*
X-38689Y60221D01*
Y61271D01*
G01X-40489Y62746D02*
X-40429Y62546D01*
X-40279Y62396D01*
X-40099Y62296D01*
X-39859Y62221D01*
X-39589Y62196D01*
X-39319Y62221D01*
X-39079Y62296D01*
X-38899Y62396D01*
X-38749Y62546D01*
X-38689Y62746D01*
X-38749Y62946D01*
X-38899Y63096D01*
X-39079Y63196D01*
X-39319Y63271D01*
X-39589Y63296D01*
X-39859Y63271D01*
X-40099Y63196D01*
X-40279Y63096D01*
X-40429Y62946D01*
X-40489Y62746D01*
G01X-36245Y59998D02*
Y58198D01*
G01X-36820Y59998D02*
X-35670D01*
G01X-34745Y58198D02*
Y59998D01*
X-34145D01*
X-33945Y59908D01*
X-33795Y59698D01*
X-33745Y59458D01*
X-33795Y59218D01*
X-33920Y59038D01*
X-34145Y58948D01*
X-34745D01*
G01X-32720Y59698D02*
X-32570Y59878D01*
X-32395Y59968D01*
X-32195Y59998D01*
X-31945Y59938D01*
X-31770Y59788D01*
X-31720Y59608D01*
X-31745Y59428D01*
X-31845Y59278D01*
X-32345Y58978D01*
X-32570Y58768D01*
X-32720Y58468D01*
X-32770Y58198D01*
X-31720D01*
G01X-30245D02*
X-30070Y58228D01*
X-29870Y58318D01*
X-29745Y58468D01*
X-29695Y58678D01*
X-29745Y58888D01*
X-29895Y59068D01*
X-30120Y59158D01*
X-30370D01*
X-30520Y59218D01*
X-30645Y59368D01*
X-30695Y59578D01*
X-30620Y59788D01*
X-30445Y59938D01*
X-30245Y59998D01*
X-30045Y59938D01*
X-29870Y59788D01*
X-29795Y59578D01*
X-29845Y59368D01*
X-29970Y59218D01*
X-30120Y59158D01*
X-30370D01*
X-30595Y59068D01*
X-30745Y58888D01*
X-30795Y58678D01*
X-30745Y58468D01*
X-30620Y58318D01*
X-30420Y58228D01*
X-30245Y58198D01*
G01X-36245Y62872D02*
Y61072D01*
G01X-36820Y62872D02*
X-35670D01*
G01X-34745Y61072D02*
Y62872D01*
X-34145D01*
X-33945Y62782D01*
X-33795Y62572D01*
X-33745Y62332D01*
X-33795Y62092D01*
X-33920Y61912D01*
X-34145Y61822D01*
X-34745D01*
G01X-32720Y62572D02*
X-32570Y62752D01*
X-32395Y62842D01*
X-32195Y62872D01*
X-31945Y62812D01*
X-31770Y62662D01*
X-31720Y62482D01*
X-31745Y62302D01*
X-31845Y62152D01*
X-32345Y61852D01*
X-32570Y61642D01*
X-32720Y61342D01*
X-32770Y61072D01*
X-31720D01*
G01X-30670Y61282D02*
X-30495Y61132D01*
X-30295Y61072D01*
X-30095Y61132D01*
X-29920Y61312D01*
X-29795Y61582D01*
X-29745Y61852D01*
Y62182D01*
X-29795Y62452D01*
X-29920Y62692D01*
X-30070Y62812D01*
X-30245Y62872D01*
X-30445Y62812D01*
X-30595Y62692D01*
X-30695Y62512D01*
X-30745Y62272D01*
X-30695Y62062D01*
X-30570Y61852D01*
X-30420Y61732D01*
X-30245Y61702D01*
X-30045Y61762D01*
X-29895Y61912D01*
X-29745Y62182D01*
G01X-34604Y90246D02*
X-34754Y90336D01*
X-34929Y90396D01*
X-35129D01*
X-35354Y90307D01*
X-35529Y90156D01*
X-35654Y89976D01*
X-35754Y89676D01*
X-35779Y89407D01*
X-35729Y89137D01*
X-35654Y88956D01*
X-35504Y88776D01*
X-35329Y88656D01*
X-35154Y88596D01*
X-34979D01*
X-34804Y88656D01*
X-34654Y88746D01*
X-34529Y88866D01*
G01X-33704Y88956D02*
X-33554Y88746D01*
X-33354Y88626D01*
X-33129Y88596D01*
X-32929Y88626D01*
X-32729Y88776D01*
X-32604Y88956D01*
X-32579Y89137D01*
X-32629Y89346D01*
X-32804Y89496D01*
X-32979Y89556D01*
X-33204D01*
G01X-32979D02*
X-32829Y89646D01*
X-32704Y89796D01*
X-32654Y89976D01*
X-32704Y90156D01*
X-32829Y90307D01*
X-33054Y90396D01*
X-33279Y90366D01*
X-33504Y90246D01*
G01X-31704Y88866D02*
X-31554Y88716D01*
X-31379Y88626D01*
X-31154Y88596D01*
X-30929Y88656D01*
X-30754Y88776D01*
X-30629Y88986D01*
X-30604Y89226D01*
X-30654Y89466D01*
X-30779Y89616D01*
X-30954Y89737D01*
X-31129Y89766D01*
X-31304Y89737D01*
X-31529Y89616D01*
X-31454Y90396D01*
X-30779D01*
G01X-23652Y-60100D02*
Y-61390D01*
X-23552Y-61660D01*
X-23352Y-61840D01*
X-23102Y-61900D01*
X-22852Y-61840D01*
X-22652Y-61660D01*
X-22552Y-61390D01*
Y-60100D01*
G01X-21577Y-60400D02*
X-21427Y-60220D01*
X-21252Y-60130D01*
X-21052Y-60100D01*
X-20802Y-60160D01*
X-20627Y-60310D01*
X-20577Y-60490D01*
X-20602Y-60670D01*
X-20702Y-60820D01*
X-21202Y-61120D01*
X-21427Y-61330D01*
X-21577Y-61630D01*
X-21627Y-61900D01*
X-20577D01*
G01X-15148Y-54100D02*
X-15298Y-54010D01*
X-15473Y-53950D01*
X-15673D01*
X-15898Y-54040D01*
X-16073Y-54190D01*
X-16198Y-54370D01*
X-16298Y-54670D01*
X-16323Y-54940D01*
X-16273Y-55210D01*
X-16198Y-55390D01*
X-16048Y-55570D01*
X-15873Y-55690D01*
X-15698Y-55750D01*
X-15523D01*
X-15348Y-55690D01*
X-15198Y-55600D01*
X-15073Y-55480D01*
G01X-13698Y-55750D02*
Y-53950D01*
X-13998Y-54310D01*
G01Y-55750D02*
X-13398D01*
G01X-12123Y-55540D02*
X-11948Y-55690D01*
X-11748Y-55750D01*
X-11548Y-55690D01*
X-11373Y-55510D01*
X-11248Y-55240D01*
X-11198Y-54970D01*
Y-54640D01*
X-11248Y-54370D01*
X-11373Y-54130D01*
X-11523Y-54010D01*
X-11698Y-53950D01*
X-11898Y-54010D01*
X-12048Y-54130D01*
X-12148Y-54310D01*
X-12198Y-54550D01*
X-12148Y-54760D01*
X-12023Y-54970D01*
X-11873Y-55090D01*
X-11698Y-55120D01*
X-11498Y-55060D01*
X-11348Y-54910D01*
X-11198Y-54640D01*
G01X-24544Y-16859D02*
X-24634Y-17009D01*
X-24694Y-17184D01*
Y-17384D01*
X-24604Y-17609D01*
X-24454Y-17784D01*
X-24274Y-17909D01*
X-23974Y-18009D01*
X-23704Y-18034D01*
X-23434Y-17984D01*
X-23254Y-17909D01*
X-23074Y-17759D01*
X-22954Y-17584D01*
X-22894Y-17409D01*
Y-17234D01*
X-22954Y-17059D01*
X-23044Y-16909D01*
X-23164Y-16784D01*
G01X-22894Y-15409D02*
X-24694D01*
X-24334Y-15709D01*
G01X-22894D02*
Y-15109D01*
G01X-23164Y-13959D02*
X-23014Y-13809D01*
X-22924Y-13634D01*
X-22894Y-13409D01*
X-22954Y-13184D01*
X-23074Y-13009D01*
X-23284Y-12884D01*
X-23524Y-12859D01*
X-23764Y-12909D01*
X-23914Y-13034D01*
X-24034Y-13209D01*
X-24064Y-13384D01*
X-24034Y-13559D01*
X-23914Y-13784D01*
X-24694Y-13709D01*
Y-13034D01*
G01X-17141Y-15509D02*
Y-16799D01*
X-17041Y-17069D01*
X-16841Y-17249D01*
X-16591Y-17309D01*
X-16341Y-17249D01*
X-16141Y-17069D01*
X-16041Y-16799D01*
Y-15509D01*
G01X-15141Y-17039D02*
X-14991Y-17189D01*
X-14816Y-17279D01*
X-14591Y-17309D01*
X-14366Y-17249D01*
X-14191Y-17129D01*
X-14066Y-16919D01*
X-14041Y-16679D01*
X-14091Y-16439D01*
X-14216Y-16289D01*
X-14391Y-16169D01*
X-14566Y-16139D01*
X-14741Y-16169D01*
X-14966Y-16289D01*
X-14891Y-15509D01*
X-14216D01*
G01X-25341Y-2502D02*
X-27141D01*
Y-1877D01*
X-27051Y-1677D01*
X-26931Y-1552D01*
X-26691Y-1502D01*
X-26451Y-1552D01*
X-26301Y-1702D01*
X-26211Y-1877D01*
Y-2502D01*
G01Y-1877D02*
X-25341Y-1502D01*
G01X-25611Y-552D02*
X-25461Y-402D01*
X-25371Y-227D01*
X-25341Y-2D01*
X-25401Y223D01*
X-25521Y398D01*
X-25731Y523D01*
X-25971Y548D01*
X-26211Y498D01*
X-26361Y373D01*
X-26481Y198D01*
X-26511Y23D01*
X-26481Y-152D01*
X-26361Y-377D01*
X-27141Y-302D01*
Y373D01*
G01X-20828Y-2500D02*
X-22628D01*
Y-1875D01*
X-22538Y-1675D01*
X-22418Y-1550D01*
X-22178Y-1500D01*
X-21938Y-1550D01*
X-21788Y-1700D01*
X-21698Y-1875D01*
Y-2500D01*
G01Y-1875D02*
X-20828Y-1500D01*
G01Y-50D02*
X-21218Y0D01*
X-21548Y75D01*
X-21848Y175D01*
X-22178Y300D01*
X-22628Y500D01*
Y-500D01*
G01X-17284Y-2500D02*
X-19084D01*
Y-1875D01*
X-18994Y-1675D01*
X-18874Y-1550D01*
X-18634Y-1500D01*
X-18394Y-1550D01*
X-18244Y-1700D01*
X-18154Y-1875D01*
Y-2500D01*
G01Y-1875D02*
X-17284Y-1500D01*
G01Y0D02*
X-17314Y175D01*
X-17404Y375D01*
X-17554Y500D01*
X-17764Y550D01*
X-17974Y500D01*
X-18154Y350D01*
X-18244Y125D01*
Y-125D01*
X-18304Y-275D01*
X-18454Y-400D01*
X-18664Y-450D01*
X-18874Y-375D01*
X-19024Y-200D01*
X-19084Y0D01*
X-19024Y200D01*
X-18874Y375D01*
X-18664Y450D01*
X-18454Y400D01*
X-18304Y275D01*
X-18244Y125D01*
Y-125D01*
X-18154Y-350D01*
X-17974Y-500D01*
X-17764Y-550D01*
X-17554Y-500D01*
X-17404Y-375D01*
X-17314Y-175D01*
X-17284Y0D01*
G01X-13740Y-2500D02*
X-15540D01*
Y-1875D01*
X-15450Y-1675D01*
X-15330Y-1550D01*
X-15090Y-1500D01*
X-14850Y-1550D01*
X-14700Y-1700D01*
X-14610Y-1875D01*
Y-2500D01*
G01Y-1875D02*
X-13740Y-1500D01*
G01X-13950Y-425D02*
X-13800Y-250D01*
X-13740Y-50D01*
X-13800Y150D01*
X-13980Y325D01*
X-14250Y450D01*
X-14520Y500D01*
X-14850D01*
X-15120Y450D01*
X-15360Y325D01*
X-15480Y175D01*
X-15540Y0D01*
X-15480Y-200D01*
X-15360Y-350D01*
X-15180Y-450D01*
X-14940Y-500D01*
X-14730Y-450D01*
X-14520Y-325D01*
X-14400Y-175D01*
X-14370Y0D01*
X-14430Y200D01*
X-14580Y350D01*
X-14850Y500D01*
G01X-24956Y13543D02*
Y12252D01*
X-24856Y11982D01*
X-24656Y11802D01*
X-24406Y11742D01*
X-24156Y11802D01*
X-23956Y11982D01*
X-23856Y12252D01*
Y13543D01*
G01X-22956Y12102D02*
X-22806Y11892D01*
X-22606Y11772D01*
X-22380Y11742D01*
X-22180Y11772D01*
X-21980Y11922D01*
X-21856Y12102D01*
X-21830Y12282D01*
X-21880Y12492D01*
X-22056Y12643D01*
X-22230Y12702D01*
X-22456D01*
G01X-22230D02*
X-22080Y12793D01*
X-21956Y12943D01*
X-21906Y13122D01*
X-21956Y13302D01*
X-22080Y13452D01*
X-22306Y13543D01*
X-22530Y13512D01*
X-22756Y13393D01*
G01X-18097Y23407D02*
X-18247Y23497D01*
X-18422Y23557D01*
X-18622D01*
X-18847Y23467D01*
X-19022Y23317D01*
X-19147Y23137D01*
X-19247Y22837D01*
X-19272Y22567D01*
X-19222Y22297D01*
X-19147Y22117D01*
X-18997Y21937D01*
X-18822Y21817D01*
X-18647Y21757D01*
X-18472D01*
X-18297Y21817D01*
X-18147Y21907D01*
X-18022Y22027D01*
G01X-16647Y21757D02*
Y23557D01*
X-16947Y23197D01*
G01Y21757D02*
X-16347D01*
G01X-14647Y23557D02*
X-14847Y23497D01*
X-14997Y23347D01*
X-15097Y23167D01*
X-15172Y22927D01*
X-15197Y22657D01*
X-15172Y22387D01*
X-15097Y22147D01*
X-14997Y21967D01*
X-14847Y21817D01*
X-14647Y21757D01*
X-14447Y21817D01*
X-14297Y21967D01*
X-14197Y22147D01*
X-14122Y22387D01*
X-14097Y22657D01*
X-14122Y22927D01*
X-14197Y23167D01*
X-14297Y23347D01*
X-14447Y23497D01*
X-14647Y23557D01*
G01X-24213Y50873D02*
Y52673D01*
X-23713D01*
X-23513Y52583D01*
X-23363Y52463D01*
X-23238Y52283D01*
X-23138Y52073D01*
X-23113Y51773D01*
X-23138Y51473D01*
X-23238Y51263D01*
X-23363Y51083D01*
X-23513Y50963D01*
X-23713Y50873D01*
X-24213D01*
G01X-22138Y52373D02*
X-21988Y52553D01*
X-21813Y52643D01*
X-21613Y52673D01*
X-21363Y52613D01*
X-21188Y52463D01*
X-21138Y52283D01*
X-21163Y52103D01*
X-21263Y51953D01*
X-21763Y51653D01*
X-21988Y51443D01*
X-22138Y51143D01*
X-22188Y50873D01*
X-21138D01*
G01X-17770Y44203D02*
Y42913D01*
X-17670Y42643D01*
X-17470Y42463D01*
X-17220Y42403D01*
X-16970Y42463D01*
X-16770Y42643D01*
X-16670Y42913D01*
Y44203D01*
G01X-15695Y43153D02*
X-15520Y43363D01*
X-15370Y43483D01*
X-15170Y43543D01*
X-14995Y43483D01*
X-14870Y43363D01*
X-14770Y43183D01*
X-14745Y42973D01*
X-14770Y42793D01*
X-14870Y42613D01*
X-15020Y42463D01*
X-15195Y42403D01*
X-15395Y42463D01*
X-15570Y42643D01*
X-15670Y42913D01*
X-15695Y43213D01*
X-15645Y43603D01*
X-15570Y43813D01*
X-15445Y44023D01*
X-15270Y44173D01*
X-15095Y44203D01*
X-14920Y44143D01*
X-14795Y43993D01*
G01X-26141Y60916D02*
Y62716D01*
X-25516D01*
X-25316Y62626D01*
X-25191Y62506D01*
X-25141Y62266D01*
X-25191Y62026D01*
X-25341Y61876D01*
X-25516Y61786D01*
X-26141D01*
G01X-25516D02*
X-25141Y60916D01*
G01X-24116Y62416D02*
X-23966Y62596D01*
X-23791Y62686D01*
X-23591Y62716D01*
X-23341Y62656D01*
X-23166Y62506D01*
X-23116Y62326D01*
X-23141Y62146D01*
X-23241Y61996D01*
X-23741Y61696D01*
X-23966Y61486D01*
X-24116Y61186D01*
X-24166Y60916D01*
X-23116D01*
G01X-22116Y61666D02*
X-21941Y61876D01*
X-21791Y61996D01*
X-21591Y62056D01*
X-21416Y61996D01*
X-21291Y61876D01*
X-21191Y61696D01*
X-21166Y61486D01*
X-21191Y61306D01*
X-21291Y61126D01*
X-21441Y60976D01*
X-21616Y60916D01*
X-21816Y60976D01*
X-21991Y61156D01*
X-22091Y61426D01*
X-22116Y61726D01*
X-22066Y62116D01*
X-21991Y62326D01*
X-21866Y62536D01*
X-21691Y62686D01*
X-21516Y62716D01*
X-21341Y62656D01*
X-21216Y62506D01*
G01X-30037Y73330D02*
X-28747D01*
X-28477Y73430D01*
X-28297Y73630D01*
X-28237Y73880D01*
X-28297Y74130D01*
X-28477Y74330D01*
X-28747Y74430D01*
X-30037D01*
G01X-28237Y75880D02*
X-28267Y76055D01*
X-28357Y76255D01*
X-28507Y76380D01*
X-28717Y76430D01*
X-28927Y76380D01*
X-29107Y76230D01*
X-29197Y76005D01*
Y75755D01*
X-29257Y75605D01*
X-29407Y75480D01*
X-29617Y75430D01*
X-29827Y75505D01*
X-29977Y75680D01*
X-30037Y75880D01*
X-29977Y76080D01*
X-29827Y76255D01*
X-29617Y76330D01*
X-29407Y76280D01*
X-29257Y76155D01*
X-29197Y76005D01*
Y75755D01*
X-29107Y75530D01*
X-28927Y75380D01*
X-28717Y75330D01*
X-28507Y75380D01*
X-28357Y75505D01*
X-28267Y75705D01*
X-28237Y75880D01*
G01X-24699Y73478D02*
X-24849Y73568D01*
X-25024Y73628D01*
X-25224D01*
X-25449Y73538D01*
X-25624Y73388D01*
X-25749Y73208D01*
X-25849Y72908D01*
X-25874Y72638D01*
X-25824Y72368D01*
X-25749Y72188D01*
X-25599Y72008D01*
X-25424Y71888D01*
X-25249Y71828D01*
X-25074D01*
X-24899Y71888D01*
X-24749Y71978D01*
X-24624Y72098D01*
G01X-22949Y71828D02*
Y73628D01*
X-23874Y72338D01*
X-22624D01*
G01X-21249Y73628D02*
X-21449Y73568D01*
X-21599Y73418D01*
X-21699Y73238D01*
X-21774Y72998D01*
X-21799Y72728D01*
X-21774Y72458D01*
X-21699Y72218D01*
X-21599Y72038D01*
X-21449Y71888D01*
X-21249Y71828D01*
X-21049Y71888D01*
X-20899Y72038D01*
X-20799Y72218D01*
X-20724Y72458D01*
X-20699Y72728D01*
X-20724Y72998D01*
X-20799Y73238D01*
X-20899Y73418D01*
X-21049Y73568D01*
X-21249Y73628D01*
G01X-26696Y74609D02*
Y76409D01*
X-26071D01*
X-25871Y76319D01*
X-25746Y76199D01*
X-25696Y75959D01*
X-25746Y75719D01*
X-25896Y75569D01*
X-26071Y75479D01*
X-26696D01*
G01X-26071D02*
X-25696Y74609D01*
G01X-24746Y74969D02*
X-24596Y74759D01*
X-24396Y74639D01*
X-24171Y74609D01*
X-23971Y74639D01*
X-23771Y74789D01*
X-23646Y74969D01*
X-23621Y75149D01*
X-23671Y75359D01*
X-23846Y75509D01*
X-24021Y75569D01*
X-24246D01*
G01X-24021D02*
X-23871Y75659D01*
X-23746Y75809D01*
X-23696Y75989D01*
X-23746Y76169D01*
X-23871Y76319D01*
X-24096Y76409D01*
X-24321Y76379D01*
X-24546Y76259D01*
G01X-22671Y76109D02*
X-22521Y76289D01*
X-22346Y76379D01*
X-22146Y76409D01*
X-21896Y76349D01*
X-21721Y76199D01*
X-21671Y76019D01*
X-21696Y75839D01*
X-21796Y75689D01*
X-22296Y75389D01*
X-22521Y75179D01*
X-22671Y74879D01*
X-22721Y74609D01*
X-21671D01*
G01X-11950Y-63600D02*
X-12100Y-63510D01*
X-12275Y-63450D01*
X-12475D01*
X-12700Y-63540D01*
X-12875Y-63690D01*
X-13000Y-63870D01*
X-13100Y-64170D01*
X-13125Y-64440D01*
X-13075Y-64710D01*
X-13000Y-64890D01*
X-12850Y-65070D01*
X-12675Y-65190D01*
X-12500Y-65250D01*
X-12325D01*
X-12150Y-65190D01*
X-12000Y-65100D01*
X-11875Y-64980D01*
G01X-10500Y-65250D02*
Y-63450D01*
X-10800Y-63810D01*
G01Y-65250D02*
X-10200D01*
G01X-8975Y-64500D02*
X-8800Y-64290D01*
X-8650Y-64170D01*
X-8450Y-64110D01*
X-8275Y-64170D01*
X-8150Y-64290D01*
X-8050Y-64470D01*
X-8025Y-64680D01*
X-8050Y-64860D01*
X-8150Y-65040D01*
X-8300Y-65190D01*
X-8475Y-65250D01*
X-8675Y-65190D01*
X-8850Y-65010D01*
X-8950Y-64740D01*
X-8975Y-64440D01*
X-8925Y-64050D01*
X-8850Y-63840D01*
X-8725Y-63630D01*
X-8550Y-63480D01*
X-8375Y-63450D01*
X-8200Y-63510D01*
X-8075Y-63660D01*
G01X-2500Y-60750D02*
Y-58950D01*
X-1875D01*
X-1675Y-59040D01*
X-1550Y-59160D01*
X-1500Y-59400D01*
X-1550Y-59640D01*
X-1700Y-59790D01*
X-1875Y-59880D01*
X-2500D01*
G01X-1875D02*
X-1500Y-60750D01*
G01X-550Y-60480D02*
X-400Y-60630D01*
X-225Y-60720D01*
X0Y-60750D01*
X225Y-60690D01*
X400Y-60570D01*
X525Y-60360D01*
X550Y-60120D01*
X500Y-59880D01*
X375Y-59730D01*
X200Y-59610D01*
X25Y-59580D01*
X-150Y-59610D01*
X-375Y-59730D01*
X-300Y-58950D01*
X375D01*
G01X2000Y-60750D02*
Y-58950D01*
X1700Y-59310D01*
G01Y-60750D02*
X2300D01*
G01X-2416Y-57716D02*
Y-56906D01*
X-2916Y-55916D01*
G01X-1916D02*
X-2416Y-56906D01*
G01X-891Y-56216D02*
X-741Y-56036D01*
X-566Y-55946D01*
X-366Y-55916D01*
X-116Y-55976D01*
X59Y-56126D01*
X109Y-56306D01*
X84Y-56486D01*
X-16Y-56636D01*
X-516Y-56936D01*
X-741Y-57146D01*
X-891Y-57446D01*
X-941Y-57716D01*
X109D01*
G01X-5204Y-69598D02*
X-4579Y-67798D01*
X-3954Y-69598D01*
G01X-4179Y-68968D02*
X-4979D01*
G01X-3154Y-69598D02*
Y-67798D01*
X-2004Y-69598D01*
Y-67798D01*
G01X-579D02*
Y-69598D01*
G01X-1154Y-67798D02*
X-4D01*
G01X1421Y-69598D02*
Y-67798D01*
X1121Y-68158D01*
G01Y-69598D02*
X1721D01*
G01X-9198Y-53950D02*
Y-55750D01*
X-8198D01*
G01X-6698D02*
Y-53950D01*
X-6998Y-54310D01*
G01Y-55750D02*
X-6398D01*
G01X445Y-24816D02*
Y-26617D01*
X1445D01*
G01X2470Y-25116D02*
X2620Y-24936D01*
X2795Y-24847D01*
X2995Y-24816D01*
X3245Y-24876D01*
X3420Y-25026D01*
X3470Y-25206D01*
X3445Y-25386D01*
X3345Y-25536D01*
X2845Y-25836D01*
X2620Y-26046D01*
X2470Y-26347D01*
X2420Y-26617D01*
X3470D01*
G01X-2153Y-4800D02*
X-3953D01*
Y-4175D01*
X-3863Y-3975D01*
X-3743Y-3850D01*
X-3503Y-3800D01*
X-3263Y-3850D01*
X-3113Y-4000D01*
X-3023Y-4175D01*
Y-4800D01*
G01Y-4175D02*
X-2153Y-3800D01*
G01Y-2300D02*
X-3953D01*
X-3593Y-2600D01*
G01X-2153D02*
Y-2000D01*
G01X-2513Y-850D02*
X-2303Y-700D01*
X-2183Y-500D01*
X-2153Y-275D01*
X-2183Y-75D01*
X-2333Y125D01*
X-2513Y250D01*
X-2693Y275D01*
X-2903Y225D01*
X-3053Y50D01*
X-3113Y-125D01*
Y-350D01*
G01Y-125D02*
X-3203Y25D01*
X-3353Y150D01*
X-3533Y200D01*
X-3713Y150D01*
X-3863Y25D01*
X-3953Y-200D01*
X-3923Y-425D01*
X-3803Y-650D01*
G01X1390Y-4800D02*
X-409D01*
Y-4175D01*
X-320Y-3975D01*
X-200Y-3850D01*
X40Y-3800D01*
X280Y-3850D01*
X430Y-4000D01*
X520Y-4175D01*
Y-4800D01*
G01Y-4175D02*
X1390Y-3800D01*
G01Y-2300D02*
X-409D01*
X-50Y-2600D01*
G01X1390D02*
Y-2000D01*
G01Y0D02*
X-409D01*
X880Y-925D01*
Y325D01*
G01X-10196Y-4800D02*
X-11996D01*
Y-4175D01*
X-11906Y-3975D01*
X-11786Y-3850D01*
X-11546Y-3800D01*
X-11306Y-3850D01*
X-11156Y-4000D01*
X-11066Y-4175D01*
Y-4800D01*
G01Y-4175D02*
X-10196Y-3800D01*
G01Y-2300D02*
X-11996D01*
X-11636Y-2600D01*
G01X-10196D02*
Y-2000D01*
G01X-11696Y-775D02*
X-11876Y-625D01*
X-11966Y-450D01*
X-11996Y-250D01*
X-11936Y0D01*
X-11786Y175D01*
X-11606Y225D01*
X-11426Y200D01*
X-11276Y100D01*
X-10976Y-400D01*
X-10766Y-625D01*
X-10466Y-775D01*
X-10196Y-825D01*
Y225D01*
G01X-6694Y-4502D02*
X-8494D01*
Y-3877D01*
X-8404Y-3677D01*
X-8284Y-3552D01*
X-8044Y-3502D01*
X-7804Y-3552D01*
X-7654Y-3702D01*
X-7564Y-3877D01*
Y-4502D01*
G01Y-3877D02*
X-6694Y-3502D01*
G01Y-2002D02*
X-8494D01*
X-8134Y-2302D01*
G01X-6694D02*
Y-1702D01*
G01Y-2D02*
X-8494D01*
X-8134Y-302D01*
G01X-6694D02*
Y298D01*
G01X-6309Y-8655D02*
Y-7845D01*
X-6809Y-6855D01*
G01X-5809D02*
X-6309Y-7845D01*
G01X-4309Y-8655D02*
Y-6855D01*
X-4609Y-7215D01*
G01Y-8655D02*
X-4009D01*
G01X-8774Y16514D02*
X-8864Y16364D01*
X-8924Y16189D01*
Y15989D01*
X-8834Y15764D01*
X-8684Y15589D01*
X-8504Y15464D01*
X-8204Y15364D01*
X-7934Y15339D01*
X-7664Y15389D01*
X-7484Y15464D01*
X-7304Y15614D01*
X-7184Y15789D01*
X-7124Y15964D01*
Y16139D01*
X-7184Y16314D01*
X-7274Y16464D01*
X-7394Y16589D01*
G01X-7124Y17964D02*
X-8924D01*
X-8564Y17664D01*
G01X-7124D02*
Y18264D01*
G01Y19964D02*
X-8924D01*
X-8564Y19664D01*
G01X-7124D02*
Y20264D01*
G01X-8774Y23014D02*
X-8864Y22864D01*
X-8924Y22689D01*
Y22489D01*
X-8834Y22264D01*
X-8684Y22089D01*
X-8504Y21964D01*
X-8204Y21864D01*
X-7934Y21839D01*
X-7664Y21889D01*
X-7484Y21964D01*
X-7304Y22114D01*
X-7184Y22289D01*
X-7124Y22464D01*
Y22639D01*
X-7184Y22814D01*
X-7274Y22964D01*
X-7394Y23089D01*
G01X-8624Y23989D02*
X-8804Y24139D01*
X-8894Y24314D01*
X-8924Y24514D01*
X-8864Y24764D01*
X-8714Y24939D01*
X-8534Y24989D01*
X-8354Y24964D01*
X-8204Y24864D01*
X-7904Y24364D01*
X-7694Y24139D01*
X-7394Y23989D01*
X-7124Y23939D01*
Y24989D01*
G01X-8924Y26464D02*
X-8864Y26264D01*
X-8714Y26114D01*
X-8534Y26014D01*
X-8294Y25939D01*
X-8024Y25914D01*
X-7754Y25939D01*
X-7514Y26014D01*
X-7334Y26114D01*
X-7184Y26264D01*
X-7124Y26464D01*
X-7184Y26664D01*
X-7334Y26814D01*
X-7514Y26914D01*
X-7754Y26989D01*
X-8024Y27014D01*
X-8294Y26989D01*
X-8534Y26914D01*
X-8714Y26814D01*
X-8864Y26664D01*
X-8924Y26464D01*
G01X-9766Y75034D02*
Y73744D01*
X-9666Y73474D01*
X-9466Y73294D01*
X-9216Y73234D01*
X-8966Y73294D01*
X-8766Y73474D01*
X-8666Y73744D01*
Y75034D01*
G01X-7641Y73444D02*
X-7466Y73294D01*
X-7266Y73234D01*
X-7066Y73294D01*
X-6891Y73474D01*
X-6766Y73744D01*
X-6716Y74014D01*
Y74344D01*
X-6766Y74614D01*
X-6891Y74854D01*
X-7041Y74974D01*
X-7216Y75034D01*
X-7416Y74974D01*
X-7566Y74854D01*
X-7666Y74674D01*
X-7716Y74434D01*
X-7666Y74224D01*
X-7541Y74014D01*
X-7391Y73895D01*
X-7216Y73864D01*
X-7016Y73924D01*
X-6866Y74074D01*
X-6716Y74344D01*
G01X-3768Y88843D02*
Y87553D01*
X-3668Y87283D01*
X-3468Y87103D01*
X-3218Y87043D01*
X-2968Y87103D01*
X-2768Y87283D01*
X-2668Y87553D01*
Y88843D01*
G01X-1268Y87043D02*
X-1218Y87433D01*
X-1143Y87763D01*
X-1043Y88063D01*
X-918Y88393D01*
X-718Y88843D01*
X-1718D01*
G01X-5862Y92671D02*
Y94471D01*
X-4912D01*
G01X-5262Y93601D02*
X-5862D01*
G01X-3387Y92671D02*
Y94471D01*
X-3687Y94111D01*
G01Y92671D02*
X-3087D01*
G01X5813Y-43179D02*
X5663Y-43089D01*
X5488Y-43029D01*
X5288D01*
X5063Y-43119D01*
X4888Y-43269D01*
X4763Y-43449D01*
X4663Y-43749D01*
X4638Y-44019D01*
X4688Y-44289D01*
X4763Y-44469D01*
X4913Y-44649D01*
X5088Y-44769D01*
X5263Y-44829D01*
X5438D01*
X5613Y-44769D01*
X5763Y-44679D01*
X5888Y-44559D01*
G01X7263Y-44829D02*
Y-43029D01*
X6963Y-43389D01*
G01Y-44829D02*
X7563D01*
G01X9563D02*
Y-43029D01*
X8638Y-44319D01*
X9888D01*
G01X8083Y-54210D02*
X7993Y-54360D01*
X7933Y-54535D01*
Y-54735D01*
X8023Y-54960D01*
X8173Y-55135D01*
X8353Y-55260D01*
X8653Y-55360D01*
X8923Y-55385D01*
X9193Y-55335D01*
X9373Y-55260D01*
X9553Y-55110D01*
X9673Y-54935D01*
X9733Y-54760D01*
Y-54585D01*
X9673Y-54410D01*
X9583Y-54260D01*
X9464Y-54135D01*
G01X8233Y-53235D02*
X8053Y-53085D01*
X7963Y-52910D01*
X7933Y-52710D01*
X7993Y-52460D01*
X8143Y-52285D01*
X8323Y-52235D01*
X8503Y-52260D01*
X8653Y-52360D01*
X8953Y-52860D01*
X9163Y-53085D01*
X9464Y-53235D01*
X9733Y-53285D01*
Y-52235D01*
G01Y-50460D02*
X7933D01*
X9223Y-51385D01*
Y-50135D01*
G01X8996Y-37866D02*
X8846Y-37776D01*
X8672Y-37716D01*
X8472D01*
X8247Y-37806D01*
X8072Y-37956D01*
X7947Y-38136D01*
X7847Y-38436D01*
X7822Y-38706D01*
X7872Y-38976D01*
X7947Y-39156D01*
X8097Y-39336D01*
X8272Y-39456D01*
X8446Y-39517D01*
X8622D01*
X8796Y-39456D01*
X8946Y-39367D01*
X9072Y-39247D01*
G01X9972Y-38016D02*
X10122Y-37836D01*
X10296Y-37746D01*
X10496Y-37716D01*
X10746Y-37776D01*
X10922Y-37926D01*
X10972Y-38106D01*
X10946Y-38286D01*
X10846Y-38436D01*
X10346Y-38736D01*
X10122Y-38946D01*
X9972Y-39247D01*
X9922Y-39517D01*
X10972D01*
G01X11972Y-38767D02*
X12146Y-38556D01*
X12296Y-38436D01*
X12496Y-38376D01*
X12672Y-38436D01*
X12796Y-38556D01*
X12896Y-38736D01*
X12922Y-38946D01*
X12896Y-39126D01*
X12796Y-39306D01*
X12646Y-39456D01*
X12472Y-39517D01*
X12272Y-39456D01*
X12096Y-39277D01*
X11996Y-39006D01*
X11972Y-38706D01*
X12022Y-38316D01*
X12096Y-38106D01*
X12222Y-37896D01*
X12396Y-37746D01*
X12572Y-37716D01*
X12746Y-37776D01*
X12872Y-37926D01*
G01X6241Y-12448D02*
X6091Y-12358D01*
X5916Y-12298D01*
X5716D01*
X5491Y-12388D01*
X5316Y-12538D01*
X5191Y-12718D01*
X5091Y-13018D01*
X5066Y-13288D01*
X5116Y-13558D01*
X5191Y-13738D01*
X5341Y-13918D01*
X5516Y-14038D01*
X5691Y-14098D01*
X5866D01*
X6041Y-14038D01*
X6191Y-13948D01*
X6316Y-13828D01*
G01X7216Y-12598D02*
X7366Y-12418D01*
X7541Y-12328D01*
X7741Y-12298D01*
X7991Y-12358D01*
X8166Y-12508D01*
X8216Y-12688D01*
X8191Y-12868D01*
X8091Y-13018D01*
X7591Y-13318D01*
X7366Y-13528D01*
X7216Y-13828D01*
X7166Y-14098D01*
X8216D01*
G01X9641D02*
X9691Y-13708D01*
X9766Y-13378D01*
X9866Y-13078D01*
X9991Y-12748D01*
X10191Y-12298D01*
X9191D01*
G01X6241Y-9448D02*
X6091Y-9358D01*
X5916Y-9298D01*
X5716D01*
X5491Y-9388D01*
X5316Y-9538D01*
X5191Y-9718D01*
X5091Y-10018D01*
X5066Y-10288D01*
X5116Y-10558D01*
X5191Y-10738D01*
X5341Y-10918D01*
X5516Y-11038D01*
X5691Y-11098D01*
X5866D01*
X6041Y-11038D01*
X6191Y-10948D01*
X6316Y-10828D01*
G01X7216Y-9598D02*
X7366Y-9418D01*
X7541Y-9328D01*
X7741Y-9298D01*
X7991Y-9358D01*
X8166Y-9508D01*
X8216Y-9688D01*
X8191Y-9868D01*
X8091Y-10018D01*
X7591Y-10318D01*
X7366Y-10528D01*
X7216Y-10828D01*
X7166Y-11098D01*
X8216D01*
G01X9691D02*
X9866Y-11068D01*
X10066Y-10978D01*
X10191Y-10828D01*
X10241Y-10618D01*
X10191Y-10408D01*
X10041Y-10228D01*
X9816Y-10138D01*
X9566D01*
X9416Y-10078D01*
X9291Y-9928D01*
X9241Y-9718D01*
X9316Y-9508D01*
X9491Y-9358D01*
X9691Y-9298D01*
X9891Y-9358D01*
X10066Y-9508D01*
X10141Y-9718D01*
X10091Y-9928D01*
X9966Y-10078D01*
X9816Y-10138D01*
X9566D01*
X9341Y-10228D01*
X9191Y-10408D01*
X9141Y-10618D01*
X9191Y-10828D01*
X9316Y-10978D01*
X9516Y-11068D01*
X9691Y-11098D01*
G01X14024Y-24624D02*
X15824D01*
Y-23624D01*
G01X15464Y-22674D02*
X15674Y-22524D01*
X15794Y-22324D01*
X15824Y-22098D01*
X15794Y-21898D01*
X15644Y-21698D01*
X15464Y-21574D01*
X15284Y-21548D01*
X15075Y-21598D01*
X14924Y-21774D01*
X14864Y-21948D01*
Y-22174D01*
G01Y-21948D02*
X14774Y-21798D01*
X14624Y-21674D01*
X14444Y-21624D01*
X14264Y-21674D01*
X14114Y-21798D01*
X14024Y-22024D01*
X14054Y-22248D01*
X14174Y-22474D01*
G01X6030Y-15401D02*
X5880Y-15311D01*
X5705Y-15251D01*
X5504D01*
X5280Y-15341D01*
X5104Y-15491D01*
X4980Y-15671D01*
X4880Y-15971D01*
X4855Y-16241D01*
X4905Y-16511D01*
X4980Y-16691D01*
X5130Y-16871D01*
X5304Y-16991D01*
X5480Y-17051D01*
X5655D01*
X5830Y-16991D01*
X5980Y-16901D01*
X6104Y-16781D01*
G01X7480Y-17051D02*
Y-15251D01*
X7180Y-15611D01*
G01Y-17051D02*
X7780D01*
G01X9004Y-15551D02*
X9154Y-15371D01*
X9330Y-15281D01*
X9530Y-15251D01*
X9780Y-15311D01*
X9954Y-15461D01*
X10004Y-15641D01*
X9980Y-15821D01*
X9880Y-15971D01*
X9380Y-16271D01*
X9154Y-16481D01*
X9004Y-16781D01*
X8954Y-17051D01*
X10004D01*
G01X12022Y-4800D02*
X10222D01*
Y-4175D01*
X10312Y-3975D01*
X10432Y-3850D01*
X10672Y-3800D01*
X10912Y-3850D01*
X11062Y-4000D01*
X11152Y-4175D01*
Y-4800D01*
G01Y-4175D02*
X12022Y-3800D01*
G01Y-2300D02*
X10222D01*
X10582Y-2600D01*
G01X12022D02*
Y-2000D01*
G01X11272Y-775D02*
X11062Y-600D01*
X10942Y-450D01*
X10882Y-250D01*
X10942Y-75D01*
X11062Y50D01*
X11242Y150D01*
X11452Y175D01*
X11632Y150D01*
X11812Y50D01*
X11962Y-100D01*
X12022Y-275D01*
X11962Y-475D01*
X11782Y-650D01*
X11512Y-750D01*
X11212Y-775D01*
X10822Y-725D01*
X10612Y-650D01*
X10402Y-525D01*
X10252Y-350D01*
X10222Y-175D01*
X10282Y0D01*
X10432Y125D01*
G01X15496Y-4802D02*
X13696D01*
Y-4177D01*
X13786Y-3977D01*
X13906Y-3852D01*
X14146Y-3802D01*
X14386Y-3852D01*
X14536Y-4002D01*
X14626Y-4177D01*
Y-4802D01*
G01Y-4177D02*
X15496Y-3802D01*
G01Y-2302D02*
X13696D01*
X14056Y-2602D01*
G01X15496D02*
Y-2002D01*
G01Y-352D02*
X15106Y-302D01*
X14776Y-227D01*
X14476Y-127D01*
X14146Y-2D01*
X13696Y198D01*
Y-802D01*
G01X7978Y-4800D02*
X6178D01*
Y-4175D01*
X6268Y-3975D01*
X6388Y-3850D01*
X6628Y-3800D01*
X6868Y-3850D01*
X7018Y-4000D01*
X7108Y-4175D01*
Y-4800D01*
G01Y-4175D02*
X7978Y-3800D01*
G01Y-2300D02*
X6178D01*
X6538Y-2600D01*
G01X7978D02*
Y-2000D01*
G01Y-300D02*
X7948Y-125D01*
X7858Y75D01*
X7708Y200D01*
X7498Y250D01*
X7288Y200D01*
X7108Y50D01*
X7018Y-175D01*
Y-425D01*
X6958Y-575D01*
X6808Y-700D01*
X6598Y-750D01*
X6388Y-675D01*
X6238Y-500D01*
X6178Y-300D01*
X6238Y-100D01*
X6388Y75D01*
X6598Y150D01*
X6808Y100D01*
X6958Y-25D01*
X7018Y-175D01*
Y-425D01*
X7108Y-650D01*
X7288Y-800D01*
X7498Y-850D01*
X7708Y-800D01*
X7858Y-675D01*
X7948Y-475D01*
X7978Y-300D01*
G01X4934Y-4800D02*
X3134D01*
Y-4175D01*
X3224Y-3975D01*
X3344Y-3850D01*
X3584Y-3800D01*
X3824Y-3850D01*
X3974Y-4000D01*
X4064Y-4175D01*
Y-4800D01*
G01Y-4175D02*
X4934Y-3800D01*
G01Y-2300D02*
X3134D01*
X3494Y-2600D01*
G01X4934D02*
Y-2000D01*
G01X4664Y-850D02*
X4814Y-700D01*
X4904Y-525D01*
X4934Y-300D01*
X4874Y-75D01*
X4754Y100D01*
X4544Y225D01*
X4304Y250D01*
X4064Y200D01*
X3914Y75D01*
X3794Y-100D01*
X3764Y-275D01*
X3794Y-450D01*
X3914Y-675D01*
X3134Y-600D01*
Y75D01*
G01X12324Y12816D02*
Y11526D01*
X12424Y11256D01*
X12624Y11076D01*
X12874Y11017D01*
X13124Y11076D01*
X13324Y11256D01*
X13424Y11526D01*
Y12816D01*
G01X15174Y11017D02*
Y12816D01*
X14249Y11526D01*
X15499D01*
G01X11157Y52383D02*
X12447D01*
X12717Y52483D01*
X12897Y52683D01*
X12957Y52933D01*
X12897Y53183D01*
X12717Y53383D01*
X12447Y53483D01*
X11157D01*
G01X12957Y54933D02*
X11157D01*
X11517Y54633D01*
G01X12957D02*
Y55233D01*
G01X11157Y56933D02*
X11217Y56733D01*
X11367Y56583D01*
X11547Y56483D01*
X11787Y56408D01*
X12057Y56383D01*
X12327Y56408D01*
X12567Y56483D01*
X12747Y56583D01*
X12897Y56733D01*
X12957Y56933D01*
X12897Y57133D01*
X12747Y57283D01*
X12567Y57383D01*
X12327Y57458D01*
X12057Y57483D01*
X11787Y57458D01*
X11547Y57383D01*
X11367Y57283D01*
X11217Y57133D01*
X11157Y56933D01*
G54D11*
G01X-46555Y-30303D02*
Y-42115D01*
G01X-31397Y-56902D02*
Y-47295D01*
X-45807D01*
Y-61705D01*
X-36200D01*
G01X-34743Y-30303D02*
Y-42115D01*
G01X-35177Y-30303D02*
Y-29142D01*
G01X-34971Y32752D02*
X-33829D01*
G01X-34971Y35902D02*
X-33829D01*
G01X-42054Y36709D02*
Y37851D01*
G01X-45204Y36709D02*
Y37851D01*
G01X-35345Y42395D02*
X-33455D01*
G01X-35345Y47355D02*
X-33455D01*
G01X-35674Y80048D02*
Y78177D01*
X-33804D01*
G01X-35674Y85362D02*
Y87233D01*
X-33804D01*
G01X-37348Y85048D02*
Y83434D01*
G01X-42308Y85048D02*
Y83434D01*
G01X-43666Y102843D02*
Y101781D01*
G01X-40516Y102843D02*
Y101781D01*
G01X-37956Y100442D02*
Y102056D01*
G01X-32996Y100442D02*
Y102056D01*
G01X-25394Y-43720D02*
X-27402D01*
Y-41712D01*
G01X-25394Y-20098D02*
X-27402D01*
Y-22106D01*
G01X-26746Y37851D02*
Y36709D01*
G01X-23596Y37851D02*
Y36709D01*
G01X-17491Y53577D02*
X-14183D01*
G01X-17491Y59877D02*
X-14183D01*
G01X-28194Y80048D02*
Y78177D01*
X-30065D01*
G01X-19910Y81446D02*
Y88296D01*
G01X-28194Y85362D02*
Y87233D01*
X-30065D01*
G01X-22364Y100442D02*
Y102056D01*
G01X-17404Y100442D02*
Y102056D01*
G01X-30160Y100442D02*
Y102056D01*
G01X-25200Y100442D02*
Y102056D01*
G01X-5788Y-43720D02*
X-3780D01*
Y-41712D01*
G01X-5788Y-19173D02*
Y-20098D01*
X-3780D01*
Y-22106D01*
G01X-2028Y34989D02*
Y36130D01*
G01X-5178Y34989D02*
Y36130D01*
G01X-9952Y51490D02*
X-12196D01*
G01X-9952Y46530D02*
X-12196D01*
G01X-4716Y51490D02*
Y46530D01*
G01X-4912Y75304D02*
Y74575D01*
X6900D01*
Y75304D01*
G01X-10069Y81446D02*
Y88296D01*
G01X-4912Y85658D02*
Y86387D01*
X6900D01*
Y85658D01*
G01X-4912D02*
X-6112D01*
G01X-14568Y100442D02*
Y102056D01*
G01X-9608Y100442D02*
Y102056D01*
G01X8866Y-26461D02*
X7764D01*
G01X8866Y-30398D02*
X7764D01*
G01X6672Y-18902D02*
X8287D01*
G01X6672Y-23862D02*
X8287D01*
G01X5055Y31032D02*
X6197D01*
G01X5055Y34182D02*
X6197D01*
G01X13280Y36130D02*
Y34989D01*
G01X16430Y36130D02*
Y34989D01*
G01X4681Y40674D02*
X6571D01*
G01X4681Y45634D02*
X6571D01*
G01X2864Y72528D02*
X1722D01*
G01X2864Y69378D02*
X1722D01*
G01X6771Y98234D02*
X1653D01*
Y101836D01*
G01X6771Y98234D02*
X9684D01*
G01X6771Y110005D02*
X1653D01*
Y106402D01*
G54D12*
G01X18157Y-90000D02*
X-47000D01*
Y-66772D01*
X18157D01*
Y-90000D01*
G01X-46100Y-6268D02*
Y-19732D01*
G01X-31927Y-19220D02*
Y-22252D01*
X-40864D01*
G01Y-3748D02*
X-31927D01*
Y-6780D01*
G01X-36790Y17921D02*
Y15205D01*
X-34073D01*
G01X-36790Y26268D02*
Y28984D01*
X-34073D01*
G01X-23010Y17921D02*
X-22065D01*
G01X-23010D02*
Y15205D01*
X-25727D01*
G01X-23010Y26268D02*
Y28984D01*
X-25727D01*
G01X-8497Y31949D02*
X-20308D01*
G01X-8497Y40611D02*
X-20308D01*
G01X-18771Y65774D02*
Y70734D01*
G01Y65774D02*
Y62368D01*
G01X-564Y16701D02*
Y13984D01*
X2153D01*
G01X-564Y25047D02*
Y27764D01*
X2153D01*
G01X-8497Y31949D02*
X-8773D01*
G01X-10661Y65774D02*
Y70734D01*
G01X13216Y16701D02*
X14161D01*
G01X13216D02*
Y13984D01*
X10499D01*
G01X13216Y25047D02*
Y27764D01*
X10499D01*
G01X9425Y48803D02*
X5488D01*
G01X9425D02*
X8933D01*
G01X9425Y55063D02*
X5488D01*
G01X3838Y90510D02*
X9389D01*
G01X3838Y96809D02*
X9389D01*
G54D13*
G01X-5644Y60951D02*
G03I-394J0D01*
G54D14*
G01X-4344Y-18910D02*
G03I-246J0D01*
G01X2562Y-55415D02*
G03I-246J0D01*
G54D15*
G01X-29269Y-8079D02*
G03I-492J0D01*
G01X-19644Y19142D02*
G03I-492J0D01*
G01X-19783Y63675D02*
G03I-492J0D01*
G01X-6548Y33327D02*
G03I-492J0D01*
G01X16582Y17921D02*
G03I-492J0D01*
G01X11374Y49866D02*
G03I-492J0D01*
G54D16*
G01X-36220Y-27449D02*
G03I-492J0D01*
G01X-34645Y89379D02*
G03I-493J0D01*
G01X-25010Y-61100D02*
G03I-491J0D01*
G01X-5319Y44793D02*
G03I-492J0D01*
G01X-5726Y87443D02*
G03I-492J0D01*
G54D17*
G01X-46984Y-90000D02*
X18016D01*
Y115000D01*
X-46984D01*
Y-90000D01*
G01X-42568Y-26815D02*
G03I-1732J0D01*
G01X-40832Y49661D02*
Y57535D01*
X-26658D01*
Y49661D01*
X-40832D01*
G01X-26658Y71409D02*
Y63535D01*
X-40832D01*
Y71409D01*
X-26658D01*
G01X1933Y-40931D02*
G03I-1732J0D01*
G01X1732Y-28500D02*
G03I-1732J0D01*
G01X3269Y-31552D02*
G03I-1732J0D01*
G01X1933Y-36431D02*
G03I-1732J0D01*
G01X4433Y-38431D02*
G03I-1732J0D01*
G01Y-34431D02*
G03I-1732J0D01*
M02*
