G04 ================== begin FILE IDENTIFICATION RECORD ==================*
G04 Layout Name:  1010309-900-0012_Rev-A.brd*
G04 Film Name:    1010309-900-0012_Rev-ASOLDERMASK_TOP*
G04 File Format:  Gerber RS274X*
G04 File Origin:  Cadence Allegro 17.2-061*
G04 Origin Date:  Mon Aug 31 14:47:59 2020*
G04 *
G04 Layer:  VIA CLASS/SOLDERMASK_TOP*
G04 Layer:  PIN/SOLDERMASK_TOP*
G04 Layer:  PACKAGE GEOMETRY/SOLDERMASK_TOP*
G04 Layer:  BOARD GEOMETRY/SOLDERMASK_TOP*
G04 Layer:  BOARD GEOMETRY/DESIGN_OUTLINE*
G04 Layer:  BOARD GEOMETRY/CUTOUT*
G04 *
G04 Offset:    (0.000 0.000)*
G04 Mirror:    No*
G04 Mode:      Positive*
G04 Rotation:  0*
G04 FullContactRelief:  No*
G04 UndefLineWidth:     1.000*
G04 ================== end FILE IDENTIFICATION RECORD ====================*
%FSLAX25Y25*MOIN*%
%IR0*IPPOS*OFA0.00000B0.00000*MIA0B0*SFA1.00000B1.00000*%
%AMMACRO75*
4,1,44,.004921,.003543,
-.004921,.003543,
-.005263,.003514,
-.005594,.003425,
-.005905,.00328,
-.006187,.003083,
-.006429,.00284,
-.006626,.002559,
-.006771,.002248,
-.00686,.001916,
-.00689,.001575,
-.00689,.001574,
-.00689,-.001574,
-.00686,-.001916,
-.006771,-.002247,
-.006626,-.002559,
-.00643,-.00284,
-.006187,-.003083,
-.005906,-.003279,
-.005595,-.003425,
-.005263,-.003513,
-.004921,-.003543,
-.004921,-.003543,
.004921,-.003543,
.005263,-.003514,
.005594,-.003425,
.005905,-.00328,
.006187,-.003083,
.006429,-.00284,
.006626,-.002559,
.006771,-.002248,
.00686,-.001916,
.00689,-.001575,
.00689,-.001574,
.00689,.001574,
.00686,.001916,
.006771,.002247,
.006626,.002559,
.00643,.00284,
.006187,.003083,
.005906,.003279,
.005595,.003425,
.005263,.003513,
.004921,.003543,
.004921,.003543,
0.0*
%
%ADD75MACRO75*%
%AMMACRO74*
4,1,44,.004724,.003543,
-.004724,.003543,
-.005066,.003514,
-.005397,.003425,
-.005709,.00328,
-.00599,.003083,
-.006232,.00284,
-.006429,.002559,
-.006574,.002248,
-.006663,.001916,
-.006693,.001575,
-.006693,.001574,
-.006693,-.001574,
-.006663,-.001916,
-.006574,-.002247,
-.006429,-.002559,
-.006233,-.00284,
-.00599,-.003083,
-.005709,-.003279,
-.005398,-.003425,
-.005066,-.003513,
-.004724,-.003543,
-.004724,-.003543,
.004724,-.003543,
.005066,-.003514,
.005397,-.003425,
.005708,-.00328,
.00599,-.003083,
.006232,-.00284,
.006429,-.002559,
.006574,-.002248,
.006663,-.001916,
.006693,-.001575,
.006693,-.001574,
.006693,.001574,
.006663,.001916,
.006574,.002247,
.006429,.002559,
.006233,.00284,
.00599,.003083,
.005709,.003279,
.005398,.003425,
.005066,.003513,
.004724,.003543,
.004724,.003543,
0.0*
%
%ADD74MACRO74*%
%AMMACRO51*
4,1,44,-.053149,.012801,
-.053149,-.012801,
-.053,-.01451,
-.052556,-.016166,
-.051831,-.01772,
-.050848,-.019125,
-.049635,-.020338,
-.04823,-.021322,
-.046676,-.022047,
-.045019,-.022491,
-.043311,-.02264,
-.04331,-.02264,
.04331,-.02264,
.045019,-.022491,
.046675,-.022047,
.04823,-.021322,
.049635,-.020338,
.050847,-.019126,
.051831,-.017721,
.052556,-.016167,
.053,-.01451,
.053149,-.012801,
.053149,-.012801,
.053149,.012801,
.053,.01451,
.052556,.016166,
.051831,.017721,
.050848,.019125,
.049635,.020338,
.04823,.021322,
.046676,.022047,
.045019,.022491,
.043311,.02264,
.04331,.02264,
-.04331,.02264,
-.045019,.022491,
-.046675,.022047,
-.04823,.021322,
-.049635,.020338,
-.050847,.019126,
-.051831,.017721,
-.052556,.016167,
-.053,.01451,
-.053149,.012801,
-.053149,.012801,
0.0*
%
%ADD51MACRO51*%
%AMMACRO69*
4,1,44,.009844,-.004726,
.009844,.004726,
.009767,.005615,
.009536,.006476,
.009159,.007285,
.008647,.008016,
.008017,.008647,
.007286,.009159,
.006477,.009536,
.005616,.009767,
.004727,.009844,
.004726,.009844,
-.004726,.009844,
-.005615,.009767,
-.006476,.009536,
-.007285,.009159,
-.008016,.008647,
-.008647,.008017,
-.009159,.007286,
-.009536,.006477,
-.009767,.005616,
-.009844,.004727,
-.009844,.004726,
-.009844,-.004726,
-.009767,-.005615,
-.009536,-.006476,
-.009159,-.007285,
-.008647,-.008016,
-.008017,-.008647,
-.007286,-.009159,
-.006477,-.009536,
-.005616,-.009767,
-.004727,-.009844,
-.004726,-.009844,
.004726,-.009844,
.005615,-.009767,
.006476,-.009536,
.007285,-.009159,
.008016,-.008647,
.008647,-.008017,
.009159,-.007286,
.009536,-.006477,
.009767,-.005616,
.009844,-.004727,
.009844,-.004726,
0.0*
%
%ADD69MACRO69*%
%AMMACRO47*
4,1,44,-.009645,-.027954,
.009645,-.027954,
.011286,-.027811,
.012877,-.027385,
.01437,-.026689,
.015719,-.025744,
.016884,-.02458,
.017828,-.02323,
.018524,-.021738,
.018951,-.020147,
.019094,-.018506,
.019094,-.018505,
.019094,.018505,
.018951,.020146,
.018525,.021737,
.017829,.02323,
.016884,.024579,
.01572,.025744,
.01437,.026688,
.012878,.027384,
.011287,.027811,
.009646,.027954,
.009645,.027954,
-.009645,.027954,
-.011286,.027811,
-.012877,.027385,
-.01437,.026689,
-.015719,.025744,
-.016884,.02458,
-.017828,.02323,
-.018524,.021738,
-.018951,.020147,
-.019094,.018506,
-.019094,.018505,
-.019094,-.018505,
-.018951,-.020146,
-.018525,-.021737,
-.017829,-.02323,
-.016884,-.024579,
-.01572,-.025744,
-.01437,-.026688,
-.012878,-.027384,
-.011287,-.027811,
-.009646,-.027954,
-.009645,-.027954,
0.0*
%
%ADD47MACRO47*%
%AMMACRO61*
4,1,5,.03248,.04685,
-.02461,.04685,
-.03248,.03898,
-.03248,-.04685,
.03248,-.04685,
.03248,.04685,
0.0*
%
%ADD61MACRO61*%
%AMMACRO76*
4,1,44,.013775,.005315,
-.013775,.005315,
-.014254,.005273,
-.014719,.005149,
-.015155,.004945,
-.015549,.00467,
-.015889,.004329,
-.016165,.003935,
-.016369,.003499,
-.016493,.003035,
-.016535,.002555,
-.016535,.002555,
-.016535,-.002555,
-.016494,-.003034,
-.016369,-.003499,
-.016166,-.003935,
-.01589,-.004329,
-.01555,-.004669,
-.015156,-.004945,
-.014719,-.005149,
-.014255,-.005273,
-.013776,-.005315,
-.013775,-.005315,
.013775,-.005315,
.014254,-.005273,
.014719,-.005149,
.015155,-.004945,
.015549,-.00467,
.015889,-.004329,
.016165,-.003935,
.016369,-.003499,
.016493,-.003035,
.016535,-.002555,
.016535,-.002555,
.016535,.002555,
.016494,.003034,
.016369,.003499,
.016166,.003935,
.01589,.004329,
.01555,.004669,
.015155,.004945,
.014719,.005149,
.014255,.005273,
.013776,.005315,
.013775,.005315,
0.0*
%
%ADD76MACRO76*%
%AMMACRO34*
4,1,40,.005118,.011809,
-.005118,.011809,
-.006075,.011725,
-.007003,.011477,
-.007874,.011071,
-.008661,.010519,
-.00934,.00984,
-.009892,.009053,
-.010298,.008182,
-.010546,.007254,
-.01063,.006297,
-.01063,-.006297,
-.010546,-.007254,
-.010298,-.008182,
-.009892,-.009053,
-.00934,-.00984,
-.008661,-.010519,
-.007874,-.011071,
-.007003,-.011477,
-.006075,-.011725,
-.005118,-.011809,
.005118,-.011809,
.006075,-.011725,
.007003,-.011477,
.007874,-.011071,
.008661,-.010519,
.00934,-.00984,
.009892,-.009053,
.010298,-.008182,
.010546,-.007254,
.01063,-.006297,
.01063,.006297,
.010546,.007254,
.010298,.008182,
.009892,.009053,
.00934,.00984,
.008661,.010519,
.007874,.011071,
.007003,.011477,
.006075,.011725,
.005118,.011809,
0.0*
%
%ADD34MACRO34*%
%AMMACRO23*
4,1,44,-.005118,.013779,
-.005118,-.013779,
-.005076,-.014258,
-.004952,-.014722,
-.004749,-.015157,
-.004474,-.015551,
-.004134,-.01589,
-.00374,-.016166,
-.003305,-.016369,
-.002841,-.016494,
-.002362,-.016535,
-.002362,-.016535,
.002362,-.016535,
.002841,-.016494,
.003305,-.016369,
.00374,-.016166,
.004134,-.015891,
.004473,-.015551,
.004749,-.015158,
.004952,-.014722,
.005076,-.014258,
.005118,-.01378,
.005118,-.013779,
.005118,.013779,
.005076,.014258,
.004952,.014722,
.004749,.015157,
.004474,.015551,
.004134,.01589,
.00374,.016166,
.003305,.016369,
.002841,.016494,
.002362,.016535,
.002362,.016535,
-.002362,.016535,
-.002841,.016494,
-.003305,.016369,
-.00374,.016166,
-.004134,.015891,
-.004473,.015551,
-.004749,.015158,
-.004952,.014722,
-.005076,.014258,
-.005118,.01378,
-.005118,.013779,
0.0*
%
%ADD23MACRO23*%
%ADD10O,.187012X.029531*%
%AMMACRO71*
4,1,44,.006301,.02008,
-.006301,.02008,
-.007395,.019985,
-.008455,.019701,
-.009451,.019237,
-.01035,.018607,
-.011126,.017831,
-.011756,.016931,
-.01222,.015936,
-.012505,.014876,
-.0126,.013782,
-.0126,.013781,
-.0126,-.013781,
-.012505,-.014875,
-.012221,-.015935,
-.011757,-.016931,
-.011127,-.01783,
-.010351,-.018606,
-.009451,-.019236,
-.008456,-.0197,
-.007396,-.019985,
-.006302,-.02008,
-.006301,-.02008,
.006301,-.02008,
.007395,-.019985,
.008455,-.019701,
.009451,-.019237,
.01035,-.018607,
.011126,-.017831,
.011756,-.016931,
.01222,-.015936,
.012505,-.014876,
.0126,-.013782,
.0126,-.013781,
.0126,.013781,
.012505,.014875,
.012221,.015935,
.011757,.016931,
.011127,.01783,
.010351,.018606,
.009451,.019236,
.008456,.0197,
.007396,.019985,
.006302,.02008,
.006301,.02008,
0.0*
%
%ADD71MACRO71*%
%AMMACRO59*
4,1,44,.00748,.006693,
-.00748,.006693,
-.008095,.006639,
-.008692,.00648,
-.009252,.006219,
-.009758,.005864,
-.010194,.005428,
-.010549,.004922,
-.01081,.004362,
-.01097,.003766,
-.011023,.00315,
-.011023,.00315,
-.011023,-.00315,
-.01097,-.003765,
-.01081,-.004362,
-.010549,-.004921,
-.010195,-.005427,
-.009758,-.005864,
-.009252,-.006218,
-.008692,-.006479,
-.008096,-.006639,
-.007481,-.006693,
-.00748,-.006693,
.00748,-.006693,
.008095,-.006639,
.008692,-.00648,
.009252,-.006219,
.009758,-.005864,
.010194,-.005428,
.010549,-.004922,
.01081,-.004362,
.01097,-.003766,
.011023,-.00315,
.011023,-.00315,
.011023,.00315,
.01097,.003765,
.01081,.004362,
.010549,.004921,
.010195,.005427,
.009758,.005864,
.009252,.006218,
.008692,.006479,
.008096,.006639,
.007481,.006693,
.00748,.006693,
0.0*
%
%ADD59MACRO59*%
%AMMACRO49*
4,1,40,.033858,.010825,
-.033858,.010825,
-.034815,.010741,
-.035743,.010493,
-.036614,.010087,
-.037401,.009535,
-.03808,.008856,
-.038632,.008069,
-.039038,.007198,
-.039286,.00627,
-.03937,.005313,
-.03937,-.005313,
-.039286,-.00627,
-.039038,-.007198,
-.038632,-.008069,
-.03808,-.008856,
-.037401,-.009535,
-.036614,-.010087,
-.035743,-.010493,
-.034815,-.010741,
-.033858,-.010825,
.033858,-.010825,
.034815,-.010741,
.035743,-.010493,
.036614,-.010087,
.037401,-.009535,
.03808,-.008856,
.038632,-.008069,
.039038,-.007198,
.039286,-.00627,
.03937,-.005313,
.03937,.005313,
.039286,.00627,
.039038,.007198,
.038632,.008069,
.03808,.008856,
.037401,.009535,
.036614,.010087,
.035743,.010493,
.034815,.010741,
.033858,.010825,
0.0*
%
%ADD49MACRO49*%
%ADD33C,.009449*%
%AMMACRO20*
4,1,44,-.011809,.004925,
-.011809,-.004925,
-.011737,-.005745,
-.011525,-.006539,
-.011177,-.007285,
-.010705,-.007959,
-.010123,-.008541,
-.009449,-.009013,
-.008704,-.009361,
-.007909,-.009574,
-.007089,-.009645,
-.007089,-.009645,
.007089,-.009645,
.007909,-.009574,
.008703,-.009361,
.009449,-.009013,
.010123,-.008541,
.010705,-.007959,
.011177,-.007286,
.011524,-.00654,
.011737,-.005745,
.011809,-.004926,
.011809,-.004925,
.011809,.004925,
.011737,.005745,
.011525,.006539,
.011177,.007285,
.010705,.007959,
.010123,.008541,
.009449,.009013,
.008704,.009361,
.007909,.009574,
.007089,.009645,
.007089,.009645,
-.007089,.009645,
-.007909,.009574,
-.008703,.009361,
-.009449,.009013,
-.010123,.008541,
-.010705,.007959,
-.011177,.007286,
-.011524,.00654,
-.011737,.005745,
-.011809,.004926,
-.011809,.004925,
0.0*
%
%ADD20MACRO20*%
%AMMACRO45*
4,1,44,.004925,.011809,
-.004925,.011809,
-.005745,.011737,
-.006539,.011525,
-.007285,.011177,
-.007959,.010705,
-.008541,.010123,
-.009013,.009449,
-.009361,.008704,
-.009574,.007909,
-.009645,.007089,
-.009645,.007089,
-.009645,-.007089,
-.009574,-.007909,
-.009361,-.008703,
-.009013,-.009449,
-.008541,-.010123,
-.007959,-.010705,
-.007286,-.011177,
-.00654,-.011524,
-.005745,-.011737,
-.004926,-.011809,
-.004925,-.011809,
.004925,-.011809,
.005745,-.011737,
.006539,-.011525,
.007285,-.011177,
.007959,-.010705,
.008541,-.010123,
.009013,-.009449,
.009361,-.008704,
.009574,-.007909,
.009645,-.007089,
.009645,-.007089,
.009645,.007089,
.009574,.007909,
.009361,.008703,
.009013,.009449,
.008541,.010123,
.007959,.010705,
.007286,.011177,
.00654,.011524,
.005745,.011737,
.004926,.011809,
.004925,.011809,
0.0*
%
%ADD45MACRO45*%
%AMMACRO17*
4,1,44,-.008269,.011614,
-.008269,-.011614,
-.008204,-.012366,
-.008008,-.013095,
-.007689,-.013779,
-.007256,-.014398,
-.006722,-.014932,
-.006104,-.015365,
-.00542,-.015684,
-.004691,-.015879,
-.003939,-.015945,
-.003938,-.015945,
.003938,-.015945,
.00469,-.015879,
.005419,-.015684,
.006104,-.015365,
.006722,-.014932,
.007256,-.014398,
.007689,-.01378,
.008008,-.013096,
.008204,-.012367,
.008269,-.011614,
.008269,-.011614,
.008269,.011614,
.008204,.012366,
.008008,.013095,
.007689,.01378,
.007256,.014398,
.006722,.014932,
.006104,.015365,
.00542,.015684,
.004691,.015879,
.003939,.015945,
.003938,.015945,
-.003938,.015945,
-.00469,.015879,
-.005419,.015684,
-.006104,.015365,
-.006722,.014932,
-.007256,.014398,
-.007689,.01378,
-.008008,.013096,
-.008204,.012367,
-.008269,.011614,
-.008269,.011614,
0.0*
%
%ADD17MACRO17*%
%AMMACRO28*
4,1,44,-.018305,.008858,
-.018305,-.008858,
-.018174,-.010362,
-.017783,-.01182,
-.017145,-.013189,
-.016279,-.014425,
-.015212,-.015493,
-.013975,-.016359,
-.012607,-.016997,
-.011148,-.017388,
-.009644,-.017519,
-.009644,-.017519,
.009644,-.017519,
.011148,-.017388,
.012606,-.016997,
.013974,-.016359,
.015211,-.015493,
.016279,-.014426,
.017145,-.013189,
.017783,-.011821,
.018173,-.010362,
.018305,-.008859,
.018305,-.008858,
.018305,.008858,
.018174,.010362,
.017783,.01182,
.017145,.013189,
.016279,.014425,
.015212,.015493,
.013975,.016359,
.012607,.016997,
.011148,.017388,
.009644,.017519,
.009644,.017519,
-.009644,.017519,
-.011148,.017388,
-.012606,.016997,
-.013974,.016359,
-.015211,.015493,
-.016279,.014426,
-.017145,.013189,
-.017783,.011821,
-.018173,.010362,
-.018305,.008859,
-.018305,.008858,
0.0*
%
%ADD28MACRO28*%
%ADD43R,.181098X.181098*%
%AMMACRO26*
4,1,44,.008858,.018305,
-.008858,.018305,
-.010362,.018174,
-.01182,.017783,
-.013189,.017145,
-.014425,.016279,
-.015493,.015212,
-.016359,.013975,
-.016997,.012607,
-.017388,.011148,
-.017519,.009644,
-.017519,.009644,
-.017519,-.009644,
-.017388,-.011148,
-.016997,-.012606,
-.016359,-.013974,
-.015493,-.015211,
-.014426,-.016279,
-.013189,-.017145,
-.011821,-.017783,
-.010362,-.018173,
-.008859,-.018305,
-.008858,-.018305,
.008858,-.018305,
.010362,-.018174,
.01182,-.017783,
.013189,-.017145,
.014425,-.016279,
.015493,-.015212,
.016359,-.013975,
.016997,-.012607,
.017388,-.011148,
.017519,-.009644,
.017519,-.009644,
.017519,.009644,
.017388,.011148,
.016997,.012606,
.016359,.013974,
.015493,.015211,
.014426,.016279,
.013189,.017145,
.011821,.017783,
.010362,.018173,
.008859,.018305,
.008858,.018305,
0.0*
%
%ADD26MACRO26*%
%AMMACRO44*
4,1,44,-.013587,-.00433,
.013587,-.00433,
.013996,-.004295,
.014393,-.004188,
.014766,-.004015,
.015103,-.003779,
.015393,-.003488,
.015629,-.003152,
.015803,-.002779,
.015909,-.002382,
.015945,-.001973,
.015945,-.001972,
.015945,.001972,
.015909,.002381,
.015803,.002779,
.015629,.003151,
.015394,.003488,
.015103,.003779,
.014766,.004014,
.014394,.004188,
.013997,.004295,
.013587,.00433,
.013587,.00433,
-.013587,.00433,
-.013996,.004295,
-.014393,.004188,
-.014766,.004015,
-.015103,.003779,
-.015393,.003488,
-.015629,.003152,
-.015803,.002779,
-.015909,.002382,
-.015945,.001973,
-.015945,.001972,
-.015945,-.001972,
-.015909,-.002381,
-.015803,-.002779,
-.015629,-.003151,
-.015394,-.003488,
-.015103,-.003779,
-.014766,-.004014,
-.014394,-.004188,
-.013997,-.004295,
-.013587,-.00433,
-.013587,-.00433,
0.0*
%
%ADD44MACRO44*%
%AMMACRO42*
4,1,44,.00433,-.013587,
.00433,.013587,
.004295,.013996,
.004188,.014393,
.004015,.014766,
.003779,.015103,
.003488,.015393,
.003152,.015629,
.002779,.015803,
.002382,.015909,
.001972,.015945,
.001972,.015945,
-.001972,.015945,
-.002381,.015909,
-.002779,.015803,
-.003151,.015629,
-.003488,.015394,
-.003779,.015103,
-.004014,.014766,
-.004188,.014394,
-.004295,.013997,
-.00433,.013587,
-.00433,.013587,
-.00433,-.013587,
-.004295,-.013996,
-.004188,-.014393,
-.004015,-.014766,
-.003779,-.015103,
-.003488,-.015393,
-.003152,-.015629,
-.002779,-.015803,
-.002382,-.015909,
-.001973,-.015945,
-.001972,-.015945,
.001972,-.015945,
.002381,-.015909,
.002779,-.015803,
.003151,-.015629,
.003488,-.015394,
.003779,-.015103,
.004014,-.014766,
.004188,-.014394,
.004295,-.013997,
.00433,-.013587,
.00433,-.013587,
0.0*
%
%ADD42MACRO42*%
%ADD31R,.133858X.07087*%
%AMMACRO21*
4,1,40,-.011809,.003933,
-.011809,-.003933,
-.011749,-.004617,
-.011571,-.005281,
-.011281,-.005903,
-.010887,-.006466,
-.010401,-.006952,
-.009839,-.007346,
-.009216,-.007636,
-.008552,-.007814,
-.007868,-.007874,
.007868,-.007874,
.008552,-.007814,
.009216,-.007636,
.009838,-.007346,
.010401,-.006952,
.010887,-.006466,
.011281,-.005904,
.011571,-.005281,
.011749,-.004617,
.011809,-.003933,
.011809,.003933,
.011749,.004617,
.011571,.005281,
.011281,.005903,
.010887,.006466,
.010401,.006952,
.009839,.007346,
.009216,.007636,
.008552,.007814,
.007868,.007874,
-.007868,.007874,
-.008552,.007814,
-.009216,.007636,
-.009839,.007346,
-.010401,.006952,
-.010887,.006466,
-.011281,.005904,
-.011571,.005281,
-.011749,.004617,
-.011809,.003933,
0.0*
%
%ADD21MACRO21*%
%AMMACRO12*
4,1,44,.015751,.02559,
-.015751,.02559,
-.01746,.025441,
-.019116,.024997,
-.020671,.024273,
-.022076,.023289,
-.023288,.022076,
-.024272,.020671,
-.024997,.019117,
-.025441,.017461,
-.02559,.015752,
-.02559,.015751,
-.02559,-.015751,
-.025441,-.01746,
-.024997,-.019116,
-.024273,-.020671,
-.023289,-.022076,
-.022076,-.023288,
-.020671,-.024272,
-.019117,-.024997,
-.017461,-.025441,
-.015752,-.02559,
-.015751,-.02559,
.015751,-.02559,
.01746,-.025441,
.019116,-.024997,
.020671,-.024273,
.022076,-.023289,
.023288,-.022076,
.024272,-.020671,
.024997,-.019117,
.025441,-.017461,
.02559,-.015752,
.02559,-.015751,
.02559,.015751,
.025441,.01746,
.024997,.019116,
.024273,.020671,
.023289,.022076,
.022076,.023288,
.020671,.024272,
.019117,.024997,
.017461,.025441,
.015752,.02559,
.015751,.02559,
0.0*
%
%ADD12MACRO12*%
%AMMACRO48*
4,1,40,.003933,.011809,
-.003933,.011809,
-.004617,.011749,
-.005281,.011571,
-.005903,.011281,
-.006466,.010887,
-.006952,.010401,
-.007346,.009839,
-.007636,.009216,
-.007814,.008552,
-.007874,.007868,
-.007874,-.007868,
-.007814,-.008552,
-.007636,-.009216,
-.007346,-.009838,
-.006952,-.010401,
-.006466,-.010887,
-.005904,-.011281,
-.005281,-.011571,
-.004617,-.011749,
-.003933,-.011809,
.003933,-.011809,
.004617,-.011749,
.005281,-.011571,
.005903,-.011281,
.006466,-.010887,
.006952,-.010401,
.007346,-.009839,
.007636,-.009216,
.007814,-.008552,
.007874,-.007868,
.007874,.007868,
.007814,.008552,
.007636,.009216,
.007346,.009839,
.006952,.010401,
.006466,.010887,
.005904,.011281,
.005281,.011571,
.004617,.011749,
.003933,.011809,
0.0*
%
%ADD48MACRO48*%
%AMMACRO30*
4,1,44,.010631,.027165,
-.010631,.027165,
-.01234,.027016,
-.013996,.026572,
-.015551,.025848,
-.016956,.024864,
-.018168,.023651,
-.019152,.022246,
-.019877,.020692,
-.020321,.019036,
-.02047,.017327,
-.02047,.017326,
-.02047,-.017326,
-.020321,-.019035,
-.019877,-.020691,
-.019153,-.022246,
-.018169,-.023651,
-.016956,-.024863,
-.015551,-.025847,
-.013997,-.026572,
-.012341,-.027016,
-.010632,-.027165,
-.010631,-.027165,
.010631,-.027165,
.01234,-.027016,
.013996,-.026572,
.015551,-.025848,
.016956,-.024864,
.018168,-.023651,
.019152,-.022246,
.019877,-.020692,
.020321,-.019036,
.02047,-.017327,
.02047,-.017326,
.02047,.017326,
.020321,.019035,
.019877,.020691,
.019153,.022246,
.018169,.023651,
.016956,.024863,
.015551,.025847,
.013997,.026572,
.012341,.027016,
.010632,.027165,
.010631,.027165,
0.0*
%
%ADD30MACRO30*%
%AMMACRO52*
4,1,40,-.007874,.019484,
-.007874,-.019484,
-.007814,-.020168,
-.007636,-.020832,
-.007346,-.021454,
-.006952,-.022017,
-.006466,-.022503,
-.005904,-.022897,
-.005281,-.023187,
-.004617,-.023365,
-.003933,-.023425,
.003933,-.023425,
.004617,-.023365,
.005281,-.023187,
.005903,-.022897,
.006466,-.022503,
.006952,-.022017,
.007346,-.021455,
.007636,-.020832,
.007814,-.020168,
.007874,-.019484,
.007874,.019484,
.007814,.020168,
.007636,.020832,
.007346,.021455,
.006952,.022017,
.006466,.022503,
.005904,.022897,
.005281,.023187,
.004617,.023365,
.003933,.023425,
-.003933,.023425,
-.004617,.023365,
-.005281,.023187,
-.005903,.022897,
-.006466,.022503,
-.006952,.022017,
-.007346,.021455,
-.007636,.020832,
-.007814,.020168,
-.007874,.019484,
0.0*
%
%ADD52MACRO52*%
%AMMACRO38*
4,1,44,-.019094,.009051,
-.019094,-.009051,
-.018957,-.010624,
-.018548,-.012149,
-.017881,-.01358,
-.016975,-.014874,
-.015859,-.015991,
-.014565,-.016896,
-.013134,-.017564,
-.011609,-.017972,
-.010036,-.01811,
-.010035,-.01811,
.010035,-.01811,
.011608,-.017972,
.013133,-.017564,
.014565,-.016897,
.015858,-.015991,
.016975,-.014874,
.017881,-.013581,
.018548,-.01215,
.018957,-.010625,
.019094,-.009051,
.019094,-.009051,
.019094,.009051,
.018957,.010624,
.018548,.012149,
.017881,.01358,
.016975,.014874,
.015859,.015991,
.014565,.016896,
.013134,.017564,
.011609,.017972,
.010036,.01811,
.010035,.01811,
-.010035,.01811,
-.011608,.017972,
-.013133,.017564,
-.014565,.016897,
-.015858,.015991,
-.016975,.014874,
-.017881,.013581,
-.018548,.01215,
-.018957,.010625,
-.019094,.009051,
-.019094,.009051,
0.0*
%
%ADD38MACRO38*%
%AMMACRO37*
4,1,40,-.028935,.011226,
-.028935,-.011226,
-.028786,-.012935,
-.028342,-.014591,
-.027617,-.016145,
-.026633,-.01755,
-.02542,-.018763,
-.024016,-.019747,
-.022461,-.020472,
-.020805,-.020916,
-.019096,-.021065,
.019096,-.021065,
.020805,-.020916,
.022461,-.020472,
.024015,-.019747,
.02542,-.018763,
.026633,-.01755,
.027617,-.016146,
.028342,-.014591,
.028786,-.012935,
.028935,-.011226,
.028935,.011226,
.028786,.012935,
.028342,.014591,
.027617,.016146,
.026633,.01755,
.02542,.018763,
.024016,.019747,
.022461,.020472,
.020805,.020916,
.019096,.021065,
-.019096,.021065,
-.020805,.020916,
-.022461,.020472,
-.024015,.019747,
-.02542,.018763,
-.026633,.01755,
-.027617,.016146,
-.028342,.014591,
-.028786,.012935,
-.028935,.011226,
0.0*
%
%ADD37MACRO37*%
%AMMACRO77*
4,1,44,.013188,.035827,
-.013188,.035827,
-.014897,.035678,
-.016555,.035234,
-.01811,.034509,
-.019515,.033524,
-.020728,.032311,
-.021713,.030906,
-.022438,.029351,
-.022882,.027694,
-.023031,.025984,
-.023031,.025984,
-.023031,-.025984,
-.022882,-.027693,
-.022438,-.029351,
-.021713,-.030905,
-.020729,-.032311,
-.019515,-.033524,
-.01811,-.034508,
-.016555,-.035233,
-.014898,-.035677,
-.013189,-.035827,
-.013188,-.035827,
.013188,-.035827,
.014897,-.035678,
.016555,-.035234,
.01811,-.034509,
.019515,-.033524,
.020728,-.032311,
.021713,-.030906,
.022438,-.029351,
.022882,-.027694,
.023031,-.025984,
.023031,-.025984,
.023031,.025984,
.022882,.027693,
.022438,.029351,
.021713,.030906,
.020729,.032311,
.019515,.033524,
.01811,.034508,
.016555,.035233,
.014898,.035677,
.013189,.035827,
.013188,.035827,
0.0*
%
%ADD77MACRO77*%
%AMMACRO72*
4,1,40,.011226,.028935,
-.011226,.028935,
-.012935,.028786,
-.014591,.028342,
-.016146,.027617,
-.01755,.026633,
-.018763,.02542,
-.019747,.024016,
-.020472,.022461,
-.020916,.020805,
-.021065,.019096,
-.021065,-.019096,
-.020916,-.020805,
-.020472,-.022461,
-.019747,-.024015,
-.018763,-.02542,
-.01755,-.026633,
-.016146,-.027617,
-.014591,-.028342,
-.012935,-.028786,
-.011226,-.028935,
.011226,-.028935,
.012935,-.028786,
.014591,-.028342,
.016145,-.027617,
.01755,-.026633,
.018763,-.02542,
.019747,-.024016,
.020472,-.022461,
.020916,-.020805,
.021065,-.019096,
.021065,.019096,
.020916,.020805,
.020472,.022461,
.019747,.024016,
.018763,.02542,
.01755,.026633,
.016146,.027617,
.014591,.028342,
.012935,.028786,
.011226,.028935,
0.0*
%
%ADD72MACRO72*%
%AMMACRO73*
4,1,44,-.004724,-.003543,
.004724,-.003543,
.005066,-.003514,
.005397,-.003425,
.005708,-.00328,
.00599,-.003083,
.006232,-.00284,
.006429,-.002559,
.006574,-.002248,
.006663,-.001916,
.006693,-.001575,
.006693,-.001574,
.006693,.001574,
.006663,.001916,
.006574,.002247,
.006429,.002559,
.006233,.00284,
.00599,.003083,
.005709,.003279,
.005398,.003425,
.005066,.003513,
.004724,.003543,
.004724,.003543,
-.004724,.003543,
-.005066,.003514,
-.005397,.003425,
-.005709,.00328,
-.00599,.003083,
-.006232,.00284,
-.006429,.002559,
-.006574,.002248,
-.006663,.001916,
-.006693,.001575,
-.006693,.001574,
-.006693,-.001574,
-.006663,-.001916,
-.006574,-.002247,
-.006429,-.002559,
-.006233,-.00284,
-.00599,-.003083,
-.005709,-.003279,
-.005398,-.003425,
-.005066,-.003513,
-.004724,-.003543,
-.004724,-.003543,
0.0*
%
%ADD73MACRO73*%
%ADD58R,.007874X.062992*%
%AMMACRO54*
4,1,44,.004726,.009844,
-.004726,.009844,
-.005615,.009767,
-.006476,.009536,
-.007285,.009159,
-.008016,.008647,
-.008647,.008017,
-.009159,.007286,
-.009536,.006477,
-.009767,.005616,
-.009844,.004727,
-.009844,.004726,
-.009844,-.004726,
-.009767,-.005615,
-.009536,-.006476,
-.009159,-.007285,
-.008647,-.008016,
-.008017,-.008647,
-.007286,-.009159,
-.006477,-.009536,
-.005616,-.009767,
-.004727,-.009844,
-.004726,-.009844,
.004726,-.009844,
.005615,-.009767,
.006476,-.009536,
.007285,-.009159,
.008016,-.008647,
.008647,-.008017,
.009159,-.007286,
.009536,-.006477,
.009767,-.005616,
.009844,-.004727,
.009844,-.004726,
.009844,.004726,
.009767,.005615,
.009536,.006476,
.009159,.007285,
.008647,.008016,
.008017,.008647,
.007286,.009159,
.006477,.009536,
.005616,.009767,
.004727,.009844,
.004726,.009844,
0.0*
%
%ADD54MACRO54*%
%AMMACRO60*
4,1,44,.009645,.027954,
-.009645,.027954,
-.011286,.027811,
-.012877,.027385,
-.01437,.026689,
-.015719,.025744,
-.016884,.02458,
-.017828,.02323,
-.018524,.021738,
-.018951,.020147,
-.019094,.018506,
-.019094,.018505,
-.019094,-.018505,
-.018951,-.020146,
-.018525,-.021737,
-.017829,-.02323,
-.016884,-.024579,
-.01572,-.025744,
-.01437,-.026688,
-.012878,-.027384,
-.011287,-.027811,
-.009646,-.027954,
-.009645,-.027954,
.009645,-.027954,
.011286,-.027811,
.012877,-.027385,
.01437,-.026689,
.015719,-.025744,
.016884,-.02458,
.017828,-.02323,
.018524,-.021738,
.018951,-.020147,
.019094,-.018506,
.019094,-.018505,
.019094,.018505,
.018951,.020146,
.018525,.021737,
.017829,.02323,
.016884,.024579,
.01572,.025744,
.01437,.026688,
.012878,.027384,
.011287,.027811,
.009646,.027954,
.009645,.027954,
0.0*
%
%ADD60MACRO60*%
%ADD15C,.025*%
%ADD67C,.018*%
%ADD66C,.0315*%
%AMMACRO62*
4,1,44,-.013775,-.005315,
.013775,-.005315,
.014254,-.005273,
.014719,-.005149,
.015155,-.004945,
.015549,-.00467,
.015889,-.004329,
.016165,-.003935,
.016369,-.003499,
.016493,-.003035,
.016535,-.002555,
.016535,-.002555,
.016535,.002555,
.016494,.003034,
.016369,.003499,
.016166,.003935,
.01589,.004329,
.01555,.004669,
.015155,.004945,
.014719,.005149,
.014255,.005273,
.013776,.005315,
.013775,.005315,
-.013775,.005315,
-.014254,.005273,
-.014719,.005149,
-.015155,.004945,
-.015549,.00467,
-.015889,.004329,
-.016165,.003935,
-.016369,.003499,
-.016493,.003035,
-.016535,.002555,
-.016535,.002555,
-.016535,-.002555,
-.016494,-.003034,
-.016369,-.003499,
-.016166,-.003935,
-.01589,-.004329,
-.01555,-.004669,
-.015156,-.004945,
-.014719,-.005149,
-.014255,-.005273,
-.013776,-.005315,
-.013775,-.005315,
0.0*
%
%ADD62MACRO62*%
%ADD53C,.043311*%
%AMMACRO41*
4,1,40,.011809,-.005118,
.011809,.005118,
.011725,.006075,
.011477,.007003,
.011071,.007874,
.010519,.008661,
.00984,.00934,
.009053,.009892,
.008182,.010298,
.007254,.010546,
.006297,.01063,
-.006297,.01063,
-.007254,.010546,
-.008182,.010298,
-.009053,.009892,
-.00984,.00934,
-.010519,.008661,
-.011071,.007874,
-.011477,.007003,
-.011725,.006075,
-.011809,.005118,
-.011809,-.005118,
-.011725,-.006075,
-.011477,-.007003,
-.011071,-.007874,
-.010519,-.008661,
-.00984,-.00934,
-.009053,-.009892,
-.008182,-.010298,
-.007254,-.010546,
-.006297,-.01063,
.006297,-.01063,
.007254,-.010546,
.008182,-.010298,
.009053,-.009892,
.00984,-.00934,
.010519,-.008661,
.011071,-.007874,
.011477,-.007003,
.011725,-.006075,
.011809,-.005118,
0.0*
%
%ADD41MACRO41*%
%AMMACRO40*
4,1,40,-.005118,-.011809,
.005118,-.011809,
.006075,-.011725,
.007003,-.011477,
.007874,-.011071,
.008661,-.010519,
.00934,-.00984,
.009892,-.009053,
.010298,-.008182,
.010546,-.007254,
.01063,-.006297,
.01063,.006297,
.010546,.007254,
.010298,.008182,
.009892,.009053,
.00934,.00984,
.008661,.010519,
.007874,.011071,
.007003,.011477,
.006075,.011725,
.005118,.011809,
-.005118,.011809,
-.006075,.011725,
-.007003,.011477,
-.007874,.011071,
-.008661,.010519,
-.00934,.00984,
-.009892,.009053,
-.010298,.008182,
-.010546,.007254,
-.01063,.006297,
-.01063,-.006297,
-.010546,-.007254,
-.010298,-.008182,
-.009892,-.009053,
-.00934,-.00984,
-.008661,-.010519,
-.007874,-.011071,
-.007003,-.011477,
-.006075,-.011725,
-.005118,-.011809,
0.0*
%
%ADD40MACRO40*%
%AMMACRO24*
4,1,44,-.013779,-.005118,
.013779,-.005118,
.014258,-.005076,
.014722,-.004952,
.015157,-.004749,
.015551,-.004474,
.01589,-.004134,
.016166,-.00374,
.016369,-.003305,
.016494,-.002841,
.016535,-.002362,
.016535,-.002362,
.016535,.002362,
.016494,.002841,
.016369,.003305,
.016166,.00374,
.015891,.004134,
.015551,.004473,
.015158,.004749,
.014722,.004952,
.014258,.005076,
.01378,.005118,
.013779,.005118,
-.013779,.005118,
-.014258,.005076,
-.014722,.004952,
-.015157,.004749,
-.015551,.004474,
-.01589,.004134,
-.016166,.00374,
-.016369,.003305,
-.016494,.002841,
-.016535,.002362,
-.016535,.002362,
-.016535,-.002362,
-.016494,-.002841,
-.016369,-.003305,
-.016166,-.00374,
-.015891,-.004134,
-.015551,-.004473,
-.015158,-.004749,
-.014722,-.004952,
-.014258,-.005076,
-.01378,-.005118,
-.013779,-.005118,
0.0*
%
%ADD24MACRO24*%
%AMMACRO16*
4,1,5,.047244,-.02953,
.047244,.021659,
.039374,.02953,
-.047244,.02953,
-.047244,-.02953,
.047244,-.02953,
0.0*
%
%ADD16MACRO16*%
%AMMACRO70*
4,1,44,-.006301,-.02008,
.006301,-.02008,
.007395,-.019985,
.008455,-.019701,
.009451,-.019237,
.01035,-.018607,
.011126,-.017831,
.011756,-.016931,
.01222,-.015936,
.012505,-.014876,
.0126,-.013782,
.0126,-.013781,
.0126,.013781,
.012505,.014875,
.012221,.015935,
.011757,.016931,
.011127,.01783,
.010351,.018606,
.009451,.019236,
.008456,.0197,
.007396,.019985,
.006302,.02008,
.006301,.02008,
-.006301,.02008,
-.007395,.019985,
-.008455,.019701,
-.009451,.019237,
-.01035,.018607,
-.011126,.017831,
-.011756,.016931,
-.01222,.015936,
-.012505,.014876,
-.0126,.013782,
-.0126,.013781,
-.0126,-.013781,
-.012505,-.014875,
-.012221,-.015935,
-.011757,-.016931,
-.011127,-.01783,
-.010351,-.018606,
-.009451,-.019236,
-.008456,-.0197,
-.007396,-.019985,
-.006302,-.02008,
-.006301,-.02008,
0.0*
%
%ADD70MACRO70*%
%ADD18R,.03937X.011811*%
%AMMACRO46*
4,1,44,-.00748,-.006693,
.00748,-.006693,
.008095,-.006639,
.008692,-.00648,
.009252,-.006219,
.009758,-.005864,
.010194,-.005428,
.010549,-.004922,
.01081,-.004362,
.01097,-.003766,
.011023,-.00315,
.011023,-.00315,
.011023,.00315,
.01097,.003765,
.01081,.004362,
.010549,.004921,
.010195,.005427,
.009758,.005864,
.009252,.006218,
.008692,.006479,
.008096,.006639,
.007481,.006693,
.00748,.006693,
-.00748,.006693,
-.008095,.006639,
-.008692,.00648,
-.009252,.006219,
-.009758,.005864,
-.010194,.005428,
-.010549,.004922,
-.01081,.004362,
-.01097,.003766,
-.011023,.00315,
-.011023,.00315,
-.011023,-.00315,
-.01097,-.003765,
-.01081,-.004362,
-.010549,-.004921,
-.010195,-.005427,
-.009758,-.005864,
-.009252,-.006218,
-.008692,-.006479,
-.008096,-.006639,
-.007481,-.006693,
-.00748,-.006693,
0.0*
%
%ADD46MACRO46*%
%ADD68R,.037402X.03937*%
%AMMACRO65*
4,1,44,-.009844,-.01575,
.009844,-.01575,
.011211,-.015631,
.012536,-.015276,
.013779,-.014696,
.014903,-.013909,
.015873,-.012939,
.01666,-.011815,
.01724,-.010572,
.017595,-.009247,
.017714,-.00788,
.017714,-.00788,
.017714,.00788,
.017595,.009247,
.01724,.010572,
.01666,.011815,
.015873,.012939,
.014903,.013909,
.01378,.014696,
.012536,.015275,
.011211,.01563,
.009845,.01575,
.009844,.01575,
-.009844,.01575,
-.011211,.015631,
-.012536,.015276,
-.013779,.014696,
-.014903,.013909,
-.015873,.012939,
-.01666,.011815,
-.01724,.010572,
-.017595,.009247,
-.017714,.00788,
-.017714,.00788,
-.017714,-.00788,
-.017595,-.009247,
-.01724,-.010572,
-.01666,-.011815,
-.015873,-.012939,
-.014903,-.013909,
-.01378,-.014696,
-.012536,-.015275,
-.011211,-.01563,
-.009845,-.01575,
-.009844,-.01575,
0.0*
%
%ADD65MACRO65*%
%ADD63R,.03937X.037402*%
%AMMACRO39*
4,1,44,.011809,-.004925,
.011809,.004925,
.011737,.005745,
.011525,.006539,
.011177,.007285,
.010705,.007959,
.010123,.008541,
.009449,.009013,
.008704,.009361,
.007909,.009574,
.007089,.009645,
.007089,.009645,
-.007089,.009645,
-.007909,.009574,
-.008703,.009361,
-.009449,.009013,
-.010123,.008541,
-.010705,.007959,
-.011177,.007286,
-.011524,.00654,
-.011737,.005745,
-.011809,.004926,
-.011809,.004925,
-.011809,-.004925,
-.011737,-.005745,
-.011525,-.006539,
-.011177,-.007285,
-.010705,-.007959,
-.010123,-.008541,
-.009449,-.009013,
-.008704,-.009361,
-.007909,-.009574,
-.007089,-.009645,
-.007089,-.009645,
.007089,-.009645,
.007909,-.009574,
.008703,-.009361,
.009449,-.009013,
.010123,-.008541,
.010705,-.007959,
.011177,-.007286,
.011524,-.00654,
.011737,-.005745,
.011809,-.004926,
.011809,-.004925,
0.0*
%
%ADD39MACRO39*%
%ADD19R,.027559X.011811*%
%AMMACRO13*
4,1,44,-.004925,-.011809,
.004925,-.011809,
.005745,-.011737,
.006539,-.011525,
.007285,-.011177,
.007959,-.010705,
.008541,-.010123,
.009013,-.009449,
.009361,-.008704,
.009574,-.007909,
.009645,-.007089,
.009645,-.007089,
.009645,.007089,
.009574,.007909,
.009361,.008703,
.009013,.009449,
.008541,.010123,
.007959,.010705,
.007286,.011177,
.00654,.011524,
.005745,.011737,
.004926,.011809,
.004925,.011809,
-.004925,.011809,
-.005745,.011737,
-.006539,.011525,
-.007285,.011177,
-.007959,.010705,
-.008541,.010123,
-.009013,.009449,
-.009361,.008704,
-.009574,.007909,
-.009645,.007089,
-.009645,.007089,
-.009645,-.007089,
-.009574,-.007909,
-.009361,-.008703,
-.009013,-.009449,
-.008541,-.010123,
-.007959,-.010705,
-.007286,-.011177,
-.00654,-.011524,
-.005745,-.011737,
-.004926,-.011809,
-.004925,-.011809,
0.0*
%
%ADD13MACRO13*%
%AMMACRO55*
4,1,44,-.007285,-.01673,
.007285,-.01673,
.008584,-.016617,
.009843,-.01628,
.011025,-.015729,
.012093,-.014981,
.013015,-.014059,
.013763,-.012991,
.014314,-.011809,
.014652,-.01055,
.014765,-.009251,
.014765,-.00925,
.014765,.00925,
.014652,.010549,
.014315,.011808,
.013764,.01299,
.013016,.014058,
.012094,.01498,
.011026,.015728,
.009844,.016279,
.008585,.016617,
.007286,.01673,
.007285,.01673,
-.007285,.01673,
-.008584,.016617,
-.009843,.01628,
-.011025,.015729,
-.012093,.014981,
-.013015,.014059,
-.013763,.012991,
-.014314,.011809,
-.014652,.01055,
-.014765,.009251,
-.014765,.00925,
-.014765,-.00925,
-.014652,-.010549,
-.014315,-.011808,
-.013764,-.01299,
-.013016,-.014058,
-.012094,-.01498,
-.011026,-.015728,
-.009844,-.016279,
-.008585,-.016617,
-.007286,-.01673,
-.007285,-.01673,
0.0*
%
%ADD55MACRO55*%
%AMMACRO14*
4,1,44,.008269,-.011614,
.008269,.011614,
.008204,.012366,
.008008,.013095,
.007689,.01378,
.007256,.014398,
.006722,.014932,
.006104,.015365,
.00542,.015684,
.004691,.015879,
.003939,.015945,
.003938,.015945,
-.003938,.015945,
-.00469,.015879,
-.005419,.015684,
-.006104,.015365,
-.006722,.014932,
-.007256,.014398,
-.007689,.01378,
-.008008,.013096,
-.008204,.012367,
-.008269,.011614,
-.008269,.011614,
-.008269,-.011614,
-.008204,-.012366,
-.008008,-.013095,
-.007689,-.013779,
-.007256,-.014398,
-.006722,-.014932,
-.006104,-.015365,
-.00542,-.015684,
-.004691,-.015879,
-.003939,-.015945,
-.003938,-.015945,
.003938,-.015945,
.00469,-.015879,
.005419,-.015684,
.006104,-.015365,
.006722,-.014932,
.007256,-.014398,
.007689,-.01378,
.008008,-.013096,
.008204,-.012367,
.008269,-.011614,
.008269,-.011614,
0.0*
%
%ADD14MACRO14*%
%AMMACRO27*
4,1,44,-.008858,-.018305,
.008858,-.018305,
.010362,-.018174,
.01182,-.017783,
.013189,-.017145,
.014425,-.016279,
.015493,-.015212,
.016359,-.013975,
.016997,-.012607,
.017388,-.011148,
.017519,-.009644,
.017519,-.009644,
.017519,.009644,
.017388,.011148,
.016997,.012606,
.016359,.013974,
.015493,.015211,
.014426,.016279,
.013189,.017145,
.011821,.017783,
.010362,.018173,
.008859,.018305,
.008858,.018305,
-.008858,.018305,
-.010362,.018174,
-.01182,.017783,
-.013189,.017145,
-.014425,.016279,
-.015493,.015212,
-.016359,.013975,
-.016997,.012607,
-.017388,.011148,
-.017519,.009644,
-.017519,.009644,
-.017519,-.009644,
-.017388,-.011148,
-.016997,-.012606,
-.016359,-.013974,
-.015493,-.015211,
-.014426,-.016279,
-.013189,-.017145,
-.011821,-.017783,
-.010362,-.018173,
-.008859,-.018305,
-.008858,-.018305,
0.0*
%
%ADD27MACRO27*%
%AMMACRO25*
4,1,44,.018305,-.008858,
.018305,.008858,
.018174,.010362,
.017783,.01182,
.017145,.013189,
.016279,.014425,
.015212,.015493,
.013975,.016359,
.012607,.016997,
.011148,.017388,
.009644,.017519,
.009644,.017519,
-.009644,.017519,
-.011148,.017388,
-.012606,.016997,
-.013974,.016359,
-.015211,.015493,
-.016279,.014426,
-.017145,.013189,
-.017783,.011821,
-.018173,.010362,
-.018305,.008859,
-.018305,.008858,
-.018305,-.008858,
-.018174,-.010362,
-.017783,-.01182,
-.017145,-.013189,
-.016279,-.014425,
-.015212,-.015493,
-.013975,-.016359,
-.012607,-.016997,
-.011148,-.017388,
-.009644,-.017519,
-.009644,-.017519,
.009644,-.017519,
.011148,-.017388,
.012606,-.016997,
.013974,-.016359,
.015211,-.015493,
.016279,-.014426,
.017145,-.013189,
.017783,-.011821,
.018173,-.010362,
.018305,-.008859,
.018305,-.008858,
0.0*
%
%ADD25MACRO25*%
%ADD22R,.084252X.084252*%
%AMMACRO11*
4,1,44,-.015751,-.02559,
.015751,-.02559,
.01746,-.025441,
.019116,-.024997,
.020671,-.024273,
.022076,-.023289,
.023288,-.022076,
.024272,-.020671,
.024997,-.019117,
.025441,-.017461,
.02559,-.015752,
.02559,-.015751,
.02559,.015751,
.025441,.01746,
.024997,.019116,
.024273,.020671,
.023289,.022076,
.022076,.023288,
.020671,.024272,
.019117,.024997,
.017461,.025441,
.015752,.02559,
.015751,.02559,
-.015751,.02559,
-.01746,.025441,
-.019116,.024997,
-.020671,.024273,
-.022076,.023289,
-.023288,.022076,
-.024272,.020671,
-.024997,.019117,
-.025441,.017461,
-.02559,.015752,
-.02559,.015751,
-.02559,-.015751,
-.025441,-.01746,
-.024997,-.019116,
-.024273,-.020671,
-.023289,-.022076,
-.022076,-.023288,
-.020671,-.024272,
-.019117,-.024997,
-.017461,-.025441,
-.015752,-.02559,
-.015751,-.02559,
0.0*
%
%ADD11MACRO11*%
%AMMACRO32*
4,1,40,.011809,-.003933,
.011809,.003933,
.011749,.004617,
.011571,.005281,
.011281,.005903,
.010887,.006466,
.010401,.006952,
.009839,.007346,
.009216,.007636,
.008552,.007814,
.007868,.007874,
-.007868,.007874,
-.008552,.007814,
-.009216,.007636,
-.009839,.007346,
-.010401,.006952,
-.010887,.006466,
-.011281,.005904,
-.011571,.005281,
-.011749,.004617,
-.011809,.003933,
-.011809,-.003933,
-.011749,-.004617,
-.011571,-.005281,
-.011281,-.005903,
-.010887,-.006466,
-.010401,-.006952,
-.009839,-.007346,
-.009216,-.007636,
-.008552,-.007814,
-.007868,-.007874,
.007868,-.007874,
.008552,-.007814,
.009216,-.007636,
.009838,-.007346,
.010401,-.006952,
.010887,-.006466,
.011281,-.005904,
.011571,-.005281,
.011749,-.004617,
.011809,-.003933,
0.0*
%
%ADD32MACRO32*%
%AMMACRO29*
4,1,40,-.003933,-.011809,
.003933,-.011809,
.004617,-.011749,
.005281,-.011571,
.005903,-.011281,
.006466,-.010887,
.006952,-.010401,
.007346,-.009839,
.007636,-.009216,
.007814,-.008552,
.007874,-.007868,
.007874,.007868,
.007814,.008552,
.007636,.009216,
.007346,.009839,
.006952,.010401,
.006466,.010887,
.005904,.011281,
.005281,.011571,
.004617,.011749,
.003933,.011809,
-.003933,.011809,
-.004617,.011749,
-.005281,.011571,
-.005903,.011281,
-.006466,.010887,
-.006952,.010401,
-.007346,.009839,
-.007636,.009216,
-.007814,.008552,
-.007874,.007868,
-.007874,-.007868,
-.007814,-.008552,
-.007636,-.009216,
-.007346,-.009838,
-.006952,-.010401,
-.006466,-.010887,
-.005904,-.011281,
-.005281,-.011571,
-.004617,-.011749,
-.003933,-.011809,
0.0*
%
%ADD29MACRO29*%
%AMMACRO56*
4,1,44,.012399,-.005317,
.012399,.005317,
.012322,.006206,
.012091,.007067,
.011714,.007876,
.011202,.008607,
.010571,.009238,
.009841,.009749,
.009032,.010126,
.00817,.010357,
.007282,.010435,
.007281,.010435,
-.007281,.010435,
-.00817,.010357,
-.009031,.010127,
-.00984,.00975,
-.010571,.009238,
-.011202,.008607,
-.011714,.007876,
-.012091,.007068,
-.012322,.006206,
-.012399,.005317,
-.012399,.005317,
-.012399,-.005317,
-.012322,-.006206,
-.012091,-.007067,
-.011714,-.007876,
-.011202,-.008607,
-.010571,-.009238,
-.009841,-.009749,
-.009032,-.010126,
-.00817,-.010357,
-.007282,-.010435,
-.007281,-.010435,
.007281,-.010435,
.00817,-.010357,
.009031,-.010127,
.00984,-.00975,
.010571,-.009238,
.011202,-.008607,
.011714,-.007876,
.012091,-.007068,
.012322,-.006206,
.012399,-.005317,
.012399,-.005317,
0.0*
%
%ADD56MACRO56*%
%AMMACRO50*
4,1,40,.007874,-.019484,
.007874,.019484,
.007814,.020168,
.007636,.020832,
.007346,.021455,
.006952,.022017,
.006466,.022503,
.005904,.022897,
.005281,.023187,
.004617,.023365,
.003933,.023425,
-.003933,.023425,
-.004617,.023365,
-.005281,.023187,
-.005903,.022897,
-.006466,.022503,
-.006952,.022017,
-.007346,.021455,
-.007636,.020832,
-.007814,.020168,
-.007874,.019484,
-.007874,-.019484,
-.007814,-.020168,
-.007636,-.020832,
-.007346,-.021454,
-.006952,-.022017,
-.006466,-.022503,
-.005904,-.022897,
-.005281,-.023187,
-.004617,-.023365,
-.003933,-.023425,
.003933,-.023425,
.004617,-.023365,
.005281,-.023187,
.005903,-.022897,
.006466,-.022503,
.006952,-.022017,
.007346,-.021455,
.007636,-.020832,
.007814,-.020168,
.007874,-.019484,
0.0*
%
%ADD50MACRO50*%
%AMMACRO36*
4,1,44,.019094,-.009051,
.019094,.009051,
.018957,.010624,
.018548,.012149,
.017881,.01358,
.016975,.014874,
.015859,.015991,
.014565,.016896,
.013134,.017564,
.011609,.017972,
.010036,.01811,
.010035,.01811,
-.010035,.01811,
-.011608,.017972,
-.013133,.017564,
-.014565,.016897,
-.015858,.015991,
-.016975,.014874,
-.017881,.013581,
-.018548,.01215,
-.018957,.010625,
-.019094,.009051,
-.019094,.009051,
-.019094,-.009051,
-.018957,-.010624,
-.018548,-.012149,
-.017881,-.01358,
-.016975,-.014874,
-.015859,-.015991,
-.014565,-.016896,
-.013134,-.017564,
-.011609,-.017972,
-.010036,-.01811,
-.010035,-.01811,
.010035,-.01811,
.011608,-.017972,
.013133,-.017564,
.014565,-.016897,
.015858,-.015991,
.016975,-.014874,
.017881,-.013581,
.018548,-.01215,
.018957,-.010625,
.019094,-.009051,
.019094,-.009051,
0.0*
%
%ADD36MACRO36*%
%AMMACRO64*
4,1,44,-.013188,-.035827,
.013188,-.035827,
.014897,-.035678,
.016555,-.035234,
.01811,-.034509,
.019515,-.033524,
.020728,-.032311,
.021713,-.030906,
.022438,-.029351,
.022882,-.027694,
.023031,-.025984,
.023031,-.025984,
.023031,.025984,
.022882,.027693,
.022438,.029351,
.021713,.030906,
.020729,.032311,
.019515,.033524,
.01811,.034508,
.016555,.035233,
.014898,.035677,
.013189,.035827,
.013188,.035827,
-.013188,.035827,
-.014897,.035678,
-.016555,.035234,
-.01811,.034509,
-.019515,.033524,
-.020728,.032311,
-.021713,.030906,
-.022438,.029351,
-.022882,.027694,
-.023031,.025984,
-.023031,.025984,
-.023031,-.025984,
-.022882,-.027693,
-.022438,-.029351,
-.021713,-.030905,
-.020729,-.032311,
-.019515,-.033524,
-.01811,-.034508,
-.016555,-.035233,
-.014898,-.035677,
-.013189,-.035827,
-.013188,-.035827,
0.0*
%
%ADD64MACRO64*%
%AMMACRO35*
4,1,40,.028935,-.011226,
.028935,.011226,
.028786,.012935,
.028342,.014591,
.027617,.016146,
.026633,.01755,
.02542,.018763,
.024016,.019747,
.022461,.020472,
.020805,.020916,
.019096,.021065,
-.019096,.021065,
-.020805,.020916,
-.022461,.020472,
-.024015,.019747,
-.02542,.018763,
-.026633,.01755,
-.027617,.016146,
-.028342,.014591,
-.028786,.012935,
-.028935,.011226,
-.028935,-.011226,
-.028786,-.012935,
-.028342,-.014591,
-.027617,-.016145,
-.026633,-.01755,
-.02542,-.018763,
-.024016,-.019747,
-.022461,-.020472,
-.020805,-.020916,
-.019096,-.021065,
.019096,-.021065,
.020805,-.020916,
.022461,-.020472,
.024015,-.019747,
.02542,-.018763,
.026633,-.01755,
.027617,-.016146,
.028342,-.014591,
.028786,-.012935,
.028935,-.011226,
0.0*
%
%ADD35MACRO35*%
%ADD57R,.03937X.019689*%
%ADD78C,.001*%
G75*
%LPD*%
G75*
G54D10*
X-35500Y-63196D03*
Y112000D03*
X6657Y-63196D03*
Y112000D03*
G54D11*
X-42539Y-58437D03*
Y-50563D03*
G54D20*
X-41366Y20540D03*
Y16958D03*
Y27232D03*
Y23650D03*
X-26942Y-13977D03*
Y-17559D03*
X-26037Y48008D03*
Y44426D03*
X-26143Y82055D03*
Y85636D03*
X-1024Y-16693D03*
Y-20275D03*
X-4540Y19319D03*
Y15738D03*
Y26011D03*
Y22429D03*
X13989Y46287D03*
Y42706D03*
G54D30*
X-30699Y44875D03*
X-38101D03*
X1925Y43154D03*
X9327D03*
G54D12*
X-34665Y-58437D03*
Y-50563D03*
G54D21*
X-43728Y9272D03*
Y5728D03*
X-29552Y9272D03*
Y5728D03*
X-33096Y9272D03*
Y5728D03*
X-40184Y9272D03*
Y5728D03*
X-36640Y9272D03*
Y5728D03*
X-42870Y66474D03*
Y70018D03*
X-25688Y-48780D03*
Y-52324D03*
X-29232Y-48780D03*
Y-52324D03*
X-21510Y9272D03*
Y5728D03*
X-17965Y9272D03*
Y5728D03*
X-14421Y9272D03*
Y5728D03*
X-22560Y92351D03*
Y88807D03*
X-25566Y92351D03*
Y88807D03*
X-2834Y9272D03*
Y5728D03*
X710Y9272D03*
Y5728D03*
X-10877Y9272D03*
Y5728D03*
X11341Y9272D03*
Y5728D03*
X7797Y9272D03*
Y5728D03*
X4253Y9272D03*
Y5728D03*
X10896Y80815D03*
Y84359D03*
G54D22*
X-29900Y22094D03*
X6326Y20874D03*
G54D13*
X-41235Y-45346D03*
X-37653D03*
X-42171Y75737D03*
X-38589D03*
X-24971Y69991D03*
X-21389D03*
X-1241Y-43760D03*
X2340D03*
G54D40*
X-14822Y-57715D03*
X-11437D03*
X-11476Y-61259D03*
X-8091D03*
X-643Y-13262D03*
Y-9718D03*
X2743Y-13262D03*
Y-9718D03*
G54D31*
X-33745Y53598D03*
Y67472D03*
G54D50*
X-14716Y64475D03*
X-17275D03*
X-12157D03*
G54D32*
X-42826Y56974D03*
Y60518D03*
X-26008Y5728D03*
Y9272D03*
X-22560Y82507D03*
X-28860Y88807D03*
Y92351D03*
X-22560Y86051D03*
X-4665Y-64409D03*
Y-60865D03*
X-7333Y5728D03*
Y9272D03*
X796Y63392D03*
Y66936D03*
X14885Y5728D03*
Y9272D03*
X7884Y63392D03*
Y66936D03*
X4340Y63392D03*
Y66936D03*
G54D14*
X-36712Y-41918D03*
X-40649D03*
X-44586D03*
G54D41*
X-14528Y-52107D03*
Y-48721D03*
X-7284Y-52107D03*
Y-48721D03*
X5315Y-54074D03*
Y-50688D03*
G54D23*
X-30884Y15441D03*
X-32853D03*
Y28748D03*
X-30884D03*
X-26947Y15441D03*
X-28916D03*
Y28748D03*
X-26947D03*
X9279Y14221D03*
X7310D03*
X5342D03*
X3373D03*
Y27528D03*
X5342D03*
X7310D03*
X9279D03*
G54D24*
X-36554Y19142D03*
Y21110D03*
Y23079D03*
Y25047D03*
X-23246Y19142D03*
Y25047D03*
Y23079D03*
Y21110D03*
X-328Y17921D03*
Y19890D03*
Y21858D03*
Y23827D03*
X12980Y19890D03*
Y17921D03*
Y23827D03*
Y21858D03*
G54D15*
X-44300Y-26815D03*
X-36640Y3350D03*
X-40184D03*
X-43728D03*
X-29552D03*
X-33096D03*
X-26008D03*
X-21510D03*
X-17966D03*
X-14421D03*
X0Y-28500D03*
X1537Y-31552D03*
X201Y-36431D03*
Y-40931D03*
X-7333Y3350D03*
X-10877D03*
X-2834D03*
X710D03*
X2701Y-38431D03*
Y-34431D03*
X4253Y3350D03*
X14885D03*
X7797D03*
X11341D03*
X8149Y97267D03*
Y104471D03*
G54D60*
X-7334Y49010D03*
G54D42*
X-14804Y-43523D03*
X-16378D03*
X-17953D03*
X-19528D03*
X-21103D03*
X-22678D03*
X-24252D03*
Y-20295D03*
X-22678D03*
X-21103D03*
X-19528D03*
X-17953D03*
X-16378D03*
X-14804D03*
X-6930Y-43523D03*
X-8504D03*
X-10080D03*
X-11654D03*
X-13230D03*
Y-20295D03*
X-11654D03*
X-10080D03*
X-8504D03*
X-6930D03*
G54D33*
X-31147Y79555D03*
X-32721D03*
X-34296D03*
X-31147Y81130D03*
X-32721D03*
X-34296D03*
X-31147Y82705D03*
X-32721D03*
X-34296D03*
X-31147Y84280D03*
X-32721D03*
X-34296D03*
X-31147Y85855D03*
X-32721D03*
X-34296D03*
X-29572Y79555D03*
Y81130D03*
Y82705D03*
Y84280D03*
Y85855D03*
G54D51*
X-14990Y78473D03*
Y91269D03*
G54D25*
X-43629Y34249D03*
X-25171D03*
X-3603Y32528D03*
X14855D03*
G54D70*
X5795Y-28430D03*
G54D16*
X-40649Y-36209D03*
G54D52*
X-17275Y72034D03*
X-12157D03*
G54D43*
X-15591Y-31909D03*
G54D34*
X-31995Y74465D03*
X-35381D03*
X-34286Y92745D03*
X-37671D03*
G54D61*
X994Y80481D03*
G54D35*
X-39828Y80618D03*
Y87862D03*
G54D53*
X-21252Y111294D03*
X-12590D03*
G54D62*
X-4695Y76544D03*
Y78512D03*
Y80481D03*
Y82450D03*
Y84418D03*
G54D44*
X-27206Y-40570D03*
Y-38996D03*
Y-37421D03*
Y-35846D03*
Y-34271D03*
Y-32696D03*
Y-31122D03*
Y-29547D03*
Y-27972D03*
Y-26397D03*
Y-24822D03*
Y-23248D03*
X-3977Y-26397D03*
Y-27972D03*
Y-29547D03*
Y-31122D03*
Y-32696D03*
Y-34271D03*
Y-35846D03*
Y-37421D03*
Y-38996D03*
Y-40570D03*
Y-23248D03*
Y-24822D03*
G54D26*
X-31369Y34327D03*
X8657Y32607D03*
X5324Y70953D03*
G54D17*
X-44586Y-30500D03*
X-40649D03*
X-36712D03*
G54D71*
X10835Y-28430D03*
G54D36*
X-42091Y99261D03*
G54D27*
X-37431Y34327D03*
X-738Y70953D03*
X2595Y32607D03*
G54D63*
X-5237Y98729D03*
Y105029D03*
G54D18*
X-43541Y-21032D03*
Y-4968D03*
G54D54*
X-4665Y-57715D03*
X-8209D03*
G54D72*
X11102Y-21382D03*
X3858D03*
G54D45*
X-15656Y25650D03*
X-19238D03*
X520Y48457D03*
X-3062D03*
G54D64*
X826Y93659D03*
G54D55*
X-3051Y-53051D03*
Y-47381D03*
X1083D03*
Y-53051D03*
G54D19*
X-33108Y-17921D03*
Y-15953D03*
Y-13984D03*
Y-12016D03*
Y-10047D03*
Y-8079D03*
G54D46*
X-19167Y33327D03*
Y35296D03*
Y37264D03*
Y39233D03*
G54D73*
X6413Y49866D03*
Y51244D03*
Y52622D03*
Y54000D03*
G54D37*
X-35476Y97627D03*
X-27680D03*
X-35476Y104871D03*
X-27680D03*
X-19884Y97627D03*
X-12088D03*
X-19884Y104871D03*
X-12088D03*
G54D28*
X-43629Y40311D03*
X-25171D03*
X-3603Y38591D03*
X14855D03*
G54D56*
X-10906Y-52107D03*
Y-48563D03*
G54D29*
X-39322Y38737D03*
X-35778D03*
X-33022Y38737D03*
X-29478D03*
X-26576Y78491D03*
X-23032D03*
X704Y37016D03*
X-3239Y52001D03*
X305D03*
X-3239Y59089D03*
X305D03*
X-3239Y55545D03*
X305D03*
X-8220Y70830D03*
X-4676D03*
X7004Y37017D03*
X10548D03*
X4248Y37016D03*
X9262Y87509D03*
X12806D03*
G54D65*
X275Y104119D03*
X8149Y107721D03*
Y100517D03*
G54D38*
X-42091Y105363D03*
G54D47*
X-14814Y49010D03*
G54D74*
X8500Y51244D03*
Y54000D03*
Y52622D03*
G54D57*
X-5446Y-15499D03*
Y-11169D03*
G54D39*
X-25688Y-58839D03*
X-29232D03*
X-25688Y-55257D03*
X-29232D03*
G54D66*
X14924Y-57075D03*
Y-52925D03*
X14913Y-48945D03*
Y-42055D03*
G54D48*
X-21212Y66447D03*
X-24756D03*
X-4676Y67286D03*
X-8220D03*
X-4676Y63742D03*
X-8220D03*
G54D75*
X8480Y49866D03*
G54D67*
X3787Y-67756D03*
X12055D03*
G54D58*
X-14403Y36280D03*
G54D49*
X-22136Y54660D03*
Y58794D03*
X-9538Y54660D03*
Y58794D03*
G54D76*
X6683Y82450D03*
Y80481D03*
Y78512D03*
Y76544D03*
Y84418D03*
G54D68*
X13000Y-34533D03*
X6700D03*
G54D77*
X12401Y93659D03*
G54D59*
X-9639Y35296D03*
Y33327D03*
Y39233D03*
Y37264D03*
G54D78*
G01X-46984Y-90000D02*
X18016D01*
Y115000D01*
X-46984D01*
Y-90000D01*
G54D69*
X14654Y-30006D03*
Y-26462D03*
M02*
