G04 ================== begin FILE IDENTIFICATION RECORD ==================*
G04 Layout Name:  1010309-900-0012_Rev-A.brd*
G04 Film Name:    1010309-900-0012_Rev-AL2_GND*
G04 File Format:  Gerber RS274X*
G04 File Origin:  Cadence Allegro 17.2-061*
G04 Origin Date:  Mon Aug 31 14:47:59 2020*
G04 *
G04 Layer:  VIA CLASS/L2 - GND*
G04 Layer:  PIN/L2 - GND*
G04 Layer:  ETCH/L2 - GND*
G04 Layer:  BOARD GEOMETRY/DESIGN_OUTLINE*
G04 Layer:  BOARD GEOMETRY/CUTOUT*
G04 *
G04 Offset:    (0.000 0.000)*
G04 Mirror:    No*
G04 Mode:      Positive*
G04 Rotation:  0*
G04 FullContactRelief:  No*
G04 UndefLineWidth:     0.000*
G04 ================== end FILE IDENTIFICATION RECORD ====================*
%FSLAX25Y25*MOIN*%
%IR0*IPPOS*OFA0.00000B0.00000*MIA0B0*SFA1.00000B1.00000*%
%ADD10O,.187012X.029531*%
%ADD11C,.0215*%
%ADD13C,.018*%
%ADD12C,.043311*%
%ADD14C,.006*%
%ADD15C,.02*%
%ADD16C,.030004*%
G75*
%LPD*%
G75*
G36*
G01X-15697Y113500D02*
G03X-15628Y113508I0J300D01*
G01X-15532Y113531D01*
X-15351Y113455D01*
X-15034Y112922D01*
G02X-15000Y112695I-258J-154D01*
G01X-15021Y112615D01*
X-15037Y112583D01*
G03X-15356Y111294I2447J-1289D01*
G03X-9824Y111294I2766J0D01*
G03X-10143Y112583I-2766J0D01*
G01X-10160Y112615D01*
X-10180Y112695D01*
G02X-10147Y112922I291J74D01*
G01X-9890Y113354D01*
G02X-9632Y113500I258J-153D01*
G01X-3738D01*
G02X-3492Y113373I0J-300D01*
G01X-3211Y112974D01*
G02X-3202Y112960I-245J-172D01*
G01X-3201Y112958D01*
G02X-3157Y112831I-254J-159D01*
G01X-3150Y112763D01*
X-3173Y112698D01*
G03X-1217Y109923I1956J-698D01*
G01X14531D01*
G03X15715Y110294I0J2077D01*
G01X15784Y110342D01*
X15951Y110352D01*
X16496Y110067D01*
G02X16657Y109801I-139J-266D01*
G01Y108671D01*
G02X16521Y108420I-300J0D01*
G01X16037Y108104D01*
X15885Y108091D01*
X15816Y108122D01*
G03X14000Y108504I-1816J-4122D01*
G03X9924Y105917I0J-4504D01*
G01X9895Y105856D01*
X9792Y105771D01*
X9280Y105638D01*
G02X9274Y105637I-77J290D01*
G02X9030Y105685I-69J292D01*
G01X9021Y105692D01*
X9011Y105699D01*
G03X8149Y105972I-863J-1227D01*
G03Y102971I0J-1500D01*
G03X8823Y103131I0J1500D01*
G02X9078Y103138I135J-268D01*
G01X9563Y102926D01*
X9651Y102825D01*
X9670Y102761D01*
G03X14000Y99496I4330J1240D01*
G03X15816Y99878I0J4504D01*
G01X15885Y99909D01*
X16037Y99896D01*
X16521Y99580D01*
G02X16657Y99329I-164J-251D01*
G01Y78671D01*
G02X16521Y78420I-300J0D01*
G01X16037Y78104D01*
X15885Y78091D01*
X15816Y78122D01*
G03X14000Y78504I-1816J-4122D01*
G03X9496Y74000I0J-4504D01*
G03X9510Y73646I4504J1D01*
G01X9515Y73585D01*
X9495Y73527D01*
G02X9435Y73423I-284J95D01*
G01X9108Y73054D01*
X8998Y73002D01*
X8937Y72999D01*
G03X7500Y71500I63J-1499D01*
G03X9000Y70000I1500J0D01*
G03X10153Y70540I0J1500D01*
G01X10157Y70546D01*
X10161Y70550D01*
G02X10369Y70659I232J-190D01*
G01X10800Y70694D01*
G02X11022Y70621I24J-299D01*
G03X14000Y69496I2978J3379D01*
G03X15816Y69878I0J4504D01*
G01X15885Y69909D01*
X16037Y69896D01*
X16521Y69580D01*
G02X16657Y69329I-164J-251D01*
G01Y2168D01*
G02X16499Y1903I-300J0D01*
G01X15958Y1615D01*
X15792Y1623D01*
X15723Y1670D01*
G03X14885Y1925I-837J-1245D01*
G03X14885Y-1075I0J-1500D01*
G03X15723Y-820I0J1500D01*
G01X15792Y-773D01*
X15958Y-765D01*
X16499Y-1053D01*
G02X16657Y-1318I-141J-265D01*
G01Y-39959D01*
G02X16510Y-40217I-300J0D01*
G01X16076Y-40475D01*
G02X15856Y-40509I-153J258D01*
G01X15783Y-40492D01*
X15748Y-40474D01*
G03X14913Y-40267I-835J-1581D01*
G03Y-43843I0J-1788D01*
G03X15770Y-43624I0J1788D01*
G02X15919Y-43588I144J-263D01*
G01X15999Y-43589D01*
X16510Y-43893D01*
G02X16657Y-44151I-153J-258D01*
G01Y-46849D01*
G02X16510Y-47107I-300J0D01*
G01X16067Y-47370D01*
G02X15771Y-47376I-153J258D01*
G01X15742Y-47361D01*
X15710Y-47344D01*
G03X14913Y-47157I-796J-1600D01*
G03X13126Y-48945I0J-1788D01*
G03X13930Y-50438I1788J0D01*
G01X13993Y-50479D01*
X14065Y-50612D01*
X14066Y-51179D01*
G02X13978Y-51392I-300J-1D01*
G01X13933Y-51437D01*
X13911Y-51453D01*
G03X13136Y-52925I1013J-1473D01*
G03X14039Y-54479I1788J0D01*
G01X14110Y-54519D01*
X14191Y-54658D01*
Y-55342D01*
X14110Y-55481D01*
X14039Y-55521D01*
G03X13136Y-57075I885J-1553D01*
G03X14924Y-58862I1788J0D01*
G03X15713Y-58679I0J1788D01*
G01X15744Y-58664D01*
X15811Y-58648D01*
X15975D01*
G02X16121Y-58686I0J-300D01*
G01X16126Y-58689D01*
X16466Y-58892D01*
G02X16525Y-58937I-154J-258D01*
G01X16570Y-58982D01*
G02X16657Y-59194I-212J-212D01*
G01Y-60997D01*
G02X16496Y-61263I-300J0D01*
G01X16128Y-61455D01*
G02X15989Y-61490I-139J266D01*
G01X15764D01*
X15682Y-61466D01*
X15646Y-61443D01*
G03X14532Y-61119I-1113J-1753D01*
G01X-1217D01*
G03Y-65273I0J-2077D01*
G01X9719D01*
G02X9990Y-65443I0J-300D01*
G01X10224Y-65932D01*
G02X10251Y-66096I-271J-129D01*
G02X10187Y-66249I-298J35D01*
G03X9655Y-67756I1868J-1507D01*
G03X9672Y-68046I2400J0D01*
G01X9674Y-68055D01*
X9680Y-68102D01*
X9675Y-68141D01*
G02X9600Y-68303I-297J39D01*
G01X9305Y-68638D01*
G02X9080Y-68740I-225J198D01*
G01X5852D01*
G02X5621Y-68632I0J300D01*
G01X5332Y-68283D01*
G02X5262Y-68091I231J192D01*
G01Y-68057D01*
X5266Y-68008D01*
X5268Y-67996D01*
G03X5288Y-67756I-1481J240D01*
G03X2287Y-67756I-1500J0D01*
G03X2312Y-68030I1500J0D01*
G01Y-68031D01*
G02X2248Y-68277I-295J-55D01*
G01X1954Y-68632D01*
G02X1723Y-68740I-231J192D01*
G01X-45200D01*
G02X-45500Y-68440I0J300D01*
G01Y-65395D01*
G02X-45339Y-65129I300J0D01*
G01X-44970Y-64936D01*
G02X-44831Y-64902I139J-266D01*
G01X-44606D01*
X-44524Y-64926D01*
X-44488Y-64949D01*
G03X-43375Y-65273I1113J1753D01*
G01X-27626D01*
G03X-26390Y-64865I0J2077D01*
G01X-26337Y-64826D01*
X-26208Y-64799D01*
X-25706Y-64915D01*
G02X-25507Y-65070I-68J-292D01*
G03X-21500Y-67510I4007J2070D01*
G03Y-58490I0J4510D01*
G03X-25631Y-61191I0J-4510D01*
G02X-25819Y-61358I-275J120D01*
G01X-26313Y-61506D01*
X-26444Y-61487D01*
X-26499Y-61452D01*
G03X-27626Y-61119I-1127J-1744D01*
G01X-43374D01*
G03X-44558Y-61490I0J-2077D01*
G01X-44627Y-61538D01*
X-44794Y-61548D01*
X-45339Y-61263D01*
G02X-45500Y-60997I139J266D01*
G01Y12366D01*
G02X-45358Y12622I300J0D01*
G01X-44876Y12919D01*
X-44719Y12925D01*
X-44649Y12890D01*
G03X-43958Y12723I691J1354D01*
G03X-42999Y13064I0J1520D01*
G01X-42961Y13095D01*
X-42806Y13153D01*
X-42741Y13166D01*
X-42288Y13129D01*
X-42182Y13075D01*
X-42144Y13029D01*
G03X-41000Y12500I1144J971D01*
G03Y15500I0J1500D01*
G03X-41969Y15145I0J-1500D01*
G01X-42015Y15106D01*
X-42128Y15070D01*
X-42582Y15107D01*
X-42636Y15135D01*
X-42786Y15213D01*
X-42822Y15254D01*
G03X-43958Y15764I-1136J-1011D01*
G03X-44649Y15598I0J-1520D01*
G01X-44719Y15562D01*
X-44876Y15569D01*
X-45358Y15866D01*
G02X-45500Y16121I158J255D01*
G01Y18687D01*
G02X-45379Y18928I300J0D01*
G01X-45014Y19200D01*
G02X-44835Y19260I179J-240D01*
G01X-44721D01*
X-44683Y19250D01*
G03X-44300Y19200I383J1450D01*
G03X-42800Y20700I0J1500D01*
G03X-43213Y21734I-1500J0D01*
G01X-43251Y21774D01*
X-43317Y21930D01*
X-43340Y21986D01*
Y22324D01*
G02X-43334Y22384I300J0D01*
G01X-43322Y22441D01*
G02X-43305Y22497I294J-60D01*
G01X-43251Y22626D01*
X-43213Y22666D01*
G03X-42800Y23700I-1087J1034D01*
G03X-44300Y25200I-1500J0D01*
G03X-44692Y25148I0J-1500D01*
G01X-44712Y25143D01*
X-44730Y25137D01*
G02X-44994Y25185I-85J288D01*
G01X-45379Y25472D01*
G02X-45500Y25713I179J241D01*
G01Y113200D01*
G02X-45200Y113500I300J0D01*
G01X-15697D01*
G37*
G36*
G01X14531Y-65273D02*
G03X15715Y-64902I0J2077D01*
G01X15784Y-64854D01*
X15951Y-64844D01*
X16496Y-65129D01*
G02X16657Y-65395I-139J-266D01*
G01Y-68440D01*
G02X16357Y-68740I-300J0D01*
G01X15031D01*
G02X14805Y-68638I0J300D01*
G01X14465Y-68251D01*
X14427Y-68128D01*
X14435Y-68063D01*
G03X14455Y-67756I-2380J308D01*
G03X13924Y-66249I-2400J0D01*
G01X13869Y-66182D01*
X13849Y-66010D01*
X14120Y-65443D01*
G02X14391Y-65273I271J-129D01*
G01X14531D01*
G37*
%LPC*%
G75*
G36*
G01X3525Y59968D02*
G02X2500Y59563I-1025J1096D01*
G02Y62564I0J1500D01*
G02X3618Y62064I0J-1500D01*
G03X4471Y62022I447J400D01*
G03X4474Y62024I-202J222D01*
G02X5500Y62430I1027J-1094D01*
G02X6572Y61980I0J-1500D01*
G03X6786Y61890I214J210D01*
G01X7214D01*
G03X7428Y61980I0J300D01*
G02X8500Y62430I1072J-1050D01*
G02Y59430I0J-1500D01*
G02X7428Y59880I0J1500D01*
G03X7214Y59970I-214J-210D01*
G01X6786D01*
G03X6572Y59880I0J-300D01*
G02X5500Y59430I-1072J1050D01*
G02X4380Y59932I0J1500D01*
G03X4378Y59934I-226J-197D01*
G03X3525Y59968I-443J-404D01*
G37*
G36*
G01X-29742Y60950D02*
G02X-30500Y62254I742J1304D01*
G02X-27500I1500J0D01*
G02X-27900Y61233I-1500J0D01*
G03X-27758Y60304I440J-408D01*
G02X-27000Y59000I-742J-1304D01*
G02X-30000I-1500J0D01*
G02X-29600Y60021I1500J0D01*
G03X-29742Y60950I-440J408D01*
G37*
G36*
G01X-37736Y62458D02*
G02X-36250Y63754I1486J-204D01*
G02Y60754I0J-1500D01*
G02X-36607Y60797I0J1500D01*
G03X-37344Y60296I-143J-583D01*
G02X-38830Y59000I-1486J204D01*
G02Y62000I0J1500D01*
G02X-38473Y61957I0J-1500D01*
G03X-37736Y62458I143J583D01*
G37*
G36*
G01X-26377Y-1495D02*
G02X-27500Y-2000I-1123J995D01*
G02Y1000I0J1500D01*
G02X-26161Y177I0J-1500D01*
G03X-25177Y50I535J271D01*
G02X-24054Y555I1123J-995D01*
G02Y-2446I0J-1500D01*
G02X-25393Y-1623I0J1500D01*
G03X-26377Y-1495I-535J-271D01*
G37*
G36*
G01X-37947Y165D02*
X-37906Y230D01*
G02X-36640Y925I1266J-805D01*
G02X-35374Y230I0J-1500D01*
G01X-35333Y165D01*
X-35198Y91D01*
X-34538D01*
X-34403Y165D01*
X-34362Y230D01*
G02X-33096Y925I1266J-805D01*
G02Y-2075I0J-1500D01*
G02X-34362Y-1380I0J1500D01*
G01X-34403Y-1315D01*
X-34538Y-1241D01*
X-35198D01*
X-35333Y-1315D01*
X-35374Y-1380D01*
G02X-36640Y-2075I-1266J805D01*
G02X-37906Y-1380I0J1500D01*
G01X-37947Y-1315D01*
X-38082Y-1241D01*
X-38742D01*
X-38877Y-1315D01*
X-38918Y-1380D01*
G02X-40184Y-2075I-1266J805D01*
G02Y925I0J1500D01*
G02X-38918Y230I0J-1500D01*
G01X-38877Y165D01*
X-38742Y91D01*
X-38082D01*
X-37947Y165D01*
G37*
G36*
G01X6511Y-3720D02*
X6482Y-3659D01*
G02X6329Y-3000I1348J659D01*
G02X9330I1500J0D01*
G02X8198Y-4454I-1500J0D01*
G01X8132Y-4471D01*
X8028Y-4557D01*
X7775Y-5103D01*
X7776Y-5238D01*
X7806Y-5299D01*
G02X7958Y-5958I-1348J-659D01*
G02X6458Y-7458I-1500J0D01*
G02X5481Y-7096I0J1500D01*
G01X5439Y-7061D01*
X5336Y-7023D01*
X4829Y-7031D01*
X4726Y-7071D01*
X4686Y-7108D01*
G02X3675Y-7500I-1011J1108D01*
G02Y-4500I0J1500D01*
G02X4652Y-4862I0J-1500D01*
G01X4694Y-4897D01*
X4797Y-4935D01*
X5304Y-4927D01*
X5406Y-4887D01*
X5447Y-4850D01*
G02X6090Y-4504I1011J-1108D01*
G01X6156Y-4487D01*
X6260Y-4401D01*
X6513Y-3855D01*
X6511Y-3720D01*
G37*
G36*
G01X-12484Y-10428D02*
X-12529Y-10385D01*
G02X-13000Y-9293I1029J1091D01*
G02X-10000I1500J0D01*
G02X-10483Y-10396I-1500J0D01*
G01X-10529Y-10439D01*
X-10580Y-10553D01*
X-10583Y-11117D01*
X-10534Y-11231D01*
X-10488Y-11274D01*
G02X-10017Y-12366I-1029J-1091D01*
G02X-10266Y-13193I-1500J0D01*
G01X-10296Y-13238D01*
X-10320Y-13343D01*
X-10256Y-13840D01*
X-10205Y-13936D01*
X-10165Y-13972D01*
G02X-9662Y-15092I-997J-1121D01*
G02X-12662I-1500J0D01*
G02X-12413Y-14265I1500J0D01*
G01X-12384Y-14220D01*
X-12359Y-14115D01*
X-12424Y-13618D01*
X-12475Y-13522D01*
X-12515Y-13486D01*
G02X-13018Y-12366I997J1121D01*
G02X-12534Y-11262I1500J0D01*
G01X-12488Y-11220D01*
X-12438Y-11106D01*
X-12435Y-10542D01*
X-12484Y-10428D01*
G37*
G36*
G01X-30643Y-19358D02*
X-30712Y-19320D01*
G02X-31500Y-18000I712J1320D01*
G02X-28500I1500J0D01*
G02X-29158Y-19242I-1500J0D01*
G01X-29223Y-19286D01*
X-29293Y-19426D01*
X-29259Y-20096D01*
X-29175Y-20229D01*
X-29106Y-20266D01*
G02X-28893Y-20406I-712J-1320D01*
G01X-28833Y-20452D01*
X-28686Y-20478D01*
X-28069Y-20276D01*
X-27965Y-20168D01*
X-27945Y-20096D01*
G02X-26500Y-19000I1445J-404D01*
G02Y-22000I0J-1500D01*
G02X-27426Y-21681I0J1500D01*
G01X-27485Y-21634D01*
X-27632Y-21608D01*
X-28249Y-21810D01*
X-28353Y-21919D01*
X-28373Y-21991D01*
G02X-29818Y-23087I-1445J404D01*
G02X-31318Y-21587I0J1500D01*
G02X-30660Y-20345I1500J0D01*
G01X-30595Y-20301D01*
X-30525Y-20160D01*
X-30559Y-19491D01*
X-30643Y-19358D01*
G37*
G36*
G01X-230Y-29982D02*
G02X-1500Y-28500I230J1482D01*
G02X1500I1500J0D01*
G02X1328Y-29197I-1500J0D01*
G03X1767Y-30069I531J-279D01*
G02X3037Y-31552I-230J-1482D01*
G02X37I-1500J0D01*
G02X209Y-30854I1500J0D01*
G03X-230Y-29982I-531J279D01*
G37*
G36*
G01X-32640Y-34858D02*
X-32688Y-34833D01*
G02X-33500Y-33500I688J1333D01*
G02X-30500I1500J0D01*
G02X-30582Y-33991I-1500J0D01*
G01X-30600Y-34042D01*
X-30598Y-34150D01*
X-30411Y-34615D01*
X-30339Y-34695D01*
X-30290Y-34720D01*
G02X-29478Y-36053I-688J-1333D01*
G02X-30074Y-37250I-1500J0D01*
G01X-30117Y-37283D01*
X-30176Y-37374D01*
X-30280Y-37864D01*
X-30264Y-37971D01*
X-30238Y-38019D01*
G02X-30052Y-38743I-1314J-724D01*
G02X-30631Y-39927I-1500J0D01*
G01X-30674Y-39960D01*
X-30730Y-40052D01*
X-30828Y-40544D01*
X-30811Y-40651D01*
X-30784Y-40698D01*
G02X-30739Y-40783I-1304J-742D01*
G01X-30715Y-40832D01*
X-30634Y-40908D01*
X-30162Y-41101D01*
X-30052Y-41104D01*
X-30000Y-41086D01*
G02X-29500Y-41000I500J-1415D01*
G02X-28276Y-41632I0J-1500D01*
G01X-28240Y-41684D01*
X-28131Y-41749D01*
X-27564Y-41817D01*
X-27442Y-41780D01*
X-27394Y-41739D01*
G02X-26413Y-41373I982J-1135D01*
G02Y-44374I0J-1500D01*
G02X-27637Y-43741I0J1500D01*
G01X-27673Y-43689D01*
X-27782Y-43625D01*
X-28349Y-43556D01*
X-28470Y-43593D01*
X-28519Y-43635D01*
G02X-29500Y-44000I-981J1135D01*
G02X-30848Y-43158I0J1500D01*
G01X-30873Y-43108D01*
X-30953Y-43032D01*
X-31425Y-42839D01*
X-31536Y-42836D01*
X-31588Y-42855D01*
G02X-32088Y-42940I-500J1415D01*
G02X-33588Y-41440I0J1500D01*
G02X-33008Y-40256I1500J0D01*
G01X-32966Y-40223D01*
X-32909Y-40131D01*
X-32811Y-39639D01*
X-32829Y-39532D01*
X-32855Y-39485D01*
G02X-33052Y-38743I1304J742D01*
G02X-32456Y-37546I1500J0D01*
G01X-32413Y-37513D01*
X-32355Y-37422D01*
X-32250Y-36932D01*
X-32266Y-36825D01*
X-32292Y-36777D01*
G02X-32479Y-36053I1314J724D01*
G02X-32396Y-35563I1500J0D01*
G01X-32379Y-35511D01*
X-32381Y-35403D01*
X-32567Y-34938D01*
X-32640Y-34858D01*
G37*
G36*
G01X-21415Y-47011D02*
G02X-21431Y-46793I1484J218D01*
G02X-18431I1500J0D01*
G02X-18518Y-47296I-1500J0D01*
G01X-18538Y-47353D01*
X-18531Y-47475D01*
X-18284Y-47972D01*
X-18191Y-48051D01*
X-18133Y-48069D01*
G02X-17084Y-49500I-451J-1431D01*
G02X-18454Y-50995I-1500J0D01*
G01X-18508Y-50999D01*
X-18607Y-51046D01*
X-18956Y-51411D01*
X-18999Y-51511D01*
X-19001Y-51566D01*
G02X-20500Y-53000I-1499J66D01*
G02X-22000Y-51500I0J1500D01*
G02X-21957Y-51144I1500J0D01*
G01X-21944Y-51089D01*
X-21959Y-50976D01*
X-22216Y-50519D01*
X-22305Y-50447D01*
X-22359Y-50430D01*
G02X-23404Y-49072I453J1430D01*
G01X-23407Y-49014D01*
X-23455Y-48909D01*
X-23838Y-48543D01*
X-23945Y-48500D01*
X-24003Y-48500D01*
G02X-25500Y-47000I3J1500D01*
G02X-24000Y-45500I1500J0D01*
G02X-22502Y-46928I0J-1500D01*
G01X-22499Y-46986D01*
X-22451Y-47091D01*
X-22068Y-47457D01*
X-21961Y-47500D01*
X-21903Y-47500D01*
G02X-21854Y-47501I-2J-1500D01*
G03X-21620Y-47401I10J300D01*
G01X-21488Y-47254D01*
G03X-21415Y-47011I-224J200D01*
G37*
G36*
G01X-28498Y75906D02*
X-28045Y76119D01*
X-27969Y76196D01*
X-27947Y76245D01*
G02X-26576Y77135I1370J-610D01*
G02Y74135I0J-1500D01*
G02X-26985Y74192I0J1500D01*
G01X-27037Y74206D01*
X-27145Y74198D01*
X-27599Y73985D01*
X-27675Y73908D01*
X-27696Y73858D01*
G02X-29067Y72968I-1370J610D01*
G02Y75969I0J1500D01*
G02X-28658Y75912I0J-1500D01*
G01X-28606Y75897D01*
X-28498Y75906D01*
G37*
G36*
G01X-9034Y20765D02*
Y21194D01*
G03X-9124Y21408I-300J0D01*
G02X-9574Y22480I1050J1071D01*
G02X-6574I1500J0D01*
G02X-7024Y21408I-1500J0D01*
G03X-7114Y21194I210J-214D01*
G01Y20765D01*
G03X-7024Y20551I300J0D01*
G02X-6574Y19480I-1050J-1072D01*
G02X-9574I-1500J0D01*
G02X-9124Y20551I1500J0D01*
G03X-9034Y20765I-210J214D01*
G37*
G36*
G01X-12701Y-668D02*
X-12196Y-492D01*
X-12108Y-415D01*
X-12082Y-362D01*
G02X-10741Y466I1341J-672D01*
G02Y-2534I0J-1500D01*
G02X-11370Y-2396I0J1500D01*
G01X-11424Y-2371D01*
X-11540Y-2366D01*
X-12045Y-2542D01*
X-12132Y-2620D01*
X-12159Y-2672D01*
G02X-13430Y-3499I-1341J672D01*
G01X-13486Y-3501D01*
X-13588Y-3546D01*
X-13954Y-3912D01*
X-13999Y-4014D01*
X-14001Y-4070D01*
G02X-15500Y-5500I-1499J70D01*
G02X-17000Y-4000I0J1500D01*
G02X-15570Y-2501I1500J0D01*
G01X-15514Y-2499D01*
X-15412Y-2454D01*
X-15046Y-2088D01*
X-15001Y-1986D01*
X-14999Y-1930D01*
G02X-13500Y-500I1499J-70D01*
G02X-12871Y-638I0J-1500D01*
G01X-12817Y-663D01*
X-12701Y-668D01*
G37*
G36*
G01X-30179Y-6561D02*
X-30571D01*
G03X-30768Y-6634I0J-300D01*
G02X-31750Y-7000I-982J1134D01*
G02Y-4000I0J1500D01*
G02X-30768Y-4366I0J-1500D01*
G03X-30571Y-4439I196J227D01*
G01X-30179D01*
G03X-29982Y-4366I0J300D01*
G02X-29000Y-4000I982J-1134D01*
G02X-27500Y-5500I0J-1500D01*
G02X-27665Y-6185I-1500J0D01*
G01X-27690Y-6233D01*
X-27703Y-6341D01*
X-27584Y-6827D01*
X-27523Y-6917D01*
X-27479Y-6948D01*
G02X-26847Y-8172I-868J-1223D01*
G02X-29848I-1500J0D01*
G02X-29682Y-7486I1500J0D01*
G01X-29657Y-7438D01*
X-29645Y-7331D01*
X-29764Y-6844D01*
X-29824Y-6755D01*
X-29868Y-6723D01*
G02X-29982Y-6634I868J1223D01*
G03X-30179Y-6561I-196J-227D01*
G37*
G54D16*
X10740Y66936D03*
X0Y27500D03*
X11500Y-9000D03*
X-35134Y27635D03*
X-21500Y73000D03*
X-42870Y63500D03*
X6000Y40000D03*
X-29232Y-46675D03*
X-30000Y-13000D03*
X-38899Y-58500D03*
X-1603Y-6897D03*
X-2214Y67459D03*
X3000Y54500D03*
X-18500Y22794D03*
X3000Y49000D03*
X-18399Y49051D03*
X-19000Y87330D03*
X-16524Y54660D03*
Y58794D03*
X-34379Y44500D03*
X-33000Y59000D03*
X-15849Y-9151D03*
X-34000Y88500D03*
X-40500Y91644D03*
X-4000Y-43500D03*
X-500Y-23000D03*
X-32721Y77408D03*
X-22000Y27500D03*
X-42539Y-54203D03*
X-38589Y72881D03*
X9500Y-12000D03*
X11000Y54500D03*
X-19167Y41577D03*
%LPD*%
G75*
G54D10*
X-35500Y-63196D03*
Y112000D03*
X6657Y-63196D03*
Y112000D03*
G54D11*
X-34500Y-54797D03*
X-44000Y-45346D03*
X-44300Y-26815D03*
X-32301Y-20405D03*
X-44400Y-18500D03*
Y-7500D03*
Y16958D03*
X-44178Y30066D03*
X-44400Y27232D03*
X-34500Y48000D03*
X-42978Y54500D03*
X-39828Y84081D03*
X-43025Y72881D03*
X-31500Y92351D03*
X-14822Y-61500D03*
X-15591Y-31909D03*
X-18591Y-34909D03*
X-26029Y-11000D03*
X-23745Y16955D03*
X-24000Y30500D03*
X-16500Y28500D03*
X-23181Y48008D03*
X-14403Y42679D03*
X-14716Y68492D03*
X-23032Y75635D03*
X-24500Y73000D03*
X-11476Y-64115D03*
X-2000Y-56500D03*
X-10906Y-54826D03*
X-7284Y-54845D03*
X-12591Y-28909D03*
X-1685Y15734D03*
X-7674Y26011D03*
X-6816Y29316D03*
X-1797Y43154D03*
X-3062Y45601D03*
X-9639Y41577D03*
X-2214Y63500D03*
X994Y74121D03*
Y77481D03*
Y80481D03*
Y83481D03*
Y86841D03*
X-7500Y112400D03*
X-4500D03*
Y109400D03*
X-7500D03*
X5315Y-56812D03*
X5000Y-43760D03*
X4500Y-47381D03*
X14500Y-38176D03*
X3639Y-16794D03*
X6353Y-16353D03*
X12980Y15734D03*
X14555Y29101D03*
X13989Y49000D03*
X8500Y56500D03*
X8149Y97267D03*
G54D12*
X-21252Y111294D03*
X-12590D03*
G54D13*
X12055Y-67756D03*
G54D14*
G01X9355D02*
X12055D01*
G01D02*
X14755D01*
G54D15*
G01X8000Y-66500D02*
X10799D01*
X12055Y-67756D01*
M02*
