G04 ================== begin FILE IDENTIFICATION RECORD ==================*
G04 Layout Name:  1010309-900-0012_Rev-A.brd*
G04 Film Name:    1010309-900-0012_Rev-AASSEMBLY_BOT*
G04 File Format:  Gerber RS274X*
G04 File Origin:  Cadence Allegro 17.2-061*
G04 Origin Date:  Mon Aug 31 14:47:59 2020*
G04 *
G04 Layer:  REF DES/ASSEMBLY_BOTTOM*
G04 Layer:  PACKAGE GEOMETRY/ASSEMBLY_BOTTOM*
G04 Layer:  BOARD GEOMETRY/ASSEMBLY_NOTES*
G04 Layer:  BOARD GEOMETRY/ASSEMBLY_DETAIL*
G04 Layer:  BOARD GEOMETRY/DESIGN_OUTLINE*
G04 Layer:  BOARD GEOMETRY/CUTOUT*
G04 *
G04 Offset:    (0.000 0.000)*
G04 Mirror:    No*
G04 Mode:      Positive*
G04 Rotation:  0*
G04 FullContactRelief:  No*
G04 UndefLineWidth:     1.000*
G04 ================== end FILE IDENTIFICATION RECORD ====================*
%FSLAX25Y25*MOIN*%
%IR0*IPPOS*OFA0.00000B0.00000*MIA0B0*SFA1.00000B1.00000*%
%ADD10C,.00472*%
%ADD11C,.004724*%
%ADD12C,.001*%
G75*
%LPD*%
G75*
G54D10*
G01X-56169Y112000D02*
Y-58196D01*
X-51169Y-63196D01*
X-14831D01*
Y112000D01*
X-56169D01*
G01X-11015Y105388D02*
Y117200D01*
X-22827D01*
Y105388D01*
X-11015D01*
G01X27326Y-63196D02*
Y107000D01*
X22326Y112000D01*
X-14012D01*
Y-63196D01*
X27326D01*
G01X55476Y-59134D02*
Y-50866D01*
X14924D01*
Y-59134D01*
X55476D01*
G54D11*
G01X29087Y-50224D02*
Y-40776D01*
X14913D01*
Y-50224D01*
X29087D01*
G54D12*
G01X-46984Y-90000D02*
X18016D01*
Y115000D01*
X-46984D01*
Y-90000D01*
G01X-35055Y108667D02*
X-35308Y108917D01*
X-35498Y109333D01*
X-35625Y109917D01*
X-35498Y110417D01*
X-35245Y110750D01*
X-34801Y111000D01*
X-33091D01*
Y106000D01*
X-35181D01*
X-35625Y106333D01*
X-35878Y106833D01*
X-36005Y107417D01*
X-35878Y108000D01*
X-35498Y108500D01*
X-35055Y108667D01*
X-33091D01*
G01X-38445Y110167D02*
X-38825Y110667D01*
X-39268Y110917D01*
X-39775Y111000D01*
X-40408Y110833D01*
X-40851Y110417D01*
X-40978Y109917D01*
X-40915Y109416D01*
X-40661Y109000D01*
X-39395Y108167D01*
X-38825Y107583D01*
X-38445Y106750D01*
X-38318Y106000D01*
X-40978D01*
G01X-10555Y118794D02*
Y123794D01*
X-12138D01*
X-12645Y123544D01*
X-12961Y123211D01*
X-13088Y122544D01*
X-12961Y121877D01*
X-12581Y121461D01*
X-12138Y121211D01*
X-10555D01*
G01X-12138D02*
X-13088Y118794D01*
G01X-16921Y123794D02*
Y118794D01*
G01X-15465Y123794D02*
X-18378D01*
G01X-20818Y122961D02*
X-21198Y123461D01*
X-21641Y123711D01*
X-22148Y123794D01*
X-22781Y123628D01*
X-23225Y123211D01*
X-23351Y122711D01*
X-23288Y122211D01*
X-23035Y121794D01*
X-21768Y120961D01*
X-21198Y120377D01*
X-20818Y119544D01*
X-20691Y118794D01*
X-23351D01*
G01X7141Y108324D02*
X6888Y108574D01*
X6698Y108991D01*
X6571Y109574D01*
X6698Y110074D01*
X6951Y110407D01*
X7395Y110657D01*
X9105D01*
Y105657D01*
X7015D01*
X6571Y105991D01*
X6318Y106491D01*
X6191Y107074D01*
X6318Y107657D01*
X6698Y108157D01*
X7141Y108324D01*
X9105D01*
G01X2548Y105657D02*
Y110657D01*
X3308Y109658D01*
G01Y105657D02*
X1788D01*
G01X43867Y-47626D02*
Y-42626D01*
X42283D01*
X41777Y-42876D01*
X41460Y-43209D01*
X41333Y-43876D01*
X41460Y-44543D01*
X41840Y-44959D01*
X42283Y-45209D01*
X43867D01*
G01X42283D02*
X41333Y-47626D01*
G01X37500Y-42626D02*
Y-47626D01*
G01X38957Y-42626D02*
X36043D01*
G01X33793Y-46626D02*
X33413Y-47209D01*
X32907Y-47543D01*
X32337Y-47626D01*
X31830Y-47543D01*
X31323Y-47126D01*
X31007Y-46626D01*
X30943Y-46126D01*
X31070Y-45543D01*
X31513Y-45126D01*
X31957Y-44959D01*
X32527D01*
G01X31957D02*
X31577Y-44709D01*
X31260Y-44293D01*
X31133Y-43793D01*
X31260Y-43293D01*
X31577Y-42876D01*
X32147Y-42626D01*
X32717Y-42709D01*
X33287Y-43043D01*
G01X69067Y-57626D02*
Y-52626D01*
X67483D01*
X66977Y-52876D01*
X66660Y-53209D01*
X66533Y-53876D01*
X66660Y-54543D01*
X67040Y-54959D01*
X67483Y-55209D01*
X69067D01*
G01X67483D02*
X66533Y-57626D01*
G01X62700Y-52626D02*
Y-57626D01*
G01X64157Y-52626D02*
X61243D01*
G01X57600Y-57626D02*
Y-52626D01*
X58360Y-53626D01*
G01Y-57626D02*
X56840D01*
M02*
